<svg width="452" height="452" viewBox="0 0 452 452" fill="none" xmlns="http://www.w3.org/2000/svg">
<path d="M364.511 205.497C367.675 152.839 327.284 106.78 281.641 84.1353C229.399 58.2176 167.665 65.3682 123.387 97.6953C108.218 108.778 95.2274 123.468 88.7366 141.584C79.9859 166.047 82.9962 193.239 88.2214 218.723C92.2894 238.611 100.977 260.406 98.7891 280.258C96.4206 301.773 99.6208 323.786 114.564 341.495C151.628 385.411 235.483 375.892 279.517 359.882C299.36 352.65 320.016 340.79 331.37 322.023C337.378 312.094 340.345 300.623 339.904 289.027C339.588 279.933 337.373 269.211 340.329 260.542C346.105 243.592 360 233.539 363.426 214.854C363.979 211.76 364.341 208.635 364.511 205.497Z" fill="#FF9A6C"/>
<path opacity="0.8" d="M364.511 205.497C367.675 152.839 327.284 106.78 281.641 84.1353C229.399 58.2176 167.665 65.3682 123.387 97.6953C108.218 108.778 95.2274 123.468 88.7366 141.584C79.9859 166.047 82.9962 193.239 88.2214 218.723C92.2894 238.611 100.977 260.406 98.7891 280.258C96.4206 301.773 99.6208 323.786 114.564 341.495C151.628 385.411 235.483 375.892 279.517 359.882C299.36 352.65 320.016 340.79 331.37 322.023C337.378 312.094 340.345 300.623 339.904 289.027C339.588 279.933 337.373 269.211 340.329 260.542C346.105 243.592 360 233.539 363.426 214.854C363.979 211.76 364.341 208.635 364.511 205.497Z" fill="white"/>
<path d="M119.482 208.761H99.3406V226.307H119.482V208.761Z" fill="#FF9A6C"/>
<path d="M119.482 173.026H99.3406V190.572H119.482V173.026Z" fill="#FF9A6C"/>
<path d="M119.482 137.281H99.3406V154.828H119.482V137.281Z" fill="#FF9A6C"/>
<path d="M119.482 101.546H99.3406V119.093H119.482V101.546Z" fill="#FF9A6C"/>
<path d="M155.217 208.761H135.076V226.307H155.217V208.761Z" fill="#FF9A6C"/>
<path d="M155.217 173.026H135.076V190.572H155.217V173.026Z" fill="#FF9A6C"/>
<path d="M155.217 137.281H135.076V154.828H155.217V137.281Z" fill="#FF9A6C"/>
<path d="M155.217 101.546H135.076V119.093H155.217V101.546Z" fill="#FF9A6C"/>
<path d="M190.961 208.761H170.82V226.307H190.961V208.761Z" fill="#FF9A6C"/>
<path d="M190.961 173.026H170.82V190.572H190.961V173.026Z" fill="#FF9A6C"/>
<path d="M190.961 137.281H170.82V154.828H190.961V137.281Z" fill="#FF9A6C"/>
<path d="M190.961 101.546H170.82V119.093H190.961V101.546Z" fill="#FF9A6C"/>
<path d="M226.696 208.761H206.555V226.307H226.696V208.761Z" fill="#FF9A6C"/>
<path d="M226.696 173.026H206.555V190.572H226.696V173.026Z" fill="#FF9A6C"/>
<path d="M226.696 137.281H206.555V154.828H226.696V137.281Z" fill="#FF9A6C"/>
<path d="M226.696 101.546H206.555V119.093H226.696V101.546Z" fill="#FF9A6C"/>
<path d="M262.431 208.761H242.29V226.307H262.431V208.761Z" fill="#FF9A6C"/>
<path d="M262.431 173.026H242.29V190.572H262.431V173.026Z" fill="#FF9A6C"/>
<path d="M262.431 137.281H242.29V154.828H262.431V137.281Z" fill="#FF9A6C"/>
<path d="M262.431 101.546H242.29V119.093H262.431V101.546Z" fill="#FF9A6C"/>
<path d="M298.175 208.761H278.034V226.307H298.175V208.761Z" fill="#FF9A6C"/>
<path d="M298.175 173.026H278.034V190.572H298.175V173.026Z" fill="#FF9A6C"/>
<path d="M298.175 137.281H278.034V154.828H298.175V137.281Z" fill="#FF9A6C"/>
<path d="M298.175 101.546H278.034V119.093H298.175V101.546Z" fill="#FF9A6C"/>
<path d="M352.099 168.921C346.723 171.319 342.29 175.425 339.488 180.601H339C339.705 177.148 341.649 169.229 345.599 163.299C350.788 155.515 370.685 146.864 368.95 139.514C367.214 132.165 350.788 142.109 345.165 150.76C340.474 157.992 339.099 175.114 338.765 180.592C338.584 178.233 337.445 173.423 332.229 165.884C324.446 154.638 298.058 157.667 294.605 167.186C291.151 176.705 307.577 165.45 320.115 166.282C326.254 166.707 330.837 170.549 333.92 174.364C331.542 173.161 327.998 172.556 322.71 173.206C305.85 175.367 295.038 194.396 300.652 196.991C306.266 199.585 311.021 185.32 323.994 179.733C332.844 175.9 336.46 178.504 337.861 180.547V180.601H337.282V181.975C334.57 181.397 328.55 180.764 325.268 185.356C320.947 191.413 324.834 201.791 327.438 196.204C329.381 191.992 334.67 186.323 337.273 183.747L336.532 306.456H305.796V248.853H306.646C307.005 248.853 307.35 248.71 307.605 248.456C307.859 248.202 308.002 247.857 308.002 247.497C308.002 247.137 307.859 246.793 307.605 246.538C307.35 246.284 307.005 246.141 306.646 246.141H305.67C305.629 246.095 305.578 246.059 305.522 246.034C305.466 246.009 305.405 245.996 305.344 245.996H266.987C266.926 245.996 266.865 246.009 266.809 246.034C266.753 246.059 266.703 246.095 266.662 246.141H265.423V102.496C265.423 102.136 265.281 101.791 265.026 101.537C264.772 101.282 264.427 101.14 264.067 101.14C263.708 101.14 263.363 101.282 263.109 101.537C262.854 101.791 262.711 102.136 262.711 102.496V246.141H257.568C257.527 246.095 257.477 246.059 257.42 246.034C257.364 246.009 257.304 245.996 257.242 245.996H230.466V102.496C230.466 102.136 230.323 101.791 230.069 101.537C229.814 101.282 229.469 101.14 229.11 101.14C228.75 101.14 228.405 101.282 228.151 101.537C227.897 101.791 227.754 102.136 227.754 102.496V245.996H195.499V102.496C195.499 102.136 195.356 101.791 195.102 101.537C194.848 101.282 194.503 101.14 194.143 101.14C193.783 101.14 193.439 101.282 193.184 101.537C192.93 101.791 192.787 102.136 192.787 102.496V245.996H160.541V102.496C160.541 102.136 160.399 101.791 160.144 101.537C159.89 101.282 159.545 101.14 159.185 101.14C158.826 101.14 158.481 101.282 158.227 101.537C157.972 101.791 157.829 102.136 157.829 102.496V245.996H125.575V102.496C125.575 102.136 125.432 101.791 125.177 101.537C124.923 101.282 124.578 101.14 124.219 101.14C123.859 101.14 123.514 101.282 123.26 101.537C123.006 101.791 122.863 102.136 122.863 102.496V245.996H98.0388C97.9774 245.996 97.9167 246.009 97.8606 246.034C97.8045 246.059 97.7543 246.095 97.7134 246.141H92.895V238.403C92.895 238.043 92.7522 237.698 92.4979 237.444C92.2436 237.19 91.8987 237.047 91.539 237.047C91.1794 237.047 90.8345 237.19 90.5802 237.444C90.3259 237.698 90.183 238.043 90.183 238.403V247.497C90.183 247.857 90.3259 248.202 90.5802 248.456C90.8345 248.71 91.1794 248.853 91.539 248.853H97.632V306.456H78.5395C78.4204 306.458 78.3067 306.507 78.2225 306.591C78.1382 306.675 78.0898 306.789 78.0875 306.908C78.0875 307.028 78.1351 307.143 78.2199 307.228C78.3047 307.312 78.4196 307.36 78.5395 307.36H329.96C330.213 307.36 354.368 307.161 354.368 306.908C354.368 306.788 354.32 306.673 354.236 306.588C354.151 306.504 354.036 306.456 353.916 306.456H340.853L340.085 181.342C342.797 179.534 349.351 175.738 356.863 175.412C366.807 174.978 371.128 188.818 375.024 182.328C378.921 175.837 362.504 164.166 352.099 168.921ZM266.535 306.456H257.694V248.853H263.317C263.539 249.002 263.8 249.08 264.067 249.079C264.337 249.081 264.602 249.002 264.827 248.853H266.535V306.456Z" fill="#FF9A6C"/>
<g opacity="0.5">
<path d="M119.482 208.761H99.3406V226.307H119.482V208.761Z" fill="white"/>
<path d="M119.482 173.026H99.3406V190.572H119.482V173.026Z" fill="white"/>
<path d="M119.482 137.281H99.3406V154.828H119.482V137.281Z" fill="white"/>
<path d="M119.482 101.546H99.3406V119.093H119.482V101.546Z" fill="white"/>
<path d="M155.217 208.761H135.076V226.307H155.217V208.761Z" fill="white"/>
<path d="M155.217 173.026H135.076V190.572H155.217V173.026Z" fill="white"/>
<path d="M155.217 137.281H135.076V154.828H155.217V137.281Z" fill="white"/>
<path d="M155.217 101.546H135.076V119.093H155.217V101.546Z" fill="white"/>
<path d="M190.961 208.761H170.82V226.307H190.961V208.761Z" fill="white"/>
<path d="M190.961 173.026H170.82V190.572H190.961V173.026Z" fill="white"/>
<path d="M190.961 137.281H170.82V154.828H190.961V137.281Z" fill="white"/>
<path d="M190.961 101.546H170.82V119.093H190.961V101.546Z" fill="white"/>
<path d="M226.696 208.761H206.555V226.307H226.696V208.761Z" fill="white"/>
<path d="M226.696 173.026H206.555V190.572H226.696V173.026Z" fill="white"/>
<path d="M226.696 137.281H206.555V154.828H226.696V137.281Z" fill="white"/>
<path d="M226.696 101.546H206.555V119.093H226.696V101.546Z" fill="white"/>
<path d="M262.431 208.761H242.29V226.307H262.431V208.761Z" fill="white"/>
<path d="M262.431 173.026H242.29V190.572H262.431V173.026Z" fill="white"/>
<path d="M262.431 137.281H242.29V154.828H262.431V137.281Z" fill="white"/>
<path d="M262.431 101.546H242.29V119.093H262.431V101.546Z" fill="white"/>
<path d="M298.175 208.761H278.034V226.307H298.175V208.761Z" fill="white"/>
<path d="M298.175 173.026H278.034V190.572H298.175V173.026Z" fill="white"/>
<path d="M298.175 137.281H278.034V154.828H298.175V137.281Z" fill="white"/>
<path d="M298.175 101.546H278.034V119.093H298.175V101.546Z" fill="white"/>
<path d="M352.099 168.921C346.723 171.319 342.29 175.425 339.488 180.601H339C339.705 177.148 341.649 169.229 345.599 163.299C350.788 155.515 370.685 146.864 368.95 139.514C367.214 132.165 350.788 142.109 345.165 150.76C340.474 157.992 339.099 175.114 338.765 180.592C338.584 178.233 337.445 173.423 332.229 165.884C324.446 154.638 298.058 157.667 294.605 167.186C291.151 176.705 307.577 165.45 320.115 166.282C326.254 166.707 330.837 170.549 333.92 174.364C331.542 173.161 327.998 172.556 322.71 173.206C305.85 175.367 295.038 194.396 300.652 196.991C306.266 199.585 311.021 185.32 323.994 179.733C332.844 175.9 336.46 178.504 337.861 180.547V180.601H337.282V181.975C334.57 181.397 328.55 180.764 325.268 185.356C320.947 191.413 324.834 201.791 327.438 196.204C329.381 191.992 334.67 186.323 337.273 183.747L336.532 306.456H305.796V248.853H306.646C307.005 248.853 307.35 248.71 307.605 248.456C307.859 248.202 308.002 247.857 308.002 247.497C308.002 247.137 307.859 246.793 307.605 246.538C307.35 246.284 307.005 246.141 306.646 246.141H305.67C305.629 246.095 305.578 246.059 305.522 246.034C305.466 246.009 305.405 245.996 305.344 245.996H266.987C266.926 245.996 266.865 246.009 266.809 246.034C266.753 246.059 266.703 246.095 266.662 246.141H265.423V102.496C265.423 102.136 265.281 101.791 265.026 101.537C264.772 101.282 264.427 101.14 264.067 101.14C263.708 101.14 263.363 101.282 263.109 101.537C262.854 101.791 262.711 102.136 262.711 102.496V246.141H257.568C257.527 246.095 257.477 246.059 257.42 246.034C257.364 246.009 257.304 245.996 257.242 245.996H230.466V102.496C230.466 102.136 230.323 101.791 230.069 101.537C229.814 101.282 229.469 101.14 229.11 101.14C228.75 101.14 228.405 101.282 228.151 101.537C227.897 101.791 227.754 102.136 227.754 102.496V245.996H195.499V102.496C195.499 102.136 195.356 101.791 195.102 101.537C194.848 101.282 194.503 101.14 194.143 101.14C193.783 101.14 193.439 101.282 193.184 101.537C192.93 101.791 192.787 102.136 192.787 102.496V245.996H160.541V102.496C160.541 102.136 160.399 101.791 160.144 101.537C159.89 101.282 159.545 101.14 159.185 101.14C158.826 101.14 158.481 101.282 158.227 101.537C157.972 101.791 157.829 102.136 157.829 102.496V245.996H125.575V102.496C125.575 102.136 125.432 101.791 125.177 101.537C124.923 101.282 124.578 101.14 124.219 101.14C123.859 101.14 123.514 101.282 123.26 101.537C123.006 101.791 122.863 102.136 122.863 102.496V245.996H98.0388C97.9774 245.996 97.9167 246.009 97.8606 246.034C97.8045 246.059 97.7543 246.095 97.7134 246.141H92.895V238.403C92.895 238.043 92.7522 237.698 92.4979 237.444C92.2436 237.19 91.8987 237.047 91.539 237.047C91.1794 237.047 90.8345 237.19 90.5802 237.444C90.3259 237.698 90.183 238.043 90.183 238.403V247.497C90.183 247.857 90.3259 248.202 90.5802 248.456C90.8345 248.71 91.1794 248.853 91.539 248.853H97.632V306.456H78.5395C78.4204 306.458 78.3067 306.507 78.2225 306.591C78.1382 306.675 78.0898 306.789 78.0875 306.908C78.0875 307.028 78.1351 307.143 78.2199 307.228C78.3047 307.312 78.4196 307.36 78.5395 307.36H329.96C330.213 307.36 354.368 307.161 354.368 306.908C354.368 306.788 354.32 306.673 354.236 306.588C354.151 306.504 354.036 306.456 353.916 306.456H340.853L340.085 181.342C342.797 179.534 349.351 175.738 356.863 175.412C366.807 174.978 371.128 188.818 375.024 182.328C378.921 175.837 362.504 164.166 352.099 168.921ZM266.535 306.456H257.694V248.853H263.317C263.539 249.002 263.8 249.08 264.067 249.079C264.337 249.081 264.602 249.002 264.827 248.853H266.535V306.456Z" fill="white"/>
</g>
<path d="M203.463 375.223C230.424 375.223 252.279 371.176 252.279 366.183C252.279 361.191 230.424 357.143 203.463 357.143C176.503 357.143 154.647 361.191 154.647 366.183C154.647 371.176 176.503 375.223 203.463 375.223Z" fill="#263238"/>
<path d="M166.481 157.974C166.481 157.974 163.543 157.296 163.091 160.234C162.639 163.172 161.509 172.664 162.187 175.15C162.865 177.636 166.255 176.958 166.255 176.958L166.481 157.974Z" fill="white" stroke="#263238" stroke-linecap="round" stroke-linejoin="round"/>
<path d="M165.803 179.896C165.803 179.896 162.639 179.218 162.187 181.252C161.735 183.286 159.475 194.36 159.701 197.072C159.927 199.784 163.995 199.106 163.995 199.106L165.803 179.896Z" fill="white" stroke="#263238" stroke-linecap="round" stroke-linejoin="round"/>
<path d="M190.211 142.832C190.211 142.832 180.493 146.9 174.617 149.838C168.741 152.776 165.125 155.714 165.125 160.912C165.125 166.11 165.125 180.348 163.091 190.066C161.057 199.784 163.543 210.18 171.453 213.344C179.363 216.508 187.273 215.604 190.889 211.988C194.505 208.372 196.539 198.428 196.991 192.326C197.443 186.224 196.991 149.386 196.991 146.448C196.991 143.51 193.601 139.894 190.211 142.832Z" fill="white" stroke="#263238" stroke-linecap="round" stroke-linejoin="round"/>
<path d="M195.716 200.688C194.89 199.937 193.946 199.326 192.923 198.88C186.595 196.168 170.097 200.236 167.385 203.852C166.777 204.689 166.379 205.659 166.221 206.681C166.064 207.703 166.153 208.747 166.481 209.728C167.798 211.327 169.495 212.57 171.416 213.344C179.326 216.508 187.236 215.604 190.852 211.988C193.085 209.8 194.685 205.28 195.716 200.688Z" fill="white" stroke="#263238" stroke-linecap="round" stroke-linejoin="round"/>
<path d="M193.375 194.36C193.375 194.36 185.917 220.802 186.143 231.424C186.369 242.046 192.923 267.358 194.957 271.426C196.991 275.494 196.991 276.85 194.505 280.692C192.019 284.534 183.431 295.834 182.979 307.36C182.527 318.886 183.205 345.328 182.753 348.04C182.301 350.752 173.261 363.634 174.617 368.154C175.973 372.674 180.719 369.736 181.849 367.25C182.979 364.764 185.239 357.306 185.917 354.82C186.595 352.334 187.047 348.492 187.951 345.102C188.855 341.712 196.539 318.434 199.477 311.88C202.415 305.326 209.421 288.376 210.777 286.116C212.133 283.856 213.263 276.172 213.263 276.172C213.263 276.172 214.167 306.456 215.523 313.914C216.879 321.372 217.331 345.102 217.331 350.526C217.331 355.95 214.845 363.408 216.201 364.538C217.557 365.668 222.981 366.346 223.659 367.024C224.337 367.702 229.987 370.188 232.021 371.092C234.055 371.996 237.634 372.159 237.182 369.899C236.73 367.639 227.953 360.696 225.919 355.95C223.885 351.204 223.207 349.848 223.433 345.78C223.659 341.712 234.281 312.784 233.603 301.258C232.925 289.732 232.473 282.048 232.473 275.494C232.473 268.94 241.513 252.216 243.773 237.526C246.033 222.836 239.705 203.852 235.637 196.62L193.375 194.36Z" fill="white" stroke="#263238" stroke-linecap="round" stroke-linejoin="round"/>
<path d="M210.777 286.116C212.133 283.856 213.263 276.172 213.263 276.172C213.263 276.172 214.167 306.456 215.523 313.914C216.806 320.947 217.276 342.453 217.331 349.423C219.376 349.986 221.551 349.843 223.505 349.016C223.377 347.942 223.353 346.859 223.433 345.78C223.659 341.712 234.281 312.784 233.603 301.258C232.925 289.732 232.473 282.048 232.473 275.494C232.473 268.94 241.513 252.216 243.773 237.526C246.033 222.836 239.705 203.852 235.637 196.62L193.375 194.36C193.375 194.36 185.917 220.802 186.143 231.424C186.369 242.046 192.923 267.358 194.957 271.426C196.991 275.494 196.991 276.85 194.505 280.692C192.019 284.534 183.431 295.834 182.979 307.36C182.608 316.906 182.979 336.659 182.897 344.713C184.514 345.305 186.263 345.44 187.951 345.102C188.855 341.712 196.539 318.434 199.477 311.88C202.415 305.326 209.421 288.376 210.777 286.116Z" fill="#263238" stroke="#263238" stroke-linecap="round" stroke-linejoin="round"/>
<path d="M213.868 271.697C213.516 274.491 213.263 276.172 213.263 276.172" stroke="white" stroke-linecap="round" stroke-linejoin="round"/>
<path d="M210.777 226.678L215.749 230.972C216.761 242.417 215.459 257.776 214.384 267.313" stroke="white" stroke-linecap="round" stroke-linejoin="round"/>
<path d="M215.749 230.972C219.222 228.466 222.339 225.501 225.015 222.158" stroke="white" stroke-linecap="round" stroke-linejoin="round"/>
<path d="M214.393 205.886L215.297 220.124L217.331 218.768L217.105 210.858" stroke="white" stroke-linecap="round" stroke-linejoin="round"/>
<path d="M237.182 369.899C236.74 367.72 228.622 361.22 226.199 356.501C225.761 356.712 225.341 356.957 224.942 357.234C223.77 357.98 222.811 359.017 222.158 360.244C220.226 359.482 218.342 358.604 216.517 357.613C215.938 360.976 215.396 363.869 216.201 364.538C217.557 365.668 222.981 366.346 223.659 367.024C224.337 367.702 229.987 370.188 232.021 371.092C234.055 371.996 237.634 372.159 237.182 369.899Z" fill="#FF9A6C" stroke="#263238" stroke-linecap="round" stroke-linejoin="round"/>
<path d="M232.021 371.092C234.055 371.996 237.634 372.159 237.182 369.899C237.145 369.744 237.087 369.595 237.011 369.456C232.328 370.757 228.956 368.335 223.234 365.18C220.928 363.818 218.437 362.798 215.839 362.151C215.74 363.345 215.839 364.213 216.201 364.538C217.557 365.668 222.981 366.346 223.659 367.024C224.337 367.702 229.987 370.188 232.021 371.092Z" fill="white" stroke="#263238" stroke-linecap="round" stroke-linejoin="round"/>
<path d="M181.849 367.25C182.753 365.288 184.335 360.226 185.302 356.953C184.897 356.35 184.343 355.861 183.694 355.534C183.044 355.208 182.321 355.055 181.596 355.091C180.655 355.095 179.728 355.312 178.884 355.724C176.416 360.298 173.821 365.578 174.59 368.154C175.973 372.674 180.719 369.736 181.849 367.25Z" fill="#FF9A6C" stroke="#263238" stroke-linecap="round" stroke-linejoin="round"/>
<path d="M181.849 367.25C182.201 366.482 182.662 365.234 183.141 363.806C181.107 367.711 178.893 369.013 176.877 368.606C175.069 368.253 175.069 364.945 175.141 363.833C174.562 365.195 174.38 366.693 174.617 368.154C175.973 372.674 180.719 369.736 181.849 367.25Z" fill="white" stroke="#263238" stroke-linecap="round" stroke-linejoin="round"/>
<path d="M251.909 129.046C251.909 129.046 254.358 131.288 252.74 137.625C251.122 143.962 247.217 164.591 247.696 167.24C248.175 169.889 248.835 181.369 248.835 181.369C248.619 182.832 248.066 184.224 247.221 185.436C246.375 186.649 245.26 187.649 243.962 188.357C239.578 190.626 233.241 187.869 232.427 183.322C231.614 178.775 236.947 168.207 238.755 163.497C240.563 158.788 247.524 134.425 248.175 133.123C248.826 131.821 250.761 126.641 251.909 129.046Z" fill="#FF9A6C" stroke="#263238" stroke-linecap="round" stroke-linejoin="round"/>
<path d="M242.173 177.428L235.845 179.372" stroke="#263238" stroke-linecap="round" stroke-linejoin="round"/>
<path d="M215.749 122.944C215.749 122.944 194.731 125.656 191.567 126.108C188.403 126.56 188.403 128.82 188.403 128.82C188.403 128.82 194.279 166.788 194.731 173.568C195.183 180.348 189.533 200.236 189.533 200.236C189.533 200.236 201.963 204.304 213.037 204.756C224.111 205.208 239.479 200.01 239.479 200.01C239.479 200.01 232.247 187.128 233.377 181.478C234.507 175.828 240.383 166.11 241.965 161.138C243.547 156.166 253.039 131.306 251.909 129.046C250.779 126.786 228.179 121.588 222.981 121.588C217.783 121.588 215.749 122.944 215.749 122.944Z" fill="#FF9A6C" stroke="#263238" stroke-linecap="round" stroke-linejoin="round"/>
<path d="M228.631 174.246C228.631 174.246 230.665 180.8 232.925 184.416" stroke="#263238" stroke-linecap="round" stroke-linejoin="round"/>
<path d="M189.542 126.741C187.792 127.747 186.466 129.352 185.808 131.261C184.506 134.678 180.122 155.669 177.03 161.319C173.939 166.969 171.19 174.635 171.507 178.54C171.823 182.445 177.193 185.356 180.122 184.226C183.051 183.096 186.784 180.809 188.258 180.321C189.732 179.833 190.699 174.797 189.397 174.146C188.452 173.555 187.671 172.734 187.128 171.76C187.128 171.76 190.862 162.503 191.512 159.411C191.956 157.383 192.175 155.313 192.163 153.237C192.145 152.243 189.542 126.741 189.542 126.741Z" fill="#FF9A6C" stroke="#263238" stroke-linecap="round" stroke-linejoin="round"/>
<path d="M187.128 171.76C185.476 170.19 183.681 168.777 181.767 167.538C179.489 166.236 175.105 169.482 174.942 170.784" stroke="#263238" stroke-linecap="round" stroke-linejoin="round"/>
<path d="M190.663 125.882C190.663 125.882 192.245 165.658 191.115 173.794C189.985 181.93 186.143 196.168 186.143 196.168H188.855C188.855 196.168 194.505 167.918 196.539 159.33C198.573 150.742 202.189 127.69 202.189 125.43C202.189 123.17 193.601 122.944 190.663 125.882Z" fill="white" stroke="#263238" stroke-linecap="round" stroke-linejoin="round"/>
<path d="M186.143 196.168H188.855C188.855 196.168 194.125 169.825 196.322 160.288L191.521 160.415C191.622 164.879 191.486 169.345 191.115 173.794C189.985 181.93 186.143 196.168 186.143 196.168Z" fill="#263238" stroke="#263238" stroke-linecap="round" stroke-linejoin="round"/>
<path d="M218.578 109.221C218.578 109.221 210.831 109.04 207.504 113.841C204.177 118.641 203.075 131.369 206.772 137.824C210.469 144.278 219.5 146.132 227.067 144.278C234.633 142.425 236.848 133.213 237.21 129.335C237.571 125.457 236.107 115.685 233.892 112.358C231.677 109.031 221.344 108.48 218.578 109.221Z" fill="white" stroke="#263238" stroke-linecap="round" stroke-linejoin="round"/>
<path d="M216.653 128.024C216.653 128.024 218.759 133.946 223.93 135.428C229.101 136.911 236.658 131.179 237.21 125.647" stroke="#263238" stroke-linecap="round" stroke-linejoin="round"/>
<path d="M205.479 119.003C205.479 119.003 203.816 132.843 215.071 139.117C226.325 145.39 232.97 135.058 234.443 131.369" stroke="#263238" stroke-linecap="round" stroke-linejoin="round"/>
<path d="M218.768 131.17C218.768 131.17 231.27 134.316 236.441 122.691" stroke="#263238" stroke-linecap="round" stroke-linejoin="round"/>
<path d="M219.672 74.5347C219.672 74.5347 223.18 65.6846 231.478 64.5907C239.777 63.4969 245.138 78.8016 242.742 81.9385C240.346 85.0754 239.415 86.1783 239.415 86.1783C239.415 86.1783 226.316 79.9045 224.102 82.4899C221.887 85.0754 220.043 93.1933 217.647 94.8476C215.251 96.5019 213.398 100.019 215.613 102.233C217.828 104.448 219.672 108.136 217.276 111.273C214.881 114.41 209.14 113.081 205.832 109.465C202.523 105.849 198.826 98.3913 203.807 89.5773C208.788 80.7633 211.192 74.5347 219.672 74.5347Z" fill="#263238" stroke="#263238" stroke-linecap="round" stroke-linejoin="round"/>
<path d="M240.663 80.5193C240.82 81.1917 240.928 81.8745 240.988 82.5623" stroke="white" stroke-linecap="round" stroke-linejoin="round"/>
<path d="M220.232 77.8615C220.232 77.8615 225.313 71.7143 232.888 72.3199C236.785 72.6363 238.828 75.3664 239.894 77.9338" stroke="white" stroke-linecap="round" stroke-linejoin="round"/>
<path d="M222.303 75.9359C222.303 75.9359 226.524 67.7999 233.449 67.7999" stroke="white" stroke-linecap="round" stroke-linejoin="round"/>
<path d="M207.441 109.791C208.024 110.117 208.68 110.288 209.348 110.288" stroke="white" stroke-linecap="round" stroke-linejoin="round"/>
<path d="M218.985 79.552C218.985 79.552 215.676 80.7543 212.359 85.5817C209.041 90.409 203.319 97.9303 203.924 102.758C204.069 104.948 204.866 107.045 206.211 108.778" stroke="white" stroke-linecap="round" stroke-linejoin="round"/>
<path d="M215.812 107.196C215.812 107.196 215.993 114.944 216.174 118.822C216.354 122.7 215.812 128.043 217.078 128.413C218.343 128.784 224.31 125.276 225.385 122.51C226.461 119.744 226.488 114.374 226.488 114.374L226.307 110.686C226.307 110.686 219.31 105.352 215.812 107.196Z" fill="white" stroke="#263238" stroke-linecap="round" stroke-linejoin="round"/>
<path d="M211.536 96.1222C211.536 96.1222 209.14 93.356 207.848 95.39C206.555 97.424 207.848 103.689 209.511 104.611C210.396 105.15 211.423 105.408 212.458 105.352C212.458 105.352 218.18 111.626 221.498 113.841C224.816 116.055 229.435 117.348 231.279 115.866C233.124 114.383 237.182 109.221 238.511 105.162C239.84 101.103 238.692 95.7606 238.882 92.8046C239.072 89.8485 240.356 86.1602 239.063 83.2131C237.77 80.2661 233.53 79.7056 229.119 78.7835C226.199 78.2166 223.234 77.9141 220.26 77.8795C220.26 77.8795 219.356 83.7826 217.493 86.7297C215.631 89.6767 213.434 93.3741 213.434 93.3741C213.541 93.6814 213.574 94.0096 213.53 94.3319C213.486 94.6543 213.367 94.9618 213.182 95.2295C212.997 95.4972 212.752 95.7175 212.466 95.8726C212.18 96.0277 211.861 96.1132 211.536 96.1222Z" fill="white" stroke="#263238" stroke-linecap="round" stroke-linejoin="round"/>
<path d="M229.462 93.3561C229.462 93.3561 225.223 89.8485 217.466 93.1753C217.466 93.1753 216.363 93.5459 216.915 93.9075C217.245 94.1298 217.503 94.4441 217.656 94.8115C218.054 96.0229 217.53 97.632 217.972 98.9609C218.976 101.989 223.722 102.333 226.334 101.375C226.904 101.174 227.427 100.857 227.868 100.445C228.31 100.033 228.662 99.5336 228.902 98.9789C229.318 98.1111 230.294 94.016 229.462 93.3561Z" stroke="#263238" stroke-linecap="round" stroke-linejoin="round"/>
<path d="M231.614 93.3561C231.614 93.3561 235.863 89.8485 243.61 93.1753C243.61 93.1753 244.713 93.5459 244.161 93.9075C243.831 94.1298 243.573 94.4441 243.42 94.8115C242.878 96.4477 243.718 98.2648 242.688 99.9553C241.16 102.45 236.776 102.161 234.425 101.194C233.86 100.962 233.352 100.61 232.937 100.162C232.521 99.7137 232.209 99.1805 232.021 98.5993C231.704 97.7766 230.864 94.016 231.614 93.3561Z" stroke="#263238" stroke-linecap="round" stroke-linejoin="round"/>
<path d="M229.462 93.356C229.781 93.1441 230.155 93.0311 230.538 93.0311C230.921 93.0311 231.295 93.1441 231.614 93.356" stroke="#263238" stroke-linecap="round" stroke-linejoin="round"/>
<path d="M216.915 93.9075L211.012 95.39" stroke="#263238" stroke-linecap="round" stroke-linejoin="round"/>
<path d="M224.291 94.5583C224.291 95.3176 223.885 95.9414 223.387 95.9414C222.89 95.9414 222.483 95.3176 222.483 94.5583C222.483 93.7989 222.899 93.1752 223.387 93.1752C223.876 93.1752 224.291 93.7899 224.291 94.5583Z" fill="#263238"/>
<path d="M234.814 94.5583C234.814 95.3176 234.398 95.9414 233.91 95.9414C233.422 95.9414 233.006 95.3176 233.006 94.5583C233.006 93.7989 233.413 93.1752 233.91 93.1752C234.407 93.1752 234.814 93.7899 234.814 94.5583Z" fill="#263238"/>
<path d="M227.067 89.6677C225.787 88.9795 224.334 88.6828 222.887 88.8146C221.441 88.9464 220.065 89.5009 218.931 90.409C218.931 90.409 225.033 89.2971 227.067 89.6677Z" fill="#263238"/>
<path d="M238.656 90.4C238.656 90.4 236.107 87.9954 233.313 91.1322C233.34 91.1413 237.354 90.0384 238.656 90.4Z" fill="#263238"/>
<path d="M230.565 97.9664C230.565 97.9664 233.892 99.2591 233.892 100.181C233.892 101.103 230.384 102.957 230.384 102.957" fill="white"/>
<path d="M230.565 97.9664C230.565 97.9664 233.892 99.2591 233.892 100.181C233.892 101.103 230.384 102.957 230.384 102.957" stroke="#263238" stroke-linecap="round" stroke-linejoin="round"/>
<path d="M229.462 108.118C229.462 108.118 224.291 109.022 223.189 105.352" stroke="#263238" stroke-linecap="round" stroke-linejoin="round"/>
<path d="M240.835 141.295L236.776 159.258C236.741 159.413 236.741 159.573 236.776 159.729C236.81 159.884 236.879 160.029 236.977 160.154C237.075 160.28 237.199 160.382 237.341 160.453C237.482 160.525 237.638 160.564 237.797 160.568L246.177 160.831C246.425 160.837 246.667 160.758 246.863 160.606C247.059 160.455 247.197 160.24 247.253 159.999L251.583 141.819C251.624 141.649 251.626 141.471 251.588 141.3C251.551 141.128 251.475 140.968 251.366 140.83C251.257 140.693 251.118 140.582 250.96 140.506C250.802 140.43 250.629 140.39 250.453 140.391H241.965C241.701 140.389 241.445 140.478 241.239 140.643C241.034 140.807 240.891 141.038 240.835 141.295Z" fill="#263238" stroke="#263238" stroke-linecap="round" stroke-linejoin="round"/>
<path d="M251.764 167.52C251.764 167.52 249.649 155.172 248.347 151.763C247.045 148.355 244.613 146.403 243.312 146.719C242.01 147.036 243.149 148.346 244.125 149.323C245.101 150.299 246.566 155.334 246.566 155.334C246.566 155.334 241.856 154.358 238.927 153.87C235.998 153.382 233.892 152.062 233.566 153.382C233.241 154.701 234.38 155.497 235.194 155.822C236.007 156.148 243.8 158.254 243.8 158.254L234.38 156.311C234.38 156.311 233.729 157.766 234.868 158.417C236.007 159.068 243.312 161.346 243.312 161.346C243.312 161.346 239.09 161.834 236.486 161.834C233.883 161.834 233.241 162.648 234.38 163.289C235.519 163.931 243.149 163.452 243.149 163.452C243.149 163.452 244.451 168.813 245.59 169.464L246.729 170.115C245.507 172.307 244.148 174.421 242.661 176.443C241.368 177.907 242.01 180.827 244.469 181.803C246.928 182.78 248.989 181.153 249.179 180.176C249.368 179.2 251.619 171.896 251.945 170.232C252.136 169.329 252.073 168.39 251.764 167.52Z" fill="white" stroke="#263238" stroke-linecap="round" stroke-linejoin="round"/>
<path d="M192.841 164.438L192.688 179.742C192.579 180.89 194.902 182.056 197.886 182.346C200.869 182.635 203.373 181.939 203.481 180.791L206.266 165.73L192.841 164.438Z" fill="white" stroke="#263238" stroke-linecap="round" stroke-linejoin="round"/>
<path d="M206.239 165.73L192.868 164.438V164.663V167.24C193.537 168.415 196.06 169.473 199.196 169.771C202.333 170.069 204.973 169.518 205.85 168.487L206.32 165.947C206.298 165.873 206.27 165.801 206.239 165.73Z" fill="white" stroke="#263238" stroke-linecap="round" stroke-linejoin="round"/>
<path d="M206.259 165.737C206.397 164.305 203.504 162.855 199.797 162.496C196.089 162.138 192.972 163.008 192.834 164.439C192.695 165.87 195.588 167.321 199.296 167.679C203.003 168.038 206.12 167.168 206.259 165.737Z" fill="white" stroke="#263238" stroke-linecap="round" stroke-linejoin="round"/>
<path d="M204.928 164.691C204.819 165.821 202.36 166.499 199.44 166.218C196.521 165.938 194.242 164.799 194.351 163.669C194.459 162.539 196.918 161.861 199.838 162.141C202.758 162.422 205.036 163.57 204.928 164.691Z" fill="white" stroke="#263238" stroke-linecap="round" stroke-linejoin="round"/>
<path d="M189.379 174.174C189.379 174.174 193.438 171.462 194.902 170.44C196.367 169.419 206.437 172.881 206.926 172.881C207.414 172.881 207.576 173.532 207.088 174.174C206.585 174.656 205.96 174.993 205.28 175.15C205.212 175.967 204.932 176.753 204.467 177.428C204.109 177.776 203.785 178.158 203.499 178.567C203.499 178.567 204.141 179.534 203.499 180.185C202.858 180.836 199.594 181.487 199.594 181.487C199.594 181.487 203.979 182.301 203.011 183.114C202.044 183.928 197.162 183.765 195.372 183.114C193.583 182.463 189.198 180.836 187.236 179.372C185.275 177.907 184.344 172.393 189.379 174.174Z" fill="white" stroke="#263238" stroke-linecap="round" stroke-linejoin="round"/>
<path d="M205.298 175.15C205.298 175.15 197.162 173.848 195.354 173.685" stroke="#263238" stroke-linecap="round" stroke-linejoin="round"/>
<path d="M203.518 178.567C200.744 178.517 197.976 178.299 195.228 177.916" stroke="#263238" stroke-linecap="round" stroke-linejoin="round"/>
<path d="M199.612 181.487C197.982 181.494 196.354 181.385 194.74 181.161" stroke="#263238" stroke-linecap="round" stroke-linejoin="round"/>
</svg>
