<svg width="364" height="364" viewBox="0 0 364 364" fill="none" xmlns="http://www.w3.org/2000/svg">
<path d="M290.676 241.762C293.032 240.745 295.037 239.06 296.444 236.914C297.851 234.768 298.597 232.257 298.589 229.691C298.684 222.448 293.253 216.5 286.453 216.413C279.654 216.325 274.077 222.127 273.99 229.371C273.918 231.961 274.615 234.514 275.994 236.708C277.373 238.902 279.371 240.638 281.736 241.696C262.808 244.382 263.463 264.992 263.463 264.992L308.228 265.582C308.228 265.582 309.4 244.754 290.676 241.762Z" fill="#E0E0E0"/>
<path d="M39.7634 201.569L42.4278 201.008L46.5192 191.675L45.3981 186.368C45.3981 186.368 49.4603 185.247 50.4504 192.308C51.4405 199.37 51.5861 197.485 51.5861 197.485C51.5861 197.485 60.3221 195.672 61.2175 196.276C61.8654 196.713 63.9402 205.34 65.0322 210.028C65.3307 211.153 65.2442 212.345 64.7864 213.415C64.3285 214.485 63.5258 215.371 62.5061 215.932C62.2175 216.079 61.9118 216.189 61.5961 216.26C59.4121 216.718 47.9024 217.308 47.9024 217.308L43.3014 218.283L39.7634 201.569Z" fill="#E0E0E0"/>
<path d="M31.8354 201.729L37.3318 219.594L41.8891 218.626L38.1108 200.782L31.8354 201.729Z" fill="#E0E0E0"/>
<path d="M139.084 101.192H107.504C106.843 101.192 106.21 101.454 105.743 101.921C105.276 102.388 105.014 103.021 105.014 103.682V124.612C105.014 125.272 105.276 125.905 105.743 126.372C106.21 126.839 106.843 127.102 107.504 127.102H124.131L132.037 135V127.131H139.084C139.574 127.129 140.042 126.933 140.387 126.586C140.732 126.24 140.926 125.771 140.926 125.282V103.07C140.93 102.826 140.885 102.583 140.795 102.355C140.704 102.128 140.569 101.921 140.398 101.746C140.226 101.572 140.022 101.433 139.797 101.338C139.571 101.242 139.329 101.193 139.084 101.192Z" fill="#EBEBEB"/>
<path d="M130.465 116.473C131.49 116.473 132.321 115.642 132.321 114.616C132.321 113.591 131.49 112.76 130.465 112.76C129.44 112.76 128.608 113.591 128.608 114.616C128.608 115.642 129.44 116.473 130.465 116.473Z" fill="#FAFAFA"/>
<path d="M121.256 114.616C121.254 114.986 121.363 115.347 121.567 115.654C121.771 115.962 122.062 116.202 122.403 116.344C122.744 116.486 123.119 116.523 123.481 116.452C123.843 116.38 124.176 116.202 124.437 115.941C124.698 115.68 124.876 115.348 124.948 114.985C125.019 114.623 124.982 114.248 124.84 113.907C124.698 113.566 124.458 113.275 124.15 113.071C123.843 112.867 123.481 112.758 123.112 112.76C122.62 112.76 122.148 112.955 121.799 113.304C121.451 113.652 121.256 114.124 121.256 114.616Z" fill="#FAFAFA"/>
<path d="M115.767 116.473C116.792 116.473 117.623 115.642 117.623 114.616C117.623 113.591 116.792 112.76 115.767 112.76C114.741 112.76 113.91 113.591 113.91 114.616C113.91 115.642 114.741 116.473 115.767 116.473Z" fill="#FAFAFA"/>
<path d="M326.872 56.7039C326.722 55.9558 326.311 55.285 325.714 54.8103C325.116 54.3356 324.37 54.0876 323.607 54.1103C322.844 54.133 322.114 54.4248 321.546 54.9341C320.978 55.4435 320.608 56.1374 320.502 56.8932C320.388 56.1393 320.012 55.4499 319.439 54.9466C318.867 54.4434 318.134 54.1588 317.372 54.1431C316.61 54.1274 315.867 54.3817 315.274 54.8609C314.681 55.3402 314.277 56.0136 314.132 56.7622C313.981 57.8725 314.262 58.9985 314.918 59.9071C315.571 60.8006 316.334 61.6078 317.19 62.3095C318.354 63.3433 319.425 64.3115 320.582 65.3453C321.732 64.3043 322.708 63.3215 323.858 62.2804C324.711 61.5724 325.47 60.7576 326.115 59.8562C326.762 58.9415 327.033 57.8129 326.872 56.7039Z" fill="#E0E0E0"/>
<path d="M228.417 334.21L206.191 252.339L140.06 251.706C133.508 275.519 129.613 305.898 127.844 334.21" fill="#F54B64"/>
<path d="M155.006 312.268C155.661 312.637 156.364 312.911 157.095 313.084C157.976 313.247 158.884 313.165 159.721 312.847C160.558 312.528 161.291 311.985 161.84 311.278C162.389 310.57 162.732 309.725 162.833 308.836C162.933 307.946 162.787 307.045 162.41 306.233C162.069 305.565 161.629 304.951 161.106 304.413C161.106 304.413 161.318 304.508 161.616 304.77C162.044 305.15 162.397 305.607 162.657 306.117C163.046 306.882 163.232 307.734 163.196 308.592C163.155 309.649 162.786 310.666 162.14 311.504C161.484 312.334 160.59 312.944 159.578 313.251C158.755 313.499 157.882 313.529 157.044 313.338C156.486 313.212 155.956 312.985 155.479 312.669C155.151 312.443 154.991 312.312 155.006 312.268Z" fill="#FAFAFA"/>
<path d="M177.195 292.103C176.825 291.882 176.395 291.783 175.965 291.819C175.749 291.86 175.545 291.952 175.372 292.088C175.198 292.223 175.06 292.398 174.968 292.598C174.858 292.84 174.826 293.11 174.874 293.372C174.922 293.633 175.048 293.874 175.236 294.062C175.424 294.25 175.665 294.376 175.926 294.424C176.188 294.472 176.458 294.439 176.7 294.33C176.901 294.239 177.076 294.101 177.212 293.927C177.347 293.753 177.439 293.55 177.479 293.333C177.514 292.903 177.414 292.474 177.195 292.103C177.195 292.103 177.326 292.154 177.479 292.357C177.689 292.651 177.782 293.011 177.741 293.369C177.715 293.641 177.618 293.901 177.461 294.124C177.304 294.348 177.092 294.526 176.846 294.643C176.54 294.789 176.197 294.837 175.863 294.78C175.529 294.722 175.221 294.563 174.982 294.324C174.742 294.084 174.583 293.776 174.525 293.442C174.468 293.108 174.516 292.765 174.662 292.459C174.78 292.214 174.959 292.002 175.182 291.846C175.405 291.689 175.665 291.592 175.936 291.564C176.294 291.523 176.654 291.616 176.948 291.826C177.144 291.972 177.21 292.095 177.195 292.103Z" fill="#FAFAFA"/>
<path d="M190.372 325.088C190.001 324.869 189.571 324.77 189.142 324.804C188.925 324.844 188.721 324.936 188.548 325.072C188.374 325.207 188.236 325.383 188.144 325.583C188.035 325.826 188.002 326.096 188.05 326.357C188.098 326.619 188.225 326.86 188.413 327.048C188.601 327.236 188.842 327.362 189.103 327.41C189.365 327.458 189.634 327.425 189.877 327.316C190.077 327.224 190.252 327.085 190.387 326.912C190.523 326.738 190.615 326.535 190.656 326.319C190.692 325.889 190.593 325.459 190.372 325.088C190.372 325.088 190.503 325.139 190.656 325.343C190.864 325.634 190.957 325.992 190.918 326.348C190.886 326.617 190.786 326.874 190.627 327.093C190.467 327.312 190.254 327.487 190.008 327.6C189.702 327.746 189.359 327.794 189.025 327.736C188.691 327.679 188.383 327.52 188.144 327.28C187.904 327.041 187.745 326.733 187.688 326.399C187.63 326.065 187.678 325.722 187.824 325.416C187.941 325.169 188.12 324.957 188.343 324.8C188.566 324.643 188.826 324.547 189.098 324.521C189.456 324.48 189.817 324.573 190.11 324.783C190.321 324.957 190.387 325.074 190.372 325.088Z" fill="#FAFAFA"/>
<path d="M138.83 305.804C138.83 305.84 138.56 305.84 138.102 305.971C137.462 306.161 136.902 306.555 136.507 307.092C136.189 307.524 135.997 308.036 135.952 308.571C135.906 309.105 136.009 309.642 136.249 310.122C136.49 310.601 136.858 311.005 137.313 311.289C137.768 311.573 138.293 311.725 138.83 311.73C139.367 311.727 139.893 311.575 140.349 311.292C140.805 311.009 141.174 310.605 141.416 310.125C141.657 309.645 141.76 309.108 141.715 308.572C141.67 308.037 141.477 307.525 141.159 307.092C140.762 306.554 140.199 306.16 139.558 305.971C139.106 305.84 138.83 305.84 138.83 305.804C139.081 305.742 139.343 305.742 139.594 305.804C140.298 305.952 140.927 306.344 141.37 306.91C141.705 307.332 141.926 307.832 142.014 308.363C142.102 308.894 142.053 309.439 141.873 309.946C141.65 310.574 141.238 311.117 140.694 311.502C140.149 311.886 139.5 312.093 138.833 312.093C138.167 312.093 137.517 311.886 136.973 311.502C136.428 311.117 136.017 310.574 135.794 309.946C135.613 309.439 135.565 308.894 135.653 308.363C135.74 307.832 135.962 307.332 136.296 306.91C136.736 306.343 137.363 305.951 138.065 305.804C138.316 305.741 138.579 305.741 138.83 305.804Z" fill="#FAFAFA"/>
<path d="M187.584 306.422C187.584 306.422 187.307 306.422 186.856 306.59C186.214 306.779 185.652 307.173 185.254 307.711C184.928 308.143 184.73 308.658 184.68 309.197C184.631 309.736 184.733 310.278 184.974 310.763C185.216 311.247 185.588 311.654 186.048 311.939C186.508 312.224 187.039 312.375 187.58 312.375C188.121 312.375 188.652 312.224 189.112 311.939C189.573 311.654 189.944 311.247 190.186 310.763C190.428 310.278 190.529 309.736 190.48 309.197C190.43 308.658 190.232 308.143 189.906 307.711C189.513 307.172 188.952 306.778 188.312 306.59C187.853 306.459 187.584 306.459 187.584 306.422C187.835 306.363 188.097 306.363 188.348 306.422C189.051 306.568 189.681 306.957 190.124 307.522C190.456 307.945 190.675 308.445 190.761 308.976C190.848 309.507 190.799 310.051 190.62 310.557C190.399 311.186 189.988 311.731 189.444 312.116C188.9 312.501 188.25 312.708 187.584 312.708C186.917 312.708 186.267 312.501 185.723 312.116C185.18 311.731 184.769 311.186 184.548 310.557C184.368 310.051 184.32 309.507 184.406 308.976C184.493 308.445 184.712 307.945 185.043 307.522C185.487 306.957 186.116 306.568 186.819 306.422C187.071 306.364 187.332 306.364 187.584 306.422Z" fill="#FAFAFA"/>
<path d="M142.746 325.707C143.562 325.707 144.224 325.045 144.224 324.229C144.224 323.413 143.562 322.751 142.746 322.751C141.93 322.751 141.268 323.413 141.268 324.229C141.268 325.045 141.93 325.707 142.746 325.707Z" fill="#FAFAFA"/>
<path d="M169.631 283.614C170.447 283.614 171.109 282.953 171.109 282.136C171.109 281.32 170.447 280.659 169.631 280.659C168.815 280.659 168.153 281.32 168.153 282.136C168.153 282.953 168.815 283.614 169.631 283.614Z" fill="#FAFAFA"/>
<path d="M198.751 293.581C199.567 293.581 200.229 292.919 200.229 292.103C200.229 291.287 199.567 290.625 198.751 290.625C197.935 290.625 197.273 291.287 197.273 292.103C197.273 292.919 197.935 293.581 198.751 293.581Z" fill="#FAFAFA"/>
<path d="M164.353 290.137C164.28 290.295 164.192 290.446 164.091 290.588L163.269 291.819L160.233 296.252L160.116 296.42L159.993 296.252C158.704 294.52 157.182 292.474 155.537 290.246H155.828L153.47 293.384L151.329 296.296L151.169 296.507L151.024 296.289L146.961 290.246H147.202L143.387 294.614L142.317 295.801C142.194 295.947 142.058 296.081 141.909 296.201C142.007 296.039 142.119 295.886 142.244 295.743L143.256 294.498L146.969 290.072L147.1 289.919L147.216 290.086C148.425 291.855 149.822 293.886 151.329 296.099H151.031L153.164 293.231L155.537 290.072L155.683 289.868L155.836 290.072L160.204 296.121H159.956L163.101 291.753L163.989 290.567C164.092 290.408 164.214 290.264 164.353 290.137Z" fill="#FAFAFA"/>
<path d="M179.001 318.726C178.972 318.898 178.923 319.067 178.855 319.228C178.717 319.585 178.549 320.051 178.338 320.611L176.402 325.62L176.322 325.816L176.161 325.678L170.447 320.859L170.738 320.786C170.228 321.951 169.704 323.166 169.165 324.426L167.709 327.702L167.6 327.942L167.411 327.767C165.445 325.947 163.64 324.266 162.067 322.817L162.308 322.773L159.592 327.869C159.279 328.444 159.017 328.91 158.813 329.274C158.731 329.445 158.631 329.606 158.515 329.755C158.57 329.573 158.643 329.398 158.733 329.231L159.461 327.775C160.109 326.486 160.997 324.732 162.06 322.613L162.155 322.431L162.308 322.569L167.688 327.476L167.396 327.542L168.816 324.266C169.362 323.021 169.886 321.805 170.396 320.626L170.498 320.393L170.687 320.56L176.358 325.438L176.118 325.496C176.97 323.458 177.668 321.769 178.178 320.538L178.768 319.177C178.829 319.019 178.907 318.867 179.001 318.726Z" fill="#FAFAFA"/>
<path d="M204.066 305.804C204.222 305.881 204.368 305.977 204.502 306.088L205.689 306.968L209.955 310.23L210.123 310.354L209.948 310.47L203.724 314.612V314.314L206.767 316.84L209.511 319.126L209.715 319.293L209.489 319.424L203.243 323.174V322.933L207.378 326.967L208.514 328.102C208.656 328.226 208.781 328.368 208.885 328.524C208.731 328.417 208.585 328.297 208.448 328.168L207.262 327.09L203.025 323.159L202.879 323.021L203.054 322.912L209.264 319.104V319.41L206.519 317.131C205.471 316.265 204.459 315.413 203.476 314.605L203.287 314.438L203.498 314.307L209.759 310.223V310.463C208.033 309.087 206.614 307.937 205.573 307.099L204.43 306.16C204.189 305.935 204.051 305.818 204.066 305.804Z" fill="#FAFAFA"/>
<g opacity="0.2">
<path d="M130.174 307.019L219.23 300.38L217.301 293.26H131.884L130.174 307.019Z" fill="black"/>
</g>
<path d="M176.948 328.037C176.846 328.037 176.824 321.878 176.904 314.285C176.984 306.692 177.144 300.533 177.246 300.54C177.348 300.547 177.37 306.692 177.29 314.285C177.21 321.878 177.05 328.037 176.948 328.037Z" fill="#263238"/>
<path d="M195.548 328.037C195.414 327.721 195.306 327.395 195.228 327.061C195.031 326.333 194.776 325.452 194.5 324.368C193.874 322.096 192.993 318.966 191.981 315.515C190.969 312.064 189.993 308.963 189.287 306.714L188.457 304.049C188.343 303.727 188.255 303.396 188.195 303.059C188.363 303.356 188.497 303.671 188.596 303.998C188.829 304.617 189.156 305.512 189.542 306.626C190.314 308.861 191.318 311.955 192.345 315.413C193.371 318.871 194.194 322.009 194.755 324.302C195.038 325.445 195.257 326.377 195.395 327.025C195.482 327.356 195.534 327.695 195.548 328.037Z" fill="#263238"/>
<path d="M269.688 220.053L256.445 228.679V95.7247H269.688V220.053Z" fill="#F5F5F5"/>
<path d="M256.372 212.277C262.444 193.648 259.729 172.834 266.448 154.336C267.089 152.56 267.831 150.74 267.642 148.883C267.401 147.275 266.692 145.774 265.604 144.566C264.41 143.11 262.626 141.814 260.588 141.953C259.756 142.041 258.962 142.342 258.282 142.828C257.602 143.315 257.06 143.968 256.707 144.726C256.147 146.152 255.898 147.681 255.979 149.211C255.87 154.867 255.899 160.524 255.936 166.173C256.008 180.408 256.084 194.636 256.161 208.856" fill="#E0E0E0"/>
<path d="M256.322 129.671V124.75L269.564 120.957V126.636L256.322 129.671Z" fill="#E0E0E0"/>
<path d="M95.8121 150.106C95.8121 150.106 94.8584 142.71 95.2879 140.096C95.7466 137.315 100.384 131.426 100.384 131.426C100.318 131.171 99.554 130.53 97.1807 131.426C94.8074 132.321 93.9775 133.988 91.728 135.59L80.211 128.448L76.44 140.504L86.2243 155.908L95.8121 150.106Z" fill="#FFAD9D"/>
<path d="M146.692 121.823C140.744 127.647 146.459 136.711 142.644 142.564C140.337 146.11 135.364 147.828 134.323 151.919C133.799 153.95 134.389 156.076 134.702 158.143C135.015 160.211 134.942 162.599 133.435 164.055C132.674 164.653 131.874 165.2 131.04 165.693C128.71 167.404 127.924 170.592 128.186 173.468C128.448 176.343 129.569 179.052 130.37 181.833C132.577 189.735 132.088 198.147 128.98 205.74C130.345 205.747 131.695 205.443 132.926 204.852C134.157 204.26 135.237 203.396 136.085 202.326C136.02 204.255 135.947 206.177 135.874 208.106C138.436 208.266 140.912 206.89 142.622 204.976C144.243 202.979 145.478 200.698 146.262 198.249C150.297 187.379 151.627 175.691 150.135 164.193" fill="#263238"/>
<path d="M195.774 105.181C199.171 110.223 200.593 116.339 199.77 122.362C199.297 125.747 198.125 129.264 199.29 132.481C200.287 135.248 202.93 137.505 202.806 140.446C202.639 143.795 198.86 146.059 198.526 149.393C198.052 154.016 204.255 157.124 204.189 161.769C204.153 164.164 202.435 166.137 201.277 168.219C200.12 170.301 199.559 173.315 201.423 174.807L179.816 173.264L183.66 105.713L195.774 105.181Z" fill="#263238"/>
<path d="M258.986 162.73H258.746L259.699 159.548L262.75 147.391C262.883 146.847 262.807 146.273 262.538 145.782C262.268 145.292 261.824 144.92 261.294 144.741L259.11 144.668L251.604 141.152C251.278 141.025 250.927 140.972 250.577 140.999C250.228 141.025 249.889 141.129 249.585 141.304C249.281 141.478 249.02 141.719 248.822 142.007C248.623 142.296 248.492 142.626 248.437 142.972C248.161 145.207 246.639 151.206 245.023 149.102C245.023 149.058 244.943 149.014 244.906 148.963C242.635 145.84 239.81 144.151 238.638 144.195C238.388 144.217 238.149 144.311 237.95 144.465C237.752 144.619 237.601 144.827 237.518 145.064C237.434 145.302 237.42 145.558 237.478 145.802C237.536 146.047 237.664 146.27 237.845 146.444C237.962 146.595 238.108 146.721 238.274 146.816C238.347 146.852 238.435 146.925 238.515 146.976C239.517 147.87 240.425 148.865 241.223 149.946C241.953 150.896 242.512 151.965 242.875 153.106C243.276 154.372 243.603 155.472 243.8 156.411L243.218 162.621" fill="#FFAD9D"/>
<path d="M238.951 107.657C238.951 107.657 247.687 105.975 260.333 94.5526C272.978 83.1303 279.144 67.6166 280.644 67.7113C282.144 67.8059 288.79 64.974 300.497 92.4633C312.203 119.953 307.107 126.111 304.624 125.988C302.142 125.864 285.427 120.695 274.864 121.62C264.3 122.544 250.614 127.626 250.614 127.626L238.951 107.657Z" fill="#455A64"/>
<path d="M220.002 121.925L222.819 127.662L224.078 130.232C224.91 131.932 226.362 133.247 228.135 133.907C229.909 134.567 231.868 134.52 233.608 133.777L252.485 127.793L242.293 102.633L223.365 112.097C221.624 112.964 220.295 114.481 219.665 116.321C219.035 118.16 219.156 120.174 220.002 121.925Z" fill="#263238"/>
<path d="M230.521 131.288L236.149 143.125L239.155 142.397L258.156 158.777L263.893 148.286C263.893 148.286 252.536 143.008 250.527 138.822C248.517 134.636 251 133.799 251 133.799L245.766 127.502L230.521 131.288Z" fill="#263238"/>
<path d="M299.477 92.9C305.695 107.788 308.09 120.964 304.814 122.326C301.538 123.687 293.85 112.738 287.626 97.8504C281.401 82.9628 279.013 69.786 282.289 68.4319C285.565 67.0779 293.253 78.0124 299.477 92.9Z" fill="#263238"/>
<path d="M218.167 130.05L223.278 128.601L220.315 122.552L216.449 124.808L218.167 130.05Z" fill="#455A64"/>
<path d="M247.564 129.671L233.703 137.97L232.094 134.593L247.564 129.671Z" fill="#455A64"/>
<path d="M220.315 122.552L223.278 128.601L222.229 128.9L219.849 122.821L220.315 122.552Z" fill="#455A64"/>
<path d="M223.765 124.029C223.838 124.197 226.393 123.301 229.473 121.991C232.552 120.681 235.006 119.523 234.933 119.356C234.86 119.188 232.312 120.084 229.225 121.394C226.139 122.704 223.7 123.862 223.765 124.029Z" fill="#455A64"/>
<path d="M222.309 120.433C222.382 120.6 224.697 119.705 227.478 118.424C230.259 117.142 232.458 115.985 232.378 115.825C232.298 115.665 229.99 116.553 227.209 117.834C224.428 119.115 222.237 120.273 222.309 120.433Z" fill="#455A64"/>
<path d="M225.622 127.808C225.622 127.895 226.255 127.771 227.223 127.502C227.704 127.371 228.279 127.196 228.92 127C229.56 126.803 230.208 126.483 230.907 126.184C233.717 124.976 235.872 123.774 235.806 123.629C235.741 123.483 233.433 124.357 230.652 125.587C229.924 125.878 229.305 126.206 228.701 126.439C228.097 126.672 227.536 126.876 227.078 127.065C226.16 127.444 225.6 127.72 225.622 127.808Z" fill="#455A64"/>
<path d="M286.031 89.2455C286.031 89.2455 293.748 84.761 297.599 95.1205C301.45 105.48 293.435 106.936 293.435 106.936C290.146 101.417 287.654 95.4615 286.031 89.2455Z" fill="#455A64"/>
<path d="M278.314 76.8113C278.339 77.4725 278.422 78.1302 278.562 78.7769C278.766 80.0363 279.05 81.8636 279.472 84.1058C279.763 85.2124 280.076 86.4209 280.418 87.7458C280.593 88.401 280.768 89.0708 280.95 89.7624C281.044 90.1046 281.139 90.4904 281.234 90.8107C281.328 91.131 281.474 91.5387 281.59 91.8736C282.1 93.3296 282.631 94.7856 283.177 96.3362C283.316 96.7221 283.454 97.1152 283.6 97.5083C283.745 97.9014 283.935 98.28 284.102 98.6658C284.444 99.4448 284.83 100.231 285.158 101.025C285.485 101.818 285.886 102.604 286.22 103.376C286.402 103.762 286.555 104.155 286.759 104.519C286.963 104.883 287.167 105.247 287.363 105.611L289.664 109.753C289.853 110.088 290.021 110.416 290.217 110.729L290.821 111.639L291.979 113.371L294.068 116.473C295.466 118.271 296.638 119.69 297.446 120.673C297.843 121.196 298.284 121.683 298.764 122.129C298.441 121.552 298.069 121.004 297.65 120.491C296.871 119.443 295.772 117.972 294.432 116.16C293.814 115.206 293.144 114.158 292.423 113.037C292.066 112.476 291.695 111.901 291.302 111.304L290.72 110.394C290.53 110.088 290.363 109.753 290.181 109.426C289.453 108.108 288.725 106.718 287.931 105.283L287.334 104.206C287.13 103.842 286.985 103.478 286.803 103.063L285.755 100.726C285.398 99.9398 285.027 99.1609 284.699 98.3892C284.532 98.0034 284.335 97.6612 284.197 97.239C284.058 96.8167 283.913 96.46 283.774 96.0814C283.211 94.5478 282.675 93.0724 282.166 91.6552C282.042 91.2985 281.896 90.9272 281.787 90.6069C281.678 90.2866 281.598 89.8789 281.496 89.5658C281.306 88.8815 281.117 88.219 280.935 87.5784C280.571 86.2923 280.234 85.1008 279.923 84.0039L278.824 78.7332C278.712 78.0786 278.542 77.4353 278.314 76.8113Z" fill="#263238"/>
<path d="M240.589 160.116L236.789 193.852L217.825 174.924C217.825 174.924 207.677 196.036 207.538 196.888C207.444 197.463 218.182 208.077 226.16 214.199C230.478 217.519 236.309 222.652 241.689 221.785C250.658 220.329 255.987 214.425 256.766 205.369L260.202 160.611L240.589 160.116Z" fill="#F54B64"/>
<path d="M141.312 191.464L127.4 182.218C131.207 160.837 162.089 158.697 162.089 158.697L185.604 158.282C185.604 158.282 203.032 155.908 213.806 168.022C224.952 180.544 233.36 190.43 233.36 190.43L218.072 207.131L203.112 195.388C205.412 198.71 206.678 202.639 206.752 206.679C206.752 213.639 201.561 220.293 201.561 220.293L200.266 232.181L206.024 255.222L139.419 255.404C143.955 248.204 147.209 241.973 151.249 231.329L145.025 208.936L141.312 191.464Z" fill="#F54B64"/>
<path d="M142.324 165.067L108.588 182.917L96.3799 149.568L81.485 156.651L92.0192 199.101C94.1158 207.538 103.048 212.612 111.209 209.606C111.486 209.504 111.755 209.395 112.025 209.278L148.585 193.451L142.324 165.067Z" fill="#F54B64"/>
<path d="M164.783 191.282C164.041 191.395 163.318 191.61 162.635 191.923C161.841 192.335 161.176 192.957 160.712 193.722C160.247 194.486 160.001 195.363 160.001 196.258C160.001 197.152 160.247 198.03 160.712 198.794C161.176 199.559 161.841 200.181 162.635 200.593C163.318 200.905 164.041 201.121 164.783 201.234C164.579 201.274 164.368 201.274 164.164 201.234C163.594 201.192 163.036 201.046 162.519 200.804C161.739 200.44 161.067 199.881 160.568 199.181C159.953 198.318 159.623 197.285 159.623 196.225C159.623 195.166 159.953 194.132 160.568 193.269C161.067 192.571 161.74 192.014 162.519 191.653C163.035 191.408 163.593 191.262 164.164 191.224C164.372 191.202 164.582 191.222 164.783 191.282Z" fill="#FAFAFA"/>
<path d="M188.552 202.879C188.896 203.546 189.335 204.159 189.855 204.699C190.44 205.25 191.149 205.652 191.923 205.871C192.87 206.137 193.875 206.109 194.806 205.79C195.737 205.472 196.549 204.878 197.135 204.087C197.615 203.445 197.93 202.696 198.052 201.903C198.13 201.156 198.1 200.401 197.965 199.661C198.077 199.84 198.156 200.037 198.198 200.244C198.34 200.797 198.382 201.372 198.322 201.94C198.228 202.793 197.917 203.607 197.419 204.306C196.802 205.166 195.931 205.813 194.929 206.156C193.927 206.5 192.843 206.522 191.828 206.221C190.996 205.983 190.242 205.529 189.644 204.903C189.244 204.494 188.923 204.016 188.698 203.491C188.611 203.298 188.561 203.09 188.552 202.879Z" fill="#FAFAFA"/>
<path d="M171.495 240.851C172.149 241.221 172.853 241.496 173.584 241.667C174.464 241.828 175.371 241.744 176.207 241.424C177.042 241.105 177.774 240.562 178.322 239.856C178.871 239.149 179.214 238.305 179.316 237.417C179.418 236.528 179.273 235.629 178.899 234.816C178.558 234.148 178.119 233.534 177.596 232.996C177.596 232.996 177.799 233.091 178.105 233.353C178.532 233.732 178.883 234.189 179.139 234.7C179.534 235.463 179.722 236.316 179.685 237.175C179.644 238.232 179.275 239.249 178.629 240.087C177.974 240.917 177.079 241.527 176.067 241.834C175.244 242.082 174.371 242.112 173.533 241.922C172.975 241.795 172.445 241.568 171.968 241.252C171.641 241.026 171.48 240.873 171.495 240.851Z" fill="#FAFAFA"/>
<path d="M241.492 182.459C242.148 182.824 242.851 183.096 243.582 183.267C244.46 183.427 245.366 183.342 246.201 183.023C247.035 182.704 247.766 182.163 248.314 181.457C248.862 180.751 249.206 179.909 249.309 179.022C249.411 178.134 249.269 177.235 248.896 176.423C248.556 175.752 248.117 175.136 247.593 174.596C247.783 174.682 247.956 174.803 248.102 174.953C248.529 175.335 248.88 175.794 249.136 176.307C249.531 177.068 249.719 177.919 249.682 178.775C249.638 179.836 249.264 180.857 248.611 181.695C247.958 182.533 247.06 183.146 246.042 183.449C245.221 183.691 244.351 183.718 243.516 183.529C242.957 183.409 242.426 183.184 241.951 182.866C241.775 182.759 241.62 182.621 241.492 182.459Z" fill="#FAFAFA"/>
<path d="M247.811 216.507C247.65 215.775 247.385 215.069 247.025 214.411C246.606 213.721 246.023 213.146 245.329 212.736C244.733 212.386 244.07 212.166 243.384 212.091C242.697 212.016 242.002 212.088 241.345 212.301C240.688 212.514 240.084 212.865 239.572 213.329C239.06 213.793 238.653 214.36 238.376 214.993C238.112 215.695 237.945 216.43 237.881 217.177C237.818 216.977 237.793 216.767 237.808 216.558C237.816 215.986 237.924 215.419 238.129 214.884C238.433 214.09 238.934 213.386 239.585 212.838C240.158 212.365 240.828 212.023 241.548 211.839C242.267 211.654 243.019 211.63 243.749 211.769C244.479 211.908 245.169 212.207 245.771 212.643C246.372 213.079 246.87 213.643 247.229 214.294C247.51 214.793 247.693 215.342 247.768 215.91C247.821 216.105 247.835 216.307 247.811 216.507Z" fill="#FAFAFA"/>
<path d="M196.349 173.708C196.836 174.27 197.399 174.76 198.023 175.164C198.717 175.57 199.499 175.803 200.302 175.841C200.992 175.873 201.681 175.758 202.324 175.504C202.966 175.25 203.547 174.862 204.029 174.367C204.511 173.871 204.882 173.279 205.118 172.63C205.354 171.981 205.449 171.289 205.398 170.6C205.31 169.847 205.114 169.112 204.816 168.416C204.964 168.561 205.083 168.734 205.165 168.925C205.436 169.431 205.607 169.985 205.667 170.556C205.77 171.407 205.649 172.27 205.318 173.06C204.907 174.037 204.201 174.862 203.3 175.419C202.398 175.976 201.345 176.238 200.287 176.169C199.431 176.113 198.604 175.837 197.885 175.368C197.407 175.056 196.99 174.658 196.655 174.196C196.422 173.926 196.327 173.723 196.349 173.708Z" fill="#FAFAFA"/>
<path d="M130.217 191.872C130.703 192.435 131.267 192.925 131.892 193.328C132.66 193.784 133.538 194.021 134.431 194.013C135.324 194.005 136.198 193.753 136.957 193.283C137.717 192.813 138.333 192.144 138.739 191.348C139.145 190.553 139.325 189.661 139.259 188.77C139.169 188.019 138.973 187.283 138.677 186.586C138.821 186.738 138.939 186.913 139.026 187.103C139.29 187.61 139.46 188.16 139.528 188.727C139.629 189.581 139.506 190.446 139.172 191.238C138.761 192.214 138.057 193.038 137.157 193.595C136.256 194.152 135.205 194.415 134.149 194.347C133.292 194.291 132.465 194.015 131.746 193.546C131.268 193.234 130.851 192.837 130.516 192.374C130.312 192.083 130.196 191.879 130.217 191.872Z" fill="#FAFAFA"/>
<path d="M103.376 193.211C103.723 192.543 103.969 191.826 104.104 191.085C104.223 190.199 104.097 189.297 103.739 188.478C103.38 187.659 102.804 186.953 102.073 186.439C101.341 185.925 100.483 185.621 99.5907 185.561C98.6985 185.501 97.807 185.687 97.0133 186.099C96.3634 186.473 95.7722 186.942 95.2588 187.489C95.2588 187.489 95.3389 187.278 95.5864 186.965C95.9458 186.518 96.3883 186.145 96.8895 185.866C97.6336 185.436 98.4766 185.208 99.3356 185.203C100.395 185.2 101.429 185.523 102.299 186.128C103.162 186.739 103.813 187.604 104.162 188.603C104.448 189.413 104.521 190.283 104.373 191.129C104.271 191.692 104.069 192.232 103.776 192.723C103.573 193.058 103.42 193.226 103.376 193.211Z" fill="#FAFAFA"/>
<path d="M178.629 197.776C178.261 197.556 177.834 197.456 177.406 197.492C177.189 197.531 176.985 197.622 176.811 197.758C176.637 197.893 176.499 198.069 176.409 198.271C176.3 198.513 176.267 198.783 176.315 199.045C176.363 199.306 176.489 199.547 176.677 199.735C176.865 199.923 177.106 200.049 177.368 200.097C177.629 200.145 177.899 200.112 178.142 200.003C178.341 199.912 178.516 199.774 178.651 199.6C178.785 199.426 178.875 199.222 178.913 199.006C178.957 198.576 178.857 198.143 178.629 197.776C178.629 197.776 178.768 197.827 178.921 198.03C179.127 198.325 179.22 198.685 179.183 199.042C179.155 199.314 179.058 199.573 178.901 199.796C178.744 200.019 178.533 200.198 178.287 200.316C177.982 200.458 177.64 200.502 177.308 200.443C176.977 200.384 176.671 200.225 176.433 199.987C176.195 199.748 176.036 199.443 175.977 199.111C175.918 198.78 175.962 198.438 176.103 198.132C176.222 197.886 176.402 197.674 176.627 197.517C176.851 197.36 177.112 197.264 177.384 197.237C177.743 197.196 178.103 197.289 178.396 197.499C178.578 197.645 178.644 197.761 178.629 197.776Z" fill="#FAFAFA"/>
<path d="M201.998 186.368C201.63 186.141 201.198 186.041 200.768 186.084C200.551 186.122 200.346 186.213 200.172 186.349C199.998 186.485 199.86 186.661 199.77 186.863C199.664 187.105 199.633 187.374 199.682 187.634C199.731 187.894 199.857 188.133 200.045 188.32C200.232 188.507 200.472 188.632 200.732 188.68C200.993 188.728 201.261 188.696 201.503 188.588C201.704 188.497 201.879 188.359 202.015 188.185C202.15 188.011 202.242 187.808 202.282 187.591C202.317 187.164 202.218 186.736 201.998 186.368C201.998 186.368 202.129 186.419 202.282 186.615C202.492 186.909 202.585 187.269 202.544 187.627C202.515 187.899 202.418 188.159 202.262 188.383C202.105 188.608 201.894 188.788 201.649 188.909C201.343 189.05 201.001 189.094 200.67 189.035C200.338 188.976 200.033 188.817 199.795 188.579C199.556 188.341 199.397 188.035 199.338 187.704C199.279 187.372 199.323 187.03 199.465 186.725C199.583 186.479 199.762 186.268 199.985 186.111C200.208 185.954 200.468 185.857 200.739 185.829C201.098 185.79 201.458 185.886 201.751 186.099C201.947 186.244 202.013 186.368 201.998 186.368Z" fill="#FAFAFA"/>
<path d="M252.732 167.44C252.364 167.22 251.937 167.121 251.509 167.156C251.291 167.194 251.086 167.285 250.911 167.421C250.736 167.557 250.596 167.733 250.505 167.935C250.396 168.177 250.363 168.447 250.411 168.709C250.459 168.97 250.585 169.211 250.773 169.399C250.961 169.587 251.202 169.714 251.464 169.762C251.725 169.809 251.995 169.777 252.237 169.668C252.438 169.576 252.614 169.438 252.749 169.264C252.885 169.091 252.976 168.887 253.016 168.67C253.057 168.24 252.957 167.809 252.732 167.44C252.732 167.44 252.871 167.491 253.016 167.695C253.226 167.988 253.319 168.349 253.278 168.707C253.252 168.978 253.156 169.238 252.999 169.462C252.842 169.685 252.63 169.864 252.383 169.981C252.077 170.127 251.734 170.174 251.4 170.117C251.066 170.06 250.758 169.9 250.519 169.661C250.279 169.421 250.12 169.113 250.063 168.78C250.005 168.446 250.053 168.102 250.199 167.797C250.318 167.55 250.498 167.338 250.722 167.181C250.947 167.024 251.208 166.928 251.48 166.901C251.838 166.86 252.199 166.954 252.492 167.163C252.682 167.294 252.747 167.44 252.732 167.44Z" fill="#FAFAFA"/>
<path d="M195.49 222.251C195.122 222.031 194.694 221.932 194.267 221.967C194.049 222.007 193.844 222.099 193.67 222.234C193.495 222.37 193.355 222.545 193.262 222.746C193.153 222.989 193.12 223.258 193.168 223.52C193.216 223.782 193.343 224.022 193.531 224.21C193.719 224.398 193.959 224.525 194.221 224.573C194.482 224.621 194.752 224.588 194.995 224.479C195.195 224.387 195.371 224.249 195.506 224.075C195.642 223.902 195.734 223.698 195.774 223.481C195.808 223.052 195.709 222.622 195.49 222.251C195.49 222.251 195.628 222.302 195.774 222.506C195.983 222.799 196.077 223.16 196.036 223.518C196.009 223.789 195.913 224.049 195.756 224.273C195.599 224.496 195.387 224.675 195.14 224.792C194.835 224.938 194.491 224.985 194.157 224.928C193.824 224.871 193.516 224.711 193.276 224.472C193.037 224.232 192.877 223.925 192.82 223.591C192.763 223.257 192.81 222.913 192.956 222.608C193.076 222.361 193.256 222.15 193.48 221.993C193.705 221.836 193.965 221.74 194.238 221.712C194.593 221.673 194.951 221.767 195.242 221.974C195.439 222.12 195.504 222.244 195.49 222.251Z" fill="#FAFAFA"/>
<path d="M116.626 197.776C116.258 197.556 115.83 197.456 115.403 197.492C115.184 197.53 114.979 197.621 114.804 197.757C114.629 197.893 114.489 198.069 114.398 198.271C114.289 198.513 114.256 198.783 114.304 199.045C114.352 199.306 114.478 199.547 114.666 199.735C114.854 199.923 115.095 200.049 115.357 200.097C115.618 200.145 115.888 200.112 116.131 200.003C116.331 199.912 116.507 199.774 116.642 199.6C116.778 199.426 116.87 199.223 116.91 199.006C116.944 198.576 116.845 198.147 116.626 197.776C116.626 197.776 116.764 197.827 116.91 198.03C117.119 198.324 117.213 198.684 117.172 199.042C117.145 199.314 117.049 199.574 116.892 199.797C116.735 200.021 116.523 200.199 116.276 200.316C115.971 200.462 115.627 200.51 115.293 200.453C114.959 200.395 114.652 200.236 114.412 199.997C114.172 199.757 114.013 199.449 113.956 199.115C113.899 198.781 113.946 198.438 114.092 198.132C114.211 197.886 114.391 197.674 114.616 197.517C114.84 197.36 115.101 197.264 115.373 197.237C115.729 197.198 116.087 197.291 116.378 197.499C116.575 197.645 116.64 197.761 116.626 197.776Z" fill="#FAFAFA"/>
<path d="M159.811 231.555C159.811 231.555 159.534 231.555 159.083 231.722C158.44 231.91 157.877 232.304 157.481 232.843C157.155 233.276 156.957 233.79 156.907 234.329C156.858 234.869 156.959 235.411 157.201 235.895C157.443 236.379 157.814 236.787 158.275 237.072C158.735 237.357 159.266 237.508 159.807 237.508C160.348 237.508 160.879 237.357 161.339 237.072C161.799 236.787 162.171 236.379 162.413 235.895C162.654 235.411 162.756 234.869 162.707 234.329C162.657 233.79 162.459 233.276 162.133 232.843C161.736 232.307 161.177 231.911 160.539 231.715C160.08 231.584 159.811 231.584 159.811 231.555C160.049 231.493 160.3 231.493 160.539 231.555C161.239 231.702 161.866 232.091 162.308 232.654C162.642 233.076 162.863 233.576 162.951 234.107C163.039 234.638 162.99 235.183 162.81 235.69C162.587 236.318 162.175 236.861 161.631 237.246C161.087 237.63 160.437 237.837 159.771 237.837C159.104 237.837 158.454 237.63 157.91 237.246C157.366 236.861 156.954 236.318 156.731 235.69C156.551 235.183 156.502 234.638 156.59 234.107C156.678 233.576 156.899 233.076 157.233 232.654C157.678 232.091 158.307 231.701 159.01 231.555C159.271 231.48 159.549 231.48 159.811 231.555Z" fill="#FAFAFA"/>
<path d="M228.687 191.282C228.687 191.318 228.41 191.318 227.959 191.449C227.316 191.637 226.753 192.031 226.357 192.571C226.069 192.961 225.882 193.417 225.815 193.898C225.747 194.378 225.801 194.868 225.971 195.322C226.109 195.724 226.332 196.09 226.626 196.396C226.92 196.701 227.277 196.939 227.672 197.093C228.067 197.246 228.491 197.311 228.914 197.284C229.338 197.257 229.75 197.137 230.122 196.934C230.494 196.73 230.817 196.448 231.069 196.107C231.321 195.766 231.495 195.374 231.579 194.958C231.664 194.543 231.657 194.114 231.558 193.701C231.46 193.289 231.272 192.903 231.009 192.571C230.614 192.033 230.054 191.639 229.415 191.449C228.956 191.318 228.687 191.318 228.687 191.282C228.938 191.219 229.2 191.219 229.451 191.282C230.153 191.43 230.78 191.822 231.22 192.389C231.554 192.81 231.776 193.31 231.864 193.842C231.952 194.373 231.903 194.917 231.722 195.424C231.5 196.052 231.088 196.596 230.544 196.98C229.999 197.365 229.349 197.571 228.683 197.571C228.017 197.571 227.367 197.365 226.822 196.98C226.278 196.596 225.866 196.052 225.644 195.424C225.463 194.917 225.414 194.373 225.502 193.842C225.59 193.31 225.812 192.81 226.146 192.389C226.589 191.821 227.218 191.429 227.922 191.282C228.173 191.22 228.436 191.22 228.687 191.282Z" fill="#FAFAFA"/>
<path d="M154.809 209.54C155.015 209.341 155.274 209.207 155.555 209.154C155.836 209.101 156.127 209.132 156.391 209.244C156.654 209.355 156.879 209.542 157.037 209.78C157.195 210.019 157.279 210.299 157.279 210.585C157.279 210.871 157.195 211.151 157.037 211.389C156.879 211.628 156.654 211.814 156.391 211.926C156.127 212.037 155.836 212.069 155.555 212.016C155.274 211.963 155.015 211.829 154.809 211.63C154.669 211.494 154.558 211.331 154.482 211.152C154.407 210.973 154.367 210.78 154.367 210.585C154.367 210.39 154.407 210.197 154.482 210.018C154.558 209.838 154.669 209.676 154.809 209.54Z" fill="#FAFAFA"/>
<path d="M100.391 200.302C101.207 200.302 101.869 199.64 101.869 198.824C101.869 198.008 101.207 197.346 100.391 197.346C99.575 197.346 98.9134 198.008 98.9134 198.824C98.9134 199.64 99.575 200.302 100.391 200.302Z" fill="#FAFAFA"/>
<path d="M252.485 190.379C253.301 190.379 253.963 189.718 253.963 188.901C253.963 188.085 253.301 187.424 252.485 187.424C251.669 187.424 251.007 188.085 251.007 188.901C251.007 189.718 251.669 190.379 252.485 190.379Z" fill="#FAFAFA"/>
<path d="M196.516 165.074C196.722 164.875 196.981 164.74 197.262 164.688C197.544 164.635 197.834 164.666 198.098 164.778C198.361 164.889 198.586 165.076 198.744 165.314C198.902 165.553 198.987 165.832 198.987 166.119C198.987 166.405 198.902 166.685 198.744 166.923C198.586 167.162 198.361 167.348 198.098 167.46C197.834 167.571 197.544 167.602 197.262 167.55C196.981 167.497 196.722 167.363 196.516 167.163C196.377 167.028 196.265 166.865 196.19 166.686C196.114 166.506 196.075 166.313 196.075 166.119C196.075 165.924 196.114 165.731 196.19 165.551C196.265 165.372 196.377 165.21 196.516 165.074Z" fill="#FAFAFA"/>
<path d="M162.679 248.976C162.884 248.777 163.144 248.642 163.425 248.59C163.706 248.537 163.997 248.568 164.26 248.68C164.524 248.791 164.749 248.978 164.907 249.216C165.065 249.455 165.149 249.735 165.149 250.021C165.149 250.307 165.065 250.587 164.907 250.825C164.749 251.064 164.524 251.25 164.26 251.362C163.997 251.473 163.706 251.504 163.425 251.452C163.144 251.399 162.884 251.265 162.679 251.065C162.539 250.93 162.428 250.767 162.352 250.588C162.276 250.408 162.237 250.216 162.237 250.021C162.237 249.826 162.276 249.633 162.352 249.454C162.428 249.274 162.539 249.112 162.679 248.976Z" fill="#FAFAFA"/>
<path d="M185.327 215.888C185.256 216.046 185.168 216.194 185.065 216.332L184.25 217.57L181.206 221.996L181.09 222.171L180.966 222.004L176.511 215.998H176.809L174.443 219.164C173.715 220.147 172.987 221.101 172.303 222.025L172.15 222.237L172.005 222.018L167.935 215.976H168.168L164.353 220.344L163.276 221.53C163.159 221.677 163.024 221.809 162.875 221.923C162.967 221.761 163.077 221.61 163.203 221.472L164.215 220.227L167.935 215.801L168.059 215.648L168.175 215.816L172.296 221.822H171.99L174.13 218.961L176.496 215.794L176.649 215.597L176.795 215.801L181.163 221.843H180.923L184.068 217.475L184.948 216.289C185.196 216.012 185.312 215.874 185.327 215.888Z" fill="#FAFAFA"/>
<path d="M199.982 240.691C199.952 240.865 199.901 241.033 199.829 241.194C199.698 241.558 199.523 242.016 199.312 242.577C198.831 243.829 198.169 245.532 197.375 247.585L197.303 247.782L197.135 247.644L191.42 242.824L191.712 242.759C191.209 243.924 190.678 245.132 190.139 246.399L188.683 249.668L188.581 249.908L188.385 249.733L183.041 244.783L183.289 244.739L180.566 249.835L179.816 251.225C179.734 251.396 179.634 251.557 179.518 251.706C179.569 251.523 179.642 251.347 179.736 251.182L180.464 249.726C181.112 248.444 182 246.683 183.063 244.564L183.15 244.39L183.303 244.528L188.69 249.427L188.392 249.493L189.848 246.217C190.387 244.972 190.918 243.756 191.428 242.577L191.522 242.351L191.719 242.511L197.383 247.389L197.15 247.447C197.994 245.409 198.693 243.72 199.21 242.489C199.45 241.936 199.639 241.485 199.8 241.128C199.847 240.977 199.908 240.831 199.982 240.691Z" fill="#FAFAFA"/>
<path d="M212.146 176.176C212.306 176.247 212.457 176.335 212.598 176.438L213.828 177.261L218.24 180.311L218.415 180.435L218.247 180.559L212.219 184.992V184.694L215.379 187.067L218.225 189.251L218.436 189.404L218.218 189.549L212.161 193.597V193.35L216.485 197.179L217.665 198.264C217.812 198.382 217.946 198.517 218.065 198.664C217.899 198.572 217.745 198.46 217.606 198.329L216.369 197.317L211.957 193.583L211.804 193.451L211.972 193.335L217.992 189.244V189.549L215.139 187.402L211.986 185.021L211.782 184.868L211.986 184.723L218.051 180.355V180.595L213.683 177.435L212.576 176.533C212.423 176.426 212.279 176.307 212.146 176.176Z" fill="#FAFAFA"/>
<path d="M230.252 209.933C230.286 209.763 230.34 209.597 230.412 209.438L230.958 208.055C231.468 206.825 232.159 205.143 232.996 203.09L233.076 202.894L233.237 203.039L238.85 207.975L238.558 208.041C239.09 206.883 239.643 205.682 240.204 204.444C240.72 203.338 241.216 202.26 241.703 201.197L241.812 200.964L242.002 201.146L247.243 206.206L246.996 206.242L249.82 201.197C250.148 200.629 250.41 200.171 250.621 199.814C250.706 199.644 250.811 199.485 250.934 199.341C250.876 199.521 250.798 199.695 250.701 199.858L249.973 201.314L247.272 206.41L247.178 206.592L247.025 206.446L241.74 201.438L242.038 201.379L240.582 204.626C240.014 205.857 239.461 207.058 238.922 208.215L238.82 208.441L238.631 208.273L233.069 203.287L233.302 203.228L231.118 208.15L230.507 209.489C230.436 209.645 230.351 209.794 230.252 209.933Z" fill="#FAFAFA"/>
<path d="M114.871 188.734C114.908 188.563 114.964 188.397 115.039 188.239L115.577 186.863L117.623 181.891L117.696 181.702L117.856 181.84L123.469 186.783L123.178 186.841L124.83 183.252L126.323 180.005L126.432 179.765L126.621 179.947L131.863 185.007L131.615 185.043L134.44 179.998C134.767 179.437 135.037 178.979 135.241 178.615C135.328 178.446 135.433 178.288 135.554 178.142C135.497 178.323 135.418 178.496 135.321 178.658L134.593 180.114L131.892 185.21L131.797 185.385L131.644 185.247L126.366 180.231L126.657 180.173C126.177 181.221 125.682 182.313 125.201 183.42L123.549 187.009L123.44 187.242L123.258 187.074L117.688 182.08L117.936 182C117.048 184.017 116.305 185.691 115.752 186.914C115.497 187.46 115.293 187.904 115.133 188.261C115.067 188.429 114.979 188.588 114.871 188.734Z" fill="#FAFAFA"/>
<path d="M167.243 180.013C167.38 179.905 167.523 179.808 167.673 179.721L168.94 178.957L173.584 176.263L173.766 176.154L173.81 176.365C174.225 178.476 174.72 180.981 175.266 183.704L175.004 183.572L178.491 181.723L181.658 180.064L181.891 179.94V180.195C182.284 182.844 182.619 185.291 182.968 187.402L182.75 187.285C184.934 186.346 186.739 185.574 188.057 184.999L189.513 184.388C189.683 184.309 189.862 184.248 190.044 184.206C189.89 184.314 189.724 184.404 189.549 184.475L188.093 185.16L182.837 187.569L182.655 187.649V187.453C182.32 185.334 181.927 182.895 181.512 180.253L181.789 180.391L178.629 182.058L175.128 183.9L174.909 184.017L174.858 183.769C174.349 181.046 173.883 178.542 173.482 176.424L173.708 176.525L169.027 179.088L167.717 179.78C167.57 179.878 167.411 179.956 167.243 180.013Z" fill="#FAFAFA"/>
<path d="M185.189 162.693C185.342 156.141 185.618 149.131 185.618 149.131C185.618 149.131 195.577 147.871 196.007 137.716C196.334 129.977 196.465 117.82 196.516 112.454C196.52 111.674 196.273 110.913 195.812 110.284C195.35 109.655 194.699 109.191 193.954 108.96L177.384 103.864L163.443 114.158L163.116 162.344C163.072 168.474 167.076 172.252 173.198 172.252C179.197 172.267 185.058 168.692 185.189 162.693Z" fill="#FFAD9D"/>
<path d="M185.64 149.131C180.921 149.005 176.341 147.505 172.463 144.814C172.463 144.814 175.557 152.217 185.473 151.621L185.64 149.131Z" fill="#E88B79"/>
<path d="M184.723 137.293C184.812 137.101 184.848 136.889 184.828 136.678C184.808 136.467 184.732 136.265 184.609 136.094C184.485 135.922 184.318 135.786 184.124 135.7C183.93 135.614 183.717 135.581 183.507 135.605C183.454 135.141 183.23 134.713 182.879 134.406C182.527 134.099 182.074 133.934 181.607 133.945C181.141 133.981 180.699 134.17 180.351 134.481C180.002 134.793 179.766 135.211 179.678 135.67C179.611 136.134 179.679 136.607 179.872 137.034C180.066 137.461 180.377 137.824 180.77 138.08C181.168 138.325 181.619 138.471 182.085 138.505C182.552 138.54 183.019 138.461 183.449 138.276C183.792 138.149 184.096 137.936 184.332 137.656C184.568 137.377 184.728 137.041 184.796 136.682" fill="#E88B79"/>
<path d="M192.723 122.1C192.729 122.463 192.592 122.814 192.342 123.077C192.091 123.34 191.747 123.494 191.384 123.505C191.205 123.522 191.025 123.503 190.854 123.448C190.684 123.394 190.525 123.306 190.389 123.189C190.253 123.072 190.143 122.929 190.063 122.768C189.984 122.607 189.938 122.432 189.928 122.253C189.924 121.888 190.062 121.537 190.314 121.273C190.566 121.009 190.91 120.854 191.275 120.841C191.453 120.825 191.633 120.845 191.804 120.9C191.974 120.956 192.132 121.045 192.267 121.162C192.402 121.28 192.512 121.424 192.591 121.585C192.669 121.746 192.714 121.921 192.723 122.1Z" fill="#263238"/>
<path d="M194.42 120.935C194.245 121.117 193.189 120.331 191.69 120.338C190.19 120.346 189.091 121.066 188.931 120.906C188.77 120.746 189.025 120.499 189.506 120.178C190.147 119.733 190.909 119.494 191.69 119.494C192.477 119.494 193.244 119.749 193.874 120.222C194.376 120.52 194.507 120.848 194.42 120.935Z" fill="#263238"/>
<path d="M185.116 132.343C185.907 132.093 186.726 131.944 187.555 131.899C187.94 131.863 188.283 131.783 188.363 131.52C188.399 131.125 188.31 130.727 188.108 130.385L186.98 127.473C185.4 123.316 184.264 119.902 184.432 119.836C184.599 119.771 186.011 123.09 187.584 127.247L188.668 130.159C188.912 130.622 188.982 131.156 188.865 131.666C188.81 131.801 188.726 131.922 188.617 132.019C188.509 132.116 188.379 132.187 188.239 132.227C188.028 132.284 187.81 132.313 187.591 132.314C186.77 132.422 185.939 132.432 185.116 132.343Z" fill="#263238"/>
<path d="M180.704 133.377C180.944 133.377 180.952 134.993 182.342 136.15C183.733 137.308 185.473 137.126 185.48 137.352C185.48 137.454 185.094 137.672 184.366 137.687C183.412 137.703 182.483 137.381 181.745 136.777C181.033 136.199 180.575 135.365 180.471 134.454C180.406 133.77 180.588 133.37 180.704 133.377Z" fill="#263238"/>
<path d="M180.435 120.185C180.275 120.579 179.015 120.287 177.523 120.382C176.03 120.477 174.756 120.862 174.611 120.484C174.531 120.302 174.771 119.938 175.295 119.581C175.957 119.144 176.724 118.893 177.516 118.853C178.297 118.806 179.076 118.977 179.765 119.348C180.253 119.654 180.5 119.996 180.435 120.185Z" fill="#263238"/>
<path d="M194.755 117.259C194.434 117.601 193.175 117.259 191.668 117.259C190.161 117.259 188.887 117.485 188.596 117.128C188.465 116.953 188.661 116.618 189.222 116.291C189.993 115.889 190.857 115.699 191.726 115.737C192.593 115.74 193.443 115.977 194.187 116.422C194.718 116.742 194.893 117.091 194.755 117.259Z" fill="#263238"/>
<path d="M180.005 123.105C179.947 123.105 179.772 122.835 179.343 122.537C178.784 122.154 178.111 121.974 177.435 122.027C176.752 122.1 176.095 122.334 175.521 122.712C175.062 122.996 174.793 123.214 174.793 123.17C174.793 123.127 174.953 122.85 175.397 122.493C175.975 122.012 176.686 121.718 177.435 121.649C177.815 121.616 178.197 121.659 178.559 121.775C178.922 121.891 179.257 122.079 179.547 122.326C179.947 122.726 180.042 123.09 180.005 123.105Z" fill="#263238"/>
<path d="M174.873 126.541C174.822 126.628 174.604 126.592 174.392 126.461C174.181 126.33 174.05 126.155 174.108 126.068C174.167 125.98 174.378 126.01 174.589 126.141C174.8 126.272 174.931 126.454 174.873 126.541Z" fill="#E88B79"/>
<path d="M177.472 126.723C177.363 126.723 177.312 126.512 177.341 126.286C177.37 126.06 177.486 125.878 177.588 125.893C177.69 125.908 177.748 126.104 177.719 126.337C177.69 126.57 177.574 126.738 177.472 126.723Z" fill="#E88B79"/>
<path d="M176.052 131.04C175.958 130.996 175.95 130.814 176.052 130.64C176.154 130.465 176.278 130.348 176.373 130.392C176.467 130.436 176.474 130.61 176.373 130.792C176.271 130.974 176.176 131.084 176.052 131.04Z" fill="#E88B79"/>
<path d="M192.723 126.308C192.665 126.395 192.498 126.388 192.352 126.308C192.207 126.228 192.134 126.06 192.192 125.973C192.25 125.886 192.418 125.893 192.563 125.973C192.709 126.053 192.782 126.221 192.723 126.308Z" fill="#E88B79"/>
<path d="M194.376 126.068C194.289 126.017 194.303 125.813 194.42 125.616C194.536 125.42 194.696 125.303 194.791 125.354C194.886 125.405 194.864 125.609 194.747 125.806C194.631 126.002 194.463 126.119 194.376 126.068Z" fill="#E88B79"/>
<path d="M193.262 130.392C193.16 130.392 193.117 130.123 193.168 129.824C193.218 129.526 193.335 129.307 193.444 129.329C193.553 129.351 193.59 129.599 193.539 129.89C193.488 130.181 193.364 130.407 193.262 130.392Z" fill="#E88B79"/>
<path d="M192.723 146.328C192.723 146.328 193.036 146.452 193.604 146.612C194.401 146.839 195.234 146.91 196.058 146.823C197.276 146.68 198.434 146.21 199.406 145.462C200.586 144.552 201.42 143.269 201.772 141.822C202.105 140.369 202.004 138.85 201.481 137.454C201.054 136.303 200.274 135.317 199.254 134.636C198.559 134.186 197.773 133.895 196.953 133.785C196.371 133.712 196.043 133.785 196.036 133.712C196.113 133.683 196.194 133.666 196.276 133.661C196.506 133.64 196.738 133.64 196.968 133.661C197.829 133.717 198.663 133.982 199.399 134.432C200.496 135.115 201.34 136.138 201.802 137.344C202.385 138.812 202.502 140.424 202.136 141.96C201.778 143.505 200.886 144.873 199.618 145.826C198.59 146.598 197.367 147.067 196.087 147.18C195.23 147.245 194.369 147.129 193.561 146.838C193.251 146.724 192.967 146.551 192.723 146.328Z" fill="#F54B64"/>
<g opacity="0.2">
<path d="M178.797 213.93C179.001 214.025 178.52 215.648 176.766 217.687C175.717 218.873 174.489 219.887 173.126 220.693C169.764 222.731 165.75 223.406 161.907 222.579C160.374 222.253 158.9 221.691 157.539 220.912C155.217 219.565 154.234 218.189 154.394 218C154.554 217.81 155.85 218.728 158.136 219.681C161.054 220.949 164.277 221.343 167.414 220.816C170.552 220.289 173.469 218.863 175.812 216.711C177.632 215.109 178.542 213.777 178.797 213.93Z" fill="black"/>
</g>
<g opacity="0.2">
<path d="M142.317 196.16C142.317 196.16 155.02 225.811 154.343 229.691C153.666 233.571 144.77 246.202 144.77 246.202L151.249 231.329C147.678 219.765 144.696 208.027 142.317 196.16Z" fill="black"/>
</g>
<path d="M239.425 202.246C237.984 199.691 237.026 196.892 236.6 193.99C236.709 193.99 237.204 195.854 237.983 198.125C238.762 200.397 239.512 202.195 239.425 202.246Z" fill="#263238"/>
<path d="M240.968 200.2C239.997 199.251 239.157 198.176 238.471 197.004C237.68 195.9 237.045 194.693 236.585 193.415C236.68 193.364 237.576 194.937 238.769 196.8C239.963 198.664 241.077 200.127 240.968 200.2Z" fill="#263238"/>
<path d="M194.594 226.859C194.307 227.127 193.997 227.37 193.67 227.587L191.085 229.32L182.546 235.144L174.028 241.055L171.444 242.839C171.138 243.072 170.811 243.276 170.469 243.451C170.743 243.183 171.04 242.939 171.357 242.723C171.946 242.264 172.813 241.623 173.876 240.837C176.016 239.265 178.972 237.139 182.328 234.831C185.684 232.523 188.712 230.463 190.94 229.058C192.054 228.33 192.956 227.762 193.59 227.369C193.911 227.174 194.247 227.004 194.594 226.859Z" fill="#263238"/>
<path d="M105.101 190.627C105.367 189.227 105.81 187.867 106.419 186.579C106.917 185.244 107.585 183.979 108.406 182.815C108.501 182.866 107.678 184.577 106.768 186.725C106.282 188.054 105.726 189.356 105.101 190.627Z" fill="#263238"/>
<path d="M107.504 193.866C107.434 193.318 107.434 192.762 107.504 192.214C107.504 191.195 107.628 189.782 107.817 188.239C108.006 186.696 108.239 185.327 108.45 184.3C108.528 183.751 108.673 183.213 108.88 182.699C108.879 183.252 108.823 183.803 108.712 184.344C108.574 185.349 108.377 186.739 108.188 188.283C107.999 189.826 107.868 191.195 107.766 192.228C107.738 192.782 107.65 193.332 107.504 193.866Z" fill="#263238"/>
<path d="M177.297 97.8941C178.756 100.542 179.313 103.592 178.883 106.585C178.454 109.577 177.061 112.348 174.917 114.478C172.733 116.575 169.733 118.001 168.365 120.717C166.909 123.571 167.688 127.021 168.729 130.043C169.77 133.064 171.087 136.18 170.643 139.346C170.097 143.285 166.945 146.459 166.275 150.376C164.994 157.867 173.053 164.477 172.099 172.019C171.692 175.324 169.602 178.134 167.789 180.93C165.977 183.725 164.331 186.979 164.958 190.255C165.256 191.806 166.574 193.167 166.414 194.762C165.824 201.139 156.804 201.991 155.494 200.877C157.139 197.739 155.195 192.869 154.999 192.621C154.71 194.011 153.993 195.274 152.948 196.234C151.903 197.194 150.583 197.802 149.174 197.972C149.527 195.533 149.331 193.046 148.599 190.692C148.058 191.59 147.327 192.359 146.458 192.946C145.59 193.533 144.604 193.924 143.569 194.092C145.275 185.223 144.205 176.043 140.504 167.804C139.201 164.936 137.541 161.98 137.963 158.835C138.517 154.787 142.331 152.035 144.108 148.366C146.124 144.239 145.447 139.375 144.894 134.811C144.341 130.246 144.064 125.238 146.685 121.467C148.286 119.166 150.82 117.572 152.108 115.082C153.31 112.774 153.259 110.03 153.987 107.533C155.312 103.005 158.631 97.8941 163.087 96.3507C167.542 94.8073 174.472 93.3149 177.275 97.8941" fill="#263238"/>
<path d="M145.433 184.584C144.341 187.729 143.249 190.991 143.467 194.311C143.685 197.63 145.651 201.074 148.861 201.998C150.077 202.348 151.504 202.369 152.363 203.301C152.692 203.712 152.908 204.201 152.991 204.72C153.074 205.24 153.021 205.772 152.836 206.264C152.455 207.244 151.903 208.149 151.206 208.936C153.209 207.99 154.901 206.493 156.083 204.619C156.363 205.897 156.326 207.224 155.974 208.484C155.623 209.745 154.968 210.899 154.067 211.848C156.52 211.943 158.66 210.254 160.4 208.514C164.361 204.539 167.68 199.29 167.192 193.706C166.705 188.122 162.511 183.303 162.526 177.69C162.526 175.506 163.174 173.446 163.254 171.298C163.334 169.151 162.781 166.77 160.99 165.584" fill="#263238"/>
<path d="M176.285 98.28C177.358 97.0266 178.725 96.0586 180.263 95.4628C181.802 94.867 183.464 94.6618 185.101 94.8657C188.396 95.3224 191.407 96.9757 193.561 99.5103C195.691 102.04 197.204 105.031 197.98 108.246C198.28 109.186 198.396 110.175 198.322 111.158C198.284 111.647 198.132 112.119 197.879 112.539C197.627 112.958 197.28 113.313 196.866 113.575C196.409 113.792 195.907 113.898 195.401 113.886C194.895 113.873 194.4 113.742 193.954 113.502C193.068 113.021 192.264 112.402 191.573 111.668C191.35 112.637 190.813 113.506 190.046 114.14C189.279 114.774 188.325 115.138 187.331 115.175C186.336 115.212 185.357 114.921 184.545 114.347C183.733 113.772 183.133 112.946 182.837 111.996C182.299 113.297 181.357 114.39 180.149 115.113C178.941 115.837 177.533 116.152 176.132 116.012C174.731 115.873 173.413 115.285 172.371 114.338C171.33 113.39 170.622 112.132 170.352 110.751C169.85 108.217 170.891 105.611 172.347 103.471C173.803 101.33 175.688 99.5249 177.188 97.421" fill="#263238"/>
<path d="M138.808 165.773C139.004 165.542 139.187 165.298 139.354 165.045C139.798 164.303 140.062 163.468 140.125 162.606C140.197 161.24 140.114 159.87 139.878 158.522C139.763 157.663 139.734 156.795 139.791 155.93C139.874 154.95 140.167 153.999 140.65 153.142C141.647 151.329 143.401 149.844 145.309 148.439C146.262 147.711 147.253 146.983 148.221 146.161C149.196 145.325 150.01 144.319 150.623 143.19C151.211 141.977 151.508 140.644 151.489 139.296C151.464 137.878 151.303 136.467 151.009 135.08C150.732 133.661 150.397 132.205 150.281 130.712C150.083 129.174 150.184 127.612 150.579 126.111C150.802 125.352 151.151 124.636 151.613 123.993C152.078 123.372 152.63 122.82 153.251 122.355C154.479 121.512 155.772 120.767 157.117 120.127C158.394 119.529 159.551 118.702 160.531 117.689C161.409 116.665 161.941 115.392 162.053 114.049C162.22 112.738 162.177 111.435 162.213 110.161C162.216 108.928 162.397 107.702 162.752 106.521C163.419 104.377 164.666 102.46 166.355 100.981C167.741 99.7545 169.413 98.898 171.218 98.4911C172.581 98.1944 173.996 98.2369 175.339 98.6149C176.184 98.857 176.965 99.2848 177.625 99.8671C177.793 100.019 177.949 100.185 178.091 100.362C178.185 100.479 178.236 100.544 178.229 100.551C178.222 100.559 178.025 100.304 177.574 99.9253C176.908 99.379 176.134 98.9796 175.302 98.7532C173.979 98.4107 172.593 98.3932 171.262 98.7023C169.502 99.1165 167.877 99.9707 166.537 101.185C164.894 102.637 163.687 104.517 163.05 106.616C162.711 107.782 162.539 108.99 162.541 110.205C162.562 111.514 162.516 112.824 162.402 114.129C162.278 115.538 161.718 116.874 160.801 117.951C159.793 118.998 158.604 119.854 157.292 120.477C155.966 121.105 154.69 121.836 153.477 122.661C152.886 123.103 152.361 123.627 151.919 124.219C151.484 124.826 151.154 125.503 150.943 126.221C150.562 127.674 150.466 129.186 150.66 130.676C150.798 132.132 151.133 133.588 151.388 135.044C151.683 136.452 151.844 137.886 151.868 139.325C151.882 140.729 151.568 142.118 150.951 143.38C150.315 144.543 149.471 145.579 148.461 146.437C147.507 147.296 146.503 148.017 145.549 148.723C143.634 150.106 141.909 151.555 140.933 153.302C140.461 154.124 140.171 155.038 140.082 155.981C140.016 156.83 140.036 157.684 140.14 158.529C140.363 159.893 140.424 161.279 140.322 162.657C140.242 163.534 139.949 164.379 139.47 165.118C139.289 165.372 139.064 165.594 138.808 165.773Z" fill="#455A64"/>
<path d="M156.229 182.48C156.108 182.203 156.013 181.916 155.945 181.621C155.788 180.761 155.821 179.877 156.04 179.03C156.399 177.708 156.864 176.418 157.43 175.171C158.005 173.715 158.726 171.954 158.442 169.981C158.262 168.961 157.879 167.988 157.314 167.12C156.696 166.164 156.03 165.241 155.319 164.353C154.547 163.391 153.885 162.346 153.346 161.237C152.49 159.345 152.108 157.272 152.235 155.199C152.362 153.126 152.993 151.116 154.074 149.342C155.625 146.816 158.092 144.974 160.247 142.841C161.328 141.804 162.255 140.617 162.999 139.317C163.345 138.679 163.614 138.002 163.8 137.301C163.966 136.607 164.047 135.896 164.04 135.182C163.967 132.321 162.824 129.693 162.446 127.036C162.209 125.77 162.259 124.467 162.59 123.223C162.921 121.979 163.526 120.824 164.361 119.843C165.813 118.169 167.485 116.7 169.333 115.475C170.834 114.476 172.254 113.359 173.577 112.134C174.575 111.211 175.416 110.131 176.067 108.938C176.598 107.908 176.903 106.776 176.962 105.618C176.986 105.919 176.986 106.22 176.962 106.521C176.87 107.385 176.623 108.226 176.234 109.003C175.598 110.228 174.761 111.338 173.759 112.287C172.444 113.539 171.027 114.678 169.522 115.694C167.712 116.907 166.072 118.357 164.644 120.003C163.843 120.952 163.263 122.068 162.948 123.27C162.634 124.472 162.591 125.728 162.824 126.949C163.203 129.548 164.361 132.168 164.448 135.139C164.453 135.874 164.37 136.607 164.2 137.323C164.005 138.054 163.724 138.76 163.363 139.426C162.602 140.768 161.653 141.993 160.546 143.066C158.362 145.25 155.916 147.049 154.416 149.495C153.366 151.218 152.751 153.171 152.625 155.185C152.498 157.199 152.863 159.214 153.688 161.055C154.214 162.145 154.858 163.173 155.61 164.12C156.338 165.067 157.022 165.969 157.597 166.923C158.176 167.826 158.567 168.836 158.748 169.893C159.024 171.968 158.253 173.752 157.663 175.208C157.081 176.44 156.595 177.716 156.207 179.022C155.979 179.849 155.927 180.715 156.054 181.563C156.141 182.182 156.251 182.473 156.229 182.48Z" fill="#455A64"/>
<path d="M194.376 110.489C194.31 110.489 194.165 109.287 193.808 107.373C193.596 106.259 193.274 105.169 192.847 104.119C192.329 102.841 191.531 101.697 190.51 100.77C189.47 99.8721 188.184 99.3066 186.819 99.1463C185.696 98.9987 184.558 98.9987 183.434 99.1463C181.505 99.3938 180.326 99.6777 180.311 99.6122C180.572 99.4968 180.846 99.4113 181.126 99.3574C181.874 99.1573 182.632 98.9994 183.398 98.8842C184.542 98.6862 185.708 98.647 186.863 98.7677C188.296 98.9279 189.647 99.5194 190.736 100.464C191.802 101.429 192.629 102.627 193.153 103.966C193.573 105.043 193.873 106.164 194.048 107.307C194.209 108.275 194.281 109.069 194.325 109.615C194.374 109.903 194.391 110.196 194.376 110.489Z" fill="#455A64"/>
<path d="M184.796 112.622C184.805 111.85 184.859 111.079 184.956 110.314C185.154 108.482 185.004 106.629 184.512 104.854C184.222 103.893 183.745 103 183.107 102.226C182.578 101.602 181.933 101.087 181.206 100.712C180.514 100.394 179.778 100.18 179.022 100.078C179.226 100.019 179.44 100.006 179.649 100.042C180.226 100.084 180.79 100.229 181.316 100.471C182.097 100.831 182.795 101.352 183.361 102C184.048 102.798 184.561 103.73 184.868 104.737C185.378 106.558 185.497 108.466 185.218 110.336C185.13 111.064 185.028 111.624 184.948 112.017C184.934 112.226 184.882 112.431 184.796 112.622Z" fill="#455A64"/>
<path d="M269.564 84.2296V57.1771H80.2183V294.221H269.564V213.195L256.322 221.931V252.696H94.145V83.9457H256.322V97.9524C260.253 95.368 266.011 89.129 269.564 84.2296Z" fill="#F5F5F5"/>
<path d="M99.1827 70.4412C99.5443 70.2814 99.8509 70.0189 100.064 69.6862C100.278 69.3536 100.389 68.9655 100.384 68.5702C100.4 68.3113 100.363 68.0518 100.275 67.8078C100.187 67.5638 100.05 67.3404 99.872 67.1514C99.6943 66.9623 99.4798 66.8117 99.2417 66.7087C99.0036 66.6057 98.7469 66.5526 98.4875 66.5526C98.2281 66.5526 97.9714 66.6057 97.7333 66.7087C97.4952 66.8117 97.2807 66.9623 97.103 67.1514C96.9253 67.3404 96.7882 67.5638 96.7002 67.8078C96.6121 68.0518 96.575 68.3113 96.591 68.5702C96.5845 68.9686 96.6957 69.36 96.9107 69.6954C97.1257 70.0308 97.4349 70.2953 97.7995 70.4558C97.2045 70.5263 96.6437 70.7713 96.1877 71.1599C95.7317 71.5486 95.4009 72.0635 95.237 72.6398C95.9219 73.4059 96.8551 73.906 97.8723 74.0521H99.0444C100.08 73.9073 101.028 73.3896 101.709 72.5961C101.549 72.0271 101.223 71.5186 100.773 71.135C100.323 70.7513 99.7699 70.5099 99.1827 70.4412Z" fill="#455A64"/>
<path d="M98.4766 74.1176C98.4766 74.1176 98.8624 74.1176 99.5103 73.921C100.429 73.6598 101.235 73.1017 101.804 72.334C102.219 71.774 102.488 71.1194 102.587 70.4293C102.686 69.7392 102.612 69.0352 102.371 68.381C102.075 67.5836 101.541 66.896 100.842 66.4105C100.143 65.925 99.3129 65.6648 98.462 65.6648C97.6111 65.6648 96.7806 65.925 96.0818 66.4105C95.3831 66.896 94.8495 67.5836 94.5527 68.381C94.3158 69.0367 94.245 69.741 94.3467 70.4307C94.4483 71.1205 94.7191 71.7744 95.135 72.334C95.705 73.1001 96.5148 73.6536 97.4355 73.9065C98.0907 74.0812 98.4766 74.0666 98.4766 74.103C98.4766 74.1394 98.3819 74.103 98.1999 74.103C97.9324 74.1062 97.6657 74.0744 97.4064 74.0084C96.4328 73.7936 95.5649 73.245 94.953 72.4578C94.5259 71.9199 94.2316 71.2889 94.094 70.6159C93.9431 69.8329 94.0034 69.0238 94.2687 68.2718C94.5622 67.4364 95.0999 66.7085 95.8121 66.1824C96.577 65.6134 97.505 65.306 98.4584 65.306C99.4117 65.306 100.34 65.6134 101.105 66.1824C101.819 66.7062 102.357 67.4349 102.648 68.2718C102.919 69.0225 102.981 69.8324 102.83 70.6159C102.704 71.2965 102.414 71.9361 101.986 72.4796C101.373 73.265 100.509 73.8173 99.5394 74.0448C99.2789 74.1034 99.013 74.1351 98.7459 74.1394C98.5712 74.1322 98.4766 74.1322 98.4766 74.1176Z" fill="#455A64"/>
<path d="M256.256 65.389C256.257 65.5762 256.203 65.7595 256.101 65.916C255.998 66.0724 255.851 66.1948 255.678 66.2678C255.506 66.3407 255.316 66.3609 255.132 66.3258C254.948 66.2907 254.779 66.2019 254.646 66.0706C254.512 65.9392 254.421 65.7713 254.383 65.588C254.345 65.4047 254.362 65.2143 254.433 65.0408C254.503 64.8673 254.623 64.7186 254.778 64.6134C254.933 64.5082 255.115 64.4513 255.302 64.4499C255.427 64.4489 255.55 64.4724 255.665 64.5191C255.78 64.5658 255.885 64.6347 255.974 64.7219C256.062 64.8091 256.133 64.9129 256.181 65.0274C256.23 65.1418 256.255 65.2647 256.256 65.389Z" fill="#455A64"/>
<path d="M256.256 68.7814C256.259 68.9688 256.206 69.1529 256.104 69.3103C256.002 69.4677 255.856 69.5912 255.684 69.6653C255.511 69.7394 255.321 69.7606 255.137 69.7263C254.952 69.6921 254.782 69.6038 254.648 69.4728C254.514 69.3418 254.422 69.1739 254.384 68.9904C254.345 68.8069 254.362 68.6161 254.432 68.4422C254.502 68.2683 254.622 68.1191 254.777 68.0136C254.932 67.9081 255.115 67.851 255.302 67.8495C255.552 67.8476 255.792 67.9444 255.971 68.119C256.15 68.2935 256.252 68.5316 256.256 68.7814Z" fill="#455A64"/>
<path d="M256.322 72.1811C256.324 72.3686 256.272 72.5527 256.17 72.7101C256.068 72.8674 255.921 72.991 255.749 73.0651C255.577 73.1391 255.387 73.1604 255.202 73.1261C255.018 73.0919 254.848 73.0036 254.714 72.8726C254.58 72.7416 254.488 72.5736 254.449 72.3902C254.411 72.2067 254.427 72.0159 254.497 71.842C254.567 71.6681 254.688 71.5189 254.843 71.4134C254.998 71.3079 255.18 71.2508 255.368 71.2493C255.618 71.2473 255.858 71.3442 256.037 71.5188C256.215 71.6933 256.318 71.9314 256.322 72.1811Z" fill="#455A64"/>
<path d="M191.1 69.888C191.1 69.9972 172.434 70.0773 149.422 70.0773C126.41 70.0773 107.744 69.9972 107.744 69.888C107.744 69.7788 126.403 69.6987 149.429 69.6987C172.456 69.6987 191.1 69.7861 191.1 69.888Z" fill="#263238"/>
<path d="M123.578 273.517L121.656 272.665C120.639 273.202 119.475 273.39 118.341 273.202C117.207 273.013 116.166 272.458 115.377 271.621C114.589 270.784 114.097 269.712 113.976 268.569C113.855 267.426 114.112 266.275 114.708 265.291C115.304 264.308 116.206 263.548 117.276 263.126C118.345 262.705 119.523 262.646 120.63 262.958C121.736 263.27 122.71 263.936 123.402 264.855C124.093 265.773 124.465 266.893 124.459 268.042C124.469 269.349 123.997 270.614 123.134 271.595L123.578 273.517ZM119.086 263.128C118.308 263.099 117.533 263.253 116.826 263.579C116.118 263.904 115.497 264.392 115.012 265.002C114.528 265.612 114.194 266.327 114.037 267.09C113.88 267.853 113.905 268.643 114.11 269.394C114.314 270.146 114.693 270.839 115.215 271.417C115.737 271.995 116.388 272.442 117.115 272.722C117.841 273.003 118.624 273.108 119.399 273.03C120.174 272.951 120.92 272.692 121.576 272.272L121.656 272.228L123.068 272.854L122.748 271.464L122.814 271.398C123.461 270.684 123.887 269.797 124.038 268.844C124.19 267.892 124.061 266.917 123.667 266.036C123.273 265.156 122.632 264.41 121.821 263.888C121.01 263.367 120.065 263.092 119.101 263.099L119.086 263.128Z" fill="#263238"/>
<path d="M135.91 272.68L133.726 267.322L129.584 263.536L139.587 263.449L135.91 272.68ZM130.509 263.944L134.025 267.176L135.903 271.748L139.033 263.885L130.509 263.944Z" fill="#263238"/>
<path d="M139.206 263.511L133.76 267.061L133.958 267.366L139.405 263.816L139.206 263.511Z" fill="#263238"/>
<path d="M255.856 272.847L251.677 268.749L247.789 272.716L247.68 260.857L255.746 260.784L255.856 272.847ZM251.677 268.232L251.808 268.363L255.448 272.003L255.353 261.177L248.022 261.243L248.117 271.857L251.677 268.232Z" fill="#263238"/>
<path d="M107.839 264.708C107.694 263.99 107.3 263.346 106.726 262.892C106.151 262.437 105.434 262.201 104.702 262.225C103.97 262.25 103.27 262.533 102.727 263.025C102.185 263.517 101.834 264.186 101.738 264.912C101.627 264.189 101.264 263.529 100.713 263.049C100.162 262.568 99.4587 262.298 98.7277 262.287C97.9966 262.275 97.2852 262.523 96.7195 262.987C96.1538 263.45 95.7704 264.098 95.6374 264.817C95.4834 265.876 95.7442 266.953 96.3654 267.824C96.9897 268.681 97.724 269.452 98.5494 270.117L101.804 273.029C102.903 272.024 103.835 271.085 104.934 270.081C105.758 269.401 106.492 268.618 107.118 267.751C107.739 266.867 107.997 265.777 107.839 264.708Z" fill="#F54B64"/>
<path d="M80.2183 146.721C81.0264 147.296 81.3686 147.646 82.1621 148.243C82.5315 148.572 82.9844 148.793 83.4711 148.881C83.9578 148.97 84.4595 148.923 84.9212 148.745C85.853 148.264 86.1588 147.049 86.0205 146C85.8822 144.952 85.4089 143.991 85.1978 142.965C85.5126 143.085 85.8581 143.099 86.1815 143.004C86.5048 142.909 86.7883 142.711 86.9887 142.44C87.1773 142.159 87.3073 141.843 87.3711 141.51C87.4349 141.177 87.4311 140.835 87.36 140.504C87.2285 139.849 87.0081 139.214 86.7048 138.618C86.945 138.997 87.6002 138.859 87.8186 138.466C87.9865 138.04 87.9865 137.566 87.8186 137.141C87.611 136.033 87.067 135.016 86.2607 134.229C85.8504 133.844 85.3274 133.602 84.769 133.538C84.2106 133.474 83.6463 133.591 83.1594 133.872C82.4314 134.382 81.0919 135.131 80.8735 136.005C80.1091 139.077 80.3712 143.605 80.1455 146.765" fill="#E0E0E0"/>
<path d="M254.072 138.88C254.475 139.049 254.797 139.366 254.972 139.766C255.147 140.166 255.161 140.618 255.011 141.028C254.407 142.666 253.431 145.229 252.703 146.787C252.495 147.3 252.191 147.77 251.808 148.17C251.618 148.388 251.365 148.542 251.084 148.61C250.802 148.678 250.507 148.656 250.238 148.548C249.97 148.44 249.742 148.251 249.586 148.007C249.43 147.763 249.354 147.476 249.369 147.187C249.362 146.6 249.474 146.019 249.697 145.476C250.214 143.947 251.094 141.661 251.881 139.805C252.052 139.396 252.376 139.07 252.784 138.898C253.192 138.725 253.652 138.719 254.065 138.88H254.072Z" fill="#FFAD9D"/>
<path d="M256.474 141.894C256.889 142.06 257.22 142.382 257.398 142.791C257.575 143.201 257.583 143.663 257.421 144.078C256.817 145.716 255.841 148.279 255.113 149.837C254.9 150.35 254.594 150.819 254.21 151.22C254.022 151.44 253.769 151.596 253.487 151.664C253.206 151.733 252.91 151.712 252.641 151.603C252.372 151.495 252.145 151.304 251.99 151.059C251.835 150.814 251.761 150.527 251.779 150.237C251.774 149.652 251.882 149.071 252.099 148.527C252.616 147.005 253.504 144.712 254.283 142.855C254.454 142.447 254.779 142.121 255.187 141.948C255.595 141.775 256.054 141.769 256.467 141.931L256.474 141.894Z" fill="#FFAD9D"/>
<path d="M258.724 143.809C259.074 143.952 259.356 144.225 259.508 144.572C259.66 144.919 259.671 145.311 259.539 145.665C259.015 147.085 258.171 149.305 257.537 150.652C257.357 151.097 257.095 151.505 256.766 151.853C256.602 152.044 256.383 152.179 256.138 152.239C255.894 152.298 255.637 152.28 255.404 152.186C255.171 152.092 254.973 151.927 254.839 151.714C254.704 151.502 254.64 151.253 254.654 151.002C254.652 150.503 254.746 150.009 254.931 149.546C255.382 148.221 256.147 146.241 256.809 144.632C256.881 144.452 256.988 144.289 257.124 144.152C257.259 144.014 257.421 143.905 257.599 143.83C257.777 143.756 257.968 143.717 258.161 143.718C258.355 143.718 258.546 143.756 258.724 143.831V143.809Z" fill="#FFAD9D"/>
<path d="M261.621 144.45C261.975 144.592 262.259 144.868 262.412 145.218C262.564 145.568 262.573 145.964 262.437 146.321C261.913 147.74 261.068 149.961 260.427 151.329C260.247 151.776 259.983 152.184 259.648 152.53C259.48 152.703 259.268 152.827 259.034 152.889C258.801 152.95 258.555 152.947 258.324 152.88C258.091 152.775 257.893 152.607 257.753 152.394C257.612 152.182 257.535 151.934 257.53 151.679C257.53 151.18 257.626 150.685 257.814 150.223C258.258 148.89 259.03 146.903 259.692 145.287C259.763 145.105 259.87 144.94 260.006 144.8C260.143 144.66 260.306 144.55 260.486 144.474C260.666 144.399 260.859 144.36 261.054 144.361C261.249 144.362 261.442 144.402 261.621 144.479V144.45Z" fill="#FFAD9D"/>
<path d="M251.99 148.235C252.246 147.176 252.625 146.15 253.118 145.178C253.492 144.155 253.981 143.178 254.574 142.266C254.323 143.326 253.946 144.352 253.453 145.323C253.079 146.347 252.588 147.324 251.99 148.235Z" fill="#E88B79"/>
<path d="M254.589 150.74C254.884 149.536 255.301 148.365 255.834 147.245C256.247 146.08 256.779 144.96 257.421 143.904C257.127 145.105 256.712 146.273 256.183 147.391C255.77 148.56 255.235 149.682 254.589 150.74Z" fill="#E88B79"/>
<path d="M257.319 151.067C257.636 150.028 258.035 149.015 258.513 148.039C258.871 147.011 259.309 146.013 259.823 145.054C259.386 147.202 258.535 149.244 257.319 151.067Z" fill="#E88B79"/>
<path d="M269.564 84.2296C269.564 84.2296 269.564 83.6544 269.564 82.5042C269.564 81.354 269.564 79.6432 269.564 77.4082C269.564 72.8655 269.564 66.1024 269.527 57.2135L269.593 57.279L80.2474 57.3809L80.4149 57.2135C80.4149 113.408 80.4149 178.789 80.4149 248.161V294.258L80.2256 294.076H269.571L269.418 294.228C269.418 242.096 269.469 199.115 269.484 169.158C269.484 154.19 269.484 142.477 269.527 134.498C269.527 130.516 269.527 127.465 269.527 125.405C269.527 123.345 269.527 122.297 269.527 122.297C269.527 122.297 269.527 123.352 269.527 125.405C269.527 127.458 269.527 130.501 269.527 134.498C269.527 142.506 269.527 154.154 269.527 169.158C269.527 199.115 269.571 242.096 269.6 294.228V294.389H269.44H80.0945H79.9053V248.124C79.9053 178.717 79.9053 113.371 79.9053 57.1771V57.0096H80.0727L269.418 57.1116H269.491V57.1771C269.491 66.066 269.491 72.8291 269.491 77.3718C269.491 79.6432 269.491 81.3418 269.491 82.4678C269.578 83.6544 269.564 84.2296 269.564 84.2296Z" fill="#263238"/>
<path d="M76.3526 139.703C76.4518 139.526 76.586 139.371 76.747 139.247C76.908 139.123 77.0924 139.033 77.2892 138.983C77.4859 138.933 77.6908 138.923 77.8915 138.954C78.0921 138.985 78.2844 139.057 78.4566 139.164C79.6869 139.943 81.0191 140.766 82.1766 141.516C82.7051 141.792 83.1614 142.189 83.5089 142.673C83.672 142.918 83.7399 143.214 83.6997 143.505C83.6594 143.796 83.5138 144.062 83.2905 144.253C83.0135 144.388 82.7084 144.454 82.4007 144.446C82.0929 144.439 81.7914 144.357 81.5214 144.209C81.3394 144.137 78.442 142.389 76.8331 141.414C76.546 141.248 76.3351 140.976 76.2454 140.656C76.1556 140.337 76.1941 139.995 76.3526 139.703Z" fill="#FFAD9D"/>
<path d="M76.0032 135.699C76.1105 135.489 76.2617 135.304 76.4464 135.157C76.6312 135.01 76.8453 134.905 77.0743 134.847C77.3033 134.79 77.5419 134.783 77.7741 134.825C78.0062 134.868 78.2265 134.96 78.4202 135.095C79.8252 136.085 81.3322 137.133 82.6717 138.08C83.2804 138.446 83.8001 138.944 84.1932 139.536C84.3791 139.837 84.4539 140.194 84.4047 140.545C84.3556 140.896 84.1855 141.219 83.9238 141.458C83.605 141.616 83.2507 141.69 82.8949 141.673C82.5392 141.655 82.1941 141.546 81.8927 141.356C81.6889 141.268 78.3838 139.041 76.5492 137.803C76.2149 137.58 75.9745 137.241 75.8738 136.852C75.7731 136.462 75.8192 136.049 76.0032 135.692V135.699Z" fill="#FFAD9D"/>
<path d="M76.6147 132.307C76.7238 132.098 76.8764 131.915 77.0623 131.77C77.2482 131.626 77.4629 131.523 77.6921 131.468C77.9212 131.414 78.1594 131.409 78.3905 131.454C78.6216 131.5 78.8403 131.594 79.0317 131.732C80.4221 132.736 81.9437 133.814 83.2468 134.775C83.8467 135.145 84.3586 135.642 84.7465 136.231C84.928 136.537 84.9975 136.897 84.9431 137.249C84.8887 137.601 84.7136 137.923 84.448 138.16C84.1273 138.312 83.7732 138.379 83.4191 138.356C83.065 138.333 82.7226 138.221 82.4242 138.029C82.2203 137.934 78.9443 135.663 77.1243 134.389C76.7944 134.16 76.5601 133.817 76.4662 133.427C76.3722 133.036 76.4251 132.624 76.6147 132.27V132.307Z" fill="#FFAD9D"/>
<path d="M76.9423 128.405C77.0586 128.164 77.2262 127.953 77.4332 127.784C77.6402 127.615 77.8816 127.494 78.1404 127.429C78.3992 127.364 78.6692 127.356 78.9314 127.406C79.1935 127.457 79.4415 127.564 79.6578 127.72C81.2375 128.863 82.9556 130.079 84.448 131.178C85.1394 131.603 85.7266 132.178 86.1661 132.86C86.3768 133.21 86.462 133.621 86.4078 134.026C86.3535 134.431 86.163 134.805 85.8676 135.088C85.227 135.561 84.317 135.299 83.589 134.964C83.356 134.855 79.6286 132.278 77.5611 130.843C77.1832 130.578 76.913 130.186 76.7994 129.739C76.6859 129.291 76.7366 128.818 76.9423 128.405Z" fill="#FFAD9D"/>
<path d="M84.0913 135.408C83.0424 134.906 82.0513 134.29 81.1356 133.573C80.1497 132.956 79.2321 132.237 78.3983 131.426C79.4472 131.928 80.4383 132.543 81.354 133.26C82.3435 133.872 83.2616 134.592 84.0913 135.408Z" fill="#E88B79"/>
<path d="M83.1667 138.444C82.1674 138.012 81.2219 137.464 80.3494 136.813C79.4067 136.262 78.5299 135.605 77.7358 134.855C78.7373 135.29 79.6851 135.84 80.5605 136.493C81.5008 137.042 82.3753 137.696 83.1667 138.444Z" fill="#E88B79"/>
<path d="M83.2323 142.273C82.2336 141.836 81.2883 141.287 80.4149 140.635C79.473 140.088 78.5984 139.434 77.8087 138.684C78.808 139.116 79.7535 139.663 80.626 140.315C81.5672 140.865 82.4418 141.522 83.2323 142.273Z" fill="#E88B79"/>
<path d="M256.322 97.9524C256.322 97.9524 256.322 97.6539 256.322 97.0497C256.322 96.4454 256.322 95.5573 256.322 94.3779C256.322 92.0192 256.322 88.5539 256.322 83.9457L256.38 84.0039L94.2032 84.1204L94.3779 83.9457C94.3779 114.638 94.3779 148.337 94.3779 183.572C94.3779 207.451 94.3779 230.616 94.3779 252.674L94.1959 252.492L256.372 252.572L256.271 252.674C256.271 238.507 256.307 227.362 256.322 219.761C256.322 215.961 256.322 213.049 256.322 211.084C256.322 210.101 256.322 209.358 256.322 208.856C256.322 208.354 256.322 208.128 256.322 208.128C256.322 208.128 256.322 208.375 256.322 208.856C256.322 209.336 256.322 210.101 256.322 211.084C256.322 213.049 256.322 215.961 256.322 219.761C256.322 227.362 256.322 238.507 256.365 252.674V252.776H256.263L94.0867 252.856H93.9047V252.674C93.9047 230.616 93.9047 207.451 93.9047 183.572C93.9047 148.337 93.9047 114.638 93.9047 83.9457V83.7637H94.0794L256.256 83.8802H256.314V83.9457C256.314 88.5175 256.314 92.0192 256.314 94.3779C256.314 95.5573 256.314 96.4454 256.314 97.0497C256.314 97.6539 256.322 97.9524 256.322 97.9524Z" fill="#263238"/>
<path d="M256.322 141.894C256.22 141.894 256.132 138.254 256.132 133.77C256.132 129.286 256.22 125.646 256.322 125.646C256.423 125.646 256.511 129.286 256.511 133.77C256.511 138.254 256.431 141.894 256.322 141.894Z" fill="#263238"/>
<path d="M333.191 334.21C333.191 334.319 265.72 334.399 182.495 334.399C99.2701 334.399 31.799 334.319 31.799 334.21C31.799 334.101 99.2482 334.021 182.495 334.021C265.742 334.021 333.191 334.108 333.191 334.21Z" fill="#263238"/>
<path d="M235.406 36.1961C236.156 35.8725 236.795 35.3357 237.243 34.6523C237.69 33.969 237.928 33.1692 237.925 32.3523C237.972 31.8147 237.907 31.2733 237.735 30.7619C237.563 30.2505 237.287 29.7801 236.925 29.3801C236.563 28.9801 236.122 28.659 235.63 28.437C235.139 28.2149 234.606 28.0967 234.067 28.0897C233.527 28.0827 232.992 28.187 232.495 28.3961C231.997 28.6053 231.548 28.9148 231.176 29.3052C230.804 29.6957 230.516 30.1588 230.33 30.6655C230.145 31.1723 230.066 31.7118 230.099 32.2504C230.075 33.0744 230.297 33.8868 230.735 34.5852C231.173 35.2836 231.808 35.8365 232.56 36.1743C226.524 37.026 226.736 43.578 226.736 43.578L240.983 43.7673C240.983 43.7673 241.368 37.128 235.406 36.1961Z" fill="#455A64"/>
<path d="M320.517 206.832H321.871L324.826 202.719V200.018C324.826 200.018 326.916 199.887 326.668 203.425C326.421 206.963 326.668 206.06 326.668 206.06C326.668 206.06 331.109 206.06 331.48 206.461C331.852 206.861 331.866 211.156 331.917 213.551C331.945 214.128 331.78 214.698 331.448 215.17C331.115 215.642 330.635 215.99 330.083 216.158C329.926 216.201 329.764 216.223 329.602 216.223C328.495 216.223 322.832 215.321 322.832 215.321H320.495L320.517 206.832Z" fill="#455A64"/>
<path d="M316.644 206.089L317.481 215.35H319.796V206.279L316.644 206.089Z" fill="#455A64"/>
<path d="M70.1574 47.1525C69.9425 46.0615 69.3474 45.0822 68.4781 44.3888C67.6087 43.6955 66.5215 43.3331 65.41 43.3664C64.2986 43.3996 63.2349 43.8261 62.4085 44.5701C61.5821 45.3141 61.0466 46.3273 60.8972 47.4292C60.7417 46.3253 60.1986 45.3128 59.365 44.5727C58.5313 43.8326 57.4616 43.4132 56.3471 43.3896C55.2326 43.366 54.146 43.7396 53.2818 44.4437C52.4175 45.1478 51.8319 46.1364 51.6298 47.2326C51.4064 48.8459 51.8132 50.4832 52.7655 51.8045C53.7071 53.1149 54.813 54.2991 56.056 55.328C57.7668 56.784 59.3247 58.24 61.0137 59.696C62.6808 58.1817 64.1077 56.784 65.7821 55.2406C67.0225 54.2134 68.1238 53.029 69.0581 51.7171C69.9958 50.3926 70.3892 48.7587 70.1574 47.1525Z" fill="#455A64"/>
<path d="M301.545 298.982C299.921 301.29 296.784 300.526 295.32 299.121C293.857 297.716 293.246 295.663 292.685 293.712C291.404 289.264 290.115 284.59 291.069 280.054C291.299 278.681 291.901 277.397 292.809 276.342C293.27 275.822 293.86 275.432 294.519 275.212C295.179 274.992 295.884 274.95 296.565 275.089C298.152 275.512 299.142 277.062 299.849 278.54C301.949 282.899 303.048 287.672 303.066 292.51C303.066 294.76 302.812 297.126 301.545 298.982Z" fill="#F54B64"/>
<g opacity="0.2">
<path d="M301.545 298.982C299.921 301.29 296.784 300.526 295.32 299.121C293.857 297.716 293.246 295.663 292.685 293.712C291.404 289.264 290.115 284.59 291.069 280.054C291.299 278.681 291.901 277.397 292.809 276.342C293.27 275.822 293.86 275.432 294.519 275.212C295.179 274.992 295.884 274.95 296.565 275.089C298.152 275.512 299.142 277.062 299.849 278.54C301.949 282.899 303.048 287.672 303.066 292.51C303.066 294.76 302.812 297.126 301.545 298.982Z" fill="black"/>
</g>
<path d="M295.481 310.681C292.768 309.409 289.719 309.04 286.781 309.626C285.209 309.888 283.563 310.354 282.486 311.54C281.408 312.727 281.212 314.816 282.442 315.836C283.237 316.374 284.195 316.616 285.15 316.52C287.451 316.52 289.999 316.09 291.841 317.474C292.889 318.26 293.588 319.57 294.84 319.963C295.467 320.108 296.124 320.044 296.711 319.781C297.299 319.518 297.784 319.071 298.094 318.507C298.696 317.355 298.829 316.014 298.465 314.765C298.315 313.901 297.968 313.083 297.45 312.375C296.933 311.666 296.259 311.087 295.481 310.681Z" fill="#F54B64"/>
<path d="M305.986 302.295C305.156 301.209 304.603 299.938 304.375 298.591C304.147 297.244 304.25 295.862 304.675 294.563C305.561 291.967 307.148 289.666 309.262 287.917C311.653 285.782 314.441 284.137 317.466 283.076C318.633 282.599 319.891 282.386 321.15 282.45C321.78 282.484 322.393 282.673 322.933 282.999C323.474 283.325 323.926 283.779 324.251 284.32C325.11 285.966 324.288 287.96 323.392 289.591C321.812 292.466 320.008 295.211 317.998 297.803C316.389 299.885 314.532 301.938 312.072 302.899C309.611 303.86 307.056 303.729 305.753 302.025" fill="#F54B64"/>
<path d="M301.654 333.832C301.563 333.489 301.514 333.137 301.508 332.783C301.428 332.019 301.341 331.058 301.225 329.922C301.085 328.51 300.871 327.105 300.584 325.715C300.207 324.024 299.695 322.366 299.055 320.757C298.424 319.149 297.571 317.637 296.522 316.265C295.664 315.153 294.57 314.245 293.318 313.608C292.47 313.188 291.561 312.903 290.625 312.763C290.271 312.751 289.92 312.702 289.577 312.618C289.93 312.58 290.286 312.58 290.639 312.618C291.614 312.692 292.568 312.939 293.457 313.346C294.774 313.967 295.928 314.887 296.827 316.032C297.927 317.419 298.813 318.962 299.456 320.611C300.11 322.242 300.616 323.928 300.97 325.649C301.244 327.056 301.431 328.478 301.53 329.908C301.625 331.124 301.654 332.092 301.676 332.82C301.703 333.157 301.696 333.496 301.654 333.832Z" fill="#263238"/>
<path d="M301.458 331.626C301.431 331.467 301.431 331.304 301.458 331.145V329.784C301.458 328.576 301.458 326.828 301.399 324.688C301.29 320.371 300.919 314.401 300.198 307.849C299.477 301.297 298.516 295.393 297.643 291.156C297.432 290.101 297.228 289.147 297.031 288.31C296.835 287.473 296.682 286.745 296.529 286.162C296.376 285.58 296.289 285.165 296.209 284.808C296.16 284.652 296.13 284.491 296.121 284.328C296.195 284.473 296.251 284.627 296.289 284.786C296.398 285.136 296.529 285.58 296.696 286.119C296.864 286.657 297.053 287.414 297.264 288.252C297.475 289.089 297.716 290.035 297.941 291.098C299.136 296.613 300.033 302.187 300.628 307.798C301.356 314.35 301.676 320.349 301.705 324.681C301.705 326.865 301.705 328.605 301.625 329.777C301.625 330.345 301.567 330.803 301.545 331.167C301.531 331.323 301.502 331.476 301.458 331.626Z" fill="#263238"/>
<path d="M301.428 320.094C301.384 319.61 301.384 319.123 301.428 318.638C301.479 317.699 301.61 316.352 301.872 314.693C302.194 312.756 302.621 310.838 303.154 308.949C303.792 306.63 304.595 304.361 305.556 302.156C307.229 298.108 309.622 294.396 312.618 291.2C313.14 290.653 313.694 290.138 314.278 289.657C314.532 289.438 314.758 289.227 315.006 289.06L315.646 288.616C316.031 288.32 316.44 288.057 316.869 287.829C315.461 288.941 314.121 290.137 312.858 291.411C309.96 294.633 307.634 298.326 305.978 302.331C305.023 304.519 304.216 306.769 303.561 309.065C303.013 310.939 302.559 312.839 302.2 314.758C301.894 316.396 301.72 317.728 301.618 318.66C301.589 319.142 301.525 319.621 301.428 320.094Z" fill="#263238"/>
<path d="M55.2625 287.909C56.4485 288.109 57.582 288.546 58.5953 289.194C59.6085 289.842 60.4806 290.688 61.1593 291.68C62.5073 293.68 63.3812 295.961 63.7145 298.349C64.4425 302.935 63.2413 308.133 61.5305 312.458C56.8568 310.274 54.367 304.828 53.275 301.982C51.5569 297.497 51.1711 288.332 55.2479 287.909" fill="#455A64"/>
<path d="M68.432 318.908C67.7309 317.76 67.3456 316.447 67.3149 315.102C67.2842 313.757 67.6093 312.428 68.2573 311.249C68.9252 310.082 69.8189 309.058 70.8863 308.24C71.9538 307.421 73.1735 306.823 74.4744 306.481C75.6683 306.146 77.0442 306.022 78.0562 306.736C78.5123 307.098 78.863 307.577 79.0717 308.121C79.2804 308.665 79.3395 309.255 79.2428 309.83C79.0411 310.974 78.5386 312.045 77.7868 312.931C75.3553 316.076 72.4214 318.675 68.4466 318.908" fill="#455A64"/>
<path d="M67.2454 333.424C67.1552 333.109 67.1038 332.784 67.0925 332.456C67.027 331.837 66.9469 330.934 66.8887 329.813C66.6733 326.891 66.852 323.952 67.4201 321.077C68.0151 318.165 69.3917 315.47 71.4023 313.28C72.0139 312.627 72.7091 312.056 73.4698 311.584C73.7354 311.39 74.0303 311.24 74.3434 311.14C73.3917 311.865 72.4984 312.663 71.6716 313.528C69.7989 315.727 68.5118 318.364 67.9297 321.194C67.381 324.022 67.1538 326.904 67.2527 329.784C67.3276 330.996 67.3252 332.212 67.2454 333.424Z" fill="#263238"/>
<path d="M56.3472 294.84C56.5864 295.322 56.7837 295.824 56.9369 296.34C57.2863 297.308 57.7668 298.728 58.3346 300.489C59.4849 304.006 60.9991 308.898 62.5279 314.321C64.0567 319.745 65.3234 324.717 66.1679 328.314C66.5902 330.119 66.8959 331.575 67.1362 332.587C67.2681 333.109 67.363 333.639 67.4201 334.174C67.2321 333.694 67.0836 333.2 66.976 332.696L65.8476 328.466C64.9012 324.885 63.5762 319.949 62.0474 314.518C60.5186 309.087 59.0699 304.188 58.007 300.642C57.5047 298.939 57.0825 297.519 56.7622 296.442C56.5783 295.921 56.4394 295.385 56.3472 294.84Z" fill="#263238"/>
<path d="M62.2076 323.232C61.0443 320.641 59.2796 318.364 57.0601 316.592C54.8406 314.819 52.2302 313.601 49.4458 313.04C48.0334 312.771 46.2862 312.807 45.5 314.016C44.7138 315.224 45.3908 316.84 46.228 318.012C48.0455 320.413 50.5317 322.224 53.3745 323.218C56.2173 324.211 59.2902 324.343 62.2076 323.596" fill="#455A64"/>
<path d="M51.0037 317.168C51.3148 317.154 51.6264 317.186 51.9282 317.262C52.2926 317.314 52.6527 317.391 53.0057 317.495C53.4769 317.606 53.9412 317.745 54.3961 317.91C55.5925 318.327 56.7437 318.864 57.8323 319.512C59.1611 320.317 60.3987 321.264 61.5233 322.337C62.6176 323.43 63.5936 324.635 64.4353 325.933C65.1187 327 65.6919 328.135 66.1461 329.318C66.3273 329.768 66.4828 330.227 66.612 330.694C66.7245 331.042 66.8121 331.397 66.8741 331.757C66.9581 332.06 66.9997 332.374 66.9978 332.689C66.8959 332.689 66.6411 331.4 65.8039 329.456C65.3234 328.319 64.741 327.228 64.064 326.195C63.2069 324.942 62.2317 323.775 61.152 322.708C60.0545 321.664 58.8573 320.73 57.5775 319.92C56.5254 319.268 55.4168 318.713 54.2651 318.26C52.2922 317.481 50.96 317.27 51.0037 317.168Z" fill="#263238"/>
<path d="M300.329 165.46C300.36 165.54 300.382 165.623 300.395 165.707C300.435 165.948 300.454 166.191 300.453 166.435C300.413 167.38 300.135 168.299 299.645 169.107C298.863 170.321 297.901 171.408 296.791 172.332L292.765 176.125L292.656 176.234L292.54 176.125L288.608 172.631C287.247 171.408 285.645 170.097 284.888 168.139C284.631 167.544 284.506 166.901 284.523 166.254C284.539 165.606 284.696 164.97 284.983 164.39C285.276 163.844 285.683 163.367 286.175 162.991C286.667 162.614 287.233 162.346 287.837 162.206C288.405 162.088 288.992 162.096 289.556 162.229C290.121 162.363 290.65 162.618 291.105 162.977C291.962 163.629 292.536 164.586 292.707 165.649H292.394C292.523 164.877 292.863 164.155 293.377 163.564C293.891 162.973 294.559 162.535 295.306 162.3C295.882 162.134 296.489 162.104 297.078 162.211C297.668 162.318 298.225 162.561 298.706 162.919C299.326 163.362 299.81 163.97 300.103 164.674C300.208 164.917 300.274 165.174 300.3 165.438C300.3 165.438 300.227 165.169 300.016 164.71C299.705 164.051 299.225 163.486 298.626 163.072C298.168 162.742 297.639 162.522 297.082 162.431C296.525 162.34 295.954 162.38 295.415 162.548C294.718 162.772 294.097 163.185 293.619 163.74C293.141 164.294 292.826 164.97 292.707 165.693L292.554 166.748L292.394 165.693C292.225 164.718 291.688 163.845 290.894 163.254C290.479 162.925 289.996 162.692 289.48 162.573C288.963 162.453 288.427 162.45 287.909 162.562C287.36 162.691 286.845 162.936 286.398 163.28C285.951 163.624 285.583 164.059 285.318 164.557C285.057 165.089 284.914 165.671 284.9 166.263C284.886 166.855 285.002 167.443 285.238 167.986C285.966 169.828 287.487 171.109 288.878 172.354L292.794 175.877H292.569L296.631 172.121C297.736 171.23 298.703 170.18 299.499 169.005C299.993 168.231 300.293 167.35 300.373 166.435C300.387 165.809 300.3 165.467 300.329 165.46Z" fill="#263238"/>
<path d="M279.37 153.455C279.37 153.455 279.37 153.637 279.37 153.979C279.37 154.321 279.37 154.838 279.37 155.493C279.37 156.818 279.37 158.762 279.37 161.252C279.37 166.239 279.414 173.424 279.443 182.284L279.304 182.146H297.817H297.985V182.313C297.985 185.094 297.985 188.057 297.985 191.107L297.686 190.983L306.473 182.182L306.532 182.131H333.118L332.929 182.32C332.929 172.128 332.929 162.424 332.929 153.491L333.104 153.666L294.374 153.586L283.279 153.535H280.316H279.552H279.283H280.28H283.192L294.25 153.484L333.089 153.397H333.264V153.572C333.264 162.504 333.264 172.208 333.264 182.4V182.59H306.677L306.808 182.539L298.007 191.333L297.701 191.631V191.202C297.701 188.152 297.701 185.189 297.701 182.408L297.868 182.575H279.355H279.217V182.437C279.217 173.548 279.275 166.326 279.29 161.325C279.29 158.85 279.29 156.957 279.29 155.595C279.29 154.955 279.29 154.46 279.29 154.139C279.29 153.819 279.37 153.455 279.37 153.455Z" fill="#263238"/>
<path d="M309.043 168.35H306.772V170.534H306.24V168.35H303.969V167.833H306.24V165.649H306.772V167.833H309.043V168.35Z" fill="#263238"/>
<path d="M312.479 163.902V172.267H311.868V164.455H309.822V163.902H312.479Z" fill="#263238"/>
<path d="M314.591 168.088C314.591 165.467 315.945 163.844 317.867 163.844C319.789 163.844 321.143 165.467 321.143 168.088C321.143 170.709 319.789 172.332 317.867 172.332C315.945 172.332 314.591 170.701 314.591 168.088ZM320.531 168.088C320.531 165.758 319.446 164.404 317.867 164.404C316.287 164.404 315.202 165.758 315.202 168.088C315.202 170.417 316.287 171.764 317.867 171.764C319.446 171.764 320.531 170.417 320.531 168.088Z" fill="#263238"/>
<path d="M322.453 168.088C322.453 165.467 323.807 163.844 325.729 163.844C327.651 163.844 329.005 165.467 329.005 168.088C329.005 170.709 327.651 172.332 325.729 172.332C323.807 172.332 322.453 170.701 322.453 168.088ZM328.393 168.088C328.393 165.758 327.309 164.404 325.729 164.404C324.149 164.404 323.065 165.758 323.065 168.088C323.065 170.417 324.149 171.764 325.729 171.764C327.309 171.764 328.393 170.417 328.393 168.088Z" fill="#263238"/>
<path d="M31.4714 85.7729H90.3302V117.303H61.334L51.7098 126.92V117.303H31.4714V85.7729Z" fill="#F54B64"/>
<path d="M41.445 100.668C41.445 100.668 41.445 100.886 41.5033 101.279C41.5615 101.672 41.5761 102.255 41.627 102.946C41.7217 104.402 41.86 106.463 42.0202 108.952L41.8673 108.821L44.1532 108.69C46.097 108.865 48.2737 109.113 50.5669 109.2C50.7017 109.204 50.8365 109.189 50.9673 109.156C51.099 109.139 51.2285 109.108 51.3531 109.062C51.6082 108.961 51.839 108.807 52.0302 108.61C52.4414 108.208 52.699 107.675 52.7582 107.103C52.7832 106.805 52.7832 106.506 52.7582 106.208C52.7582 105.895 52.7072 105.589 52.6854 105.276C52.6344 104.65 52.5762 104.017 52.5252 103.376C52.4742 102.735 52.3869 101.92 52.2995 101.192C52.2486 100.843 52.2049 100.464 52.1321 100.151C52.1155 100.072 52.0936 99.9941 52.0666 99.918C52.0666 99.918 52.0666 99.918 52.0666 99.8743C52.0666 99.8306 52.0666 99.8743 52.0083 99.8743C51.8499 99.8382 51.6894 99.8115 51.5278 99.7942C50.182 99.7214 48.8333 99.7214 47.4874 99.7942L47.6476 99.6559C47.6507 99.685 47.6507 99.7142 47.6476 99.7433V99.8015L47.5894 99.8525C47.5722 99.8691 47.5515 99.8816 47.5288 99.8892C47.5061 99.8967 47.482 99.8991 47.4583 99.8962H47.3637V99.8525V99.787C47.3614 99.7603 47.3614 99.7335 47.3637 99.7069C47.3576 99.6196 47.3576 99.5321 47.3637 99.4448V98.9498C47.3637 98.6294 47.3637 98.3091 47.3637 97.9961C47.4004 97.3973 47.4004 96.7967 47.3637 96.1979C47.3231 95.6494 47.1481 95.1194 46.8541 94.6546C46.7143 94.4541 46.528 94.2905 46.3112 94.1777C46.0944 94.0649 45.8536 94.0062 45.6092 94.0067L45.7402 93.8538C45.7839 94.8147 45.8203 95.6883 45.8567 96.4964V96.5401C44.6555 98.3674 43.731 99.7578 43.1267 100.675H42.1439H41.8018C41.9025 100.654 42.0047 100.642 42.1075 100.639L43.1194 100.551H43.0758C43.6509 99.6195 44.5318 98.2072 45.6893 96.3508V96.4236C45.6456 95.6155 45.5946 94.7419 45.5364 93.7882V93.6427H45.6747C45.9689 93.6277 46.2621 93.6865 46.5278 93.8136C46.7935 93.9408 47.0233 94.1322 47.1962 94.3707C47.5308 94.8723 47.7313 95.4512 47.7786 96.0523C47.8321 96.6672 47.8491 97.2846 47.8296 97.9014C47.8296 98.2072 47.8296 98.5203 47.8296 98.8406V99.3138C47.8296 99.3866 47.8296 99.4666 47.8296 99.5322C47.8324 99.5441 47.8324 99.5566 47.8296 99.5686C47.8296 99.5686 47.8296 99.5686 47.7786 99.5686C47.7277 99.5686 47.6913 99.6487 47.6986 99.6268C47.7058 99.605 47.6986 99.5758 47.6403 99.5831L47.5675 99.5394V99.4084H47.6913C49.0564 99.3318 50.4248 99.3318 51.7899 99.4084C51.9794 99.426 52.167 99.4601 52.3505 99.5103C52.4177 99.5329 52.4814 99.5648 52.5398 99.605C52.5894 99.6607 52.6289 99.7248 52.6562 99.7942C52.6864 99.8848 52.7107 99.9772 52.729 100.071C52.8091 100.435 52.8601 100.799 52.9038 101.156C52.9984 101.884 53.0639 102.612 53.1367 103.34C53.2095 104.068 53.2386 104.614 53.2969 105.247L53.3624 106.179C53.3919 106.498 53.3919 106.82 53.3624 107.14C53.2957 107.792 53.011 108.402 52.5543 108.872C52.3261 109.1 52.0536 109.279 51.7535 109.397C51.4566 109.503 51.1443 109.559 50.829 109.564C48.4848 109.462 46.3372 109.2 44.3862 108.996L42.1002 109.105H41.9619V108.96C41.86 106.434 41.7799 104.359 41.7144 102.859C41.7144 102.182 41.678 101.636 41.6707 101.214C41.5749 101.041 41.4992 100.858 41.445 100.668Z" fill="white"/>
<path d="M37.623 100.144C37.881 100.107 38.1414 100.09 38.402 100.093C38.9261 100.093 39.7124 100.049 40.7097 100.034H40.8262V100.158C40.9791 102.255 41.1611 105.312 41.3358 108.712V109.011V109.207H41.1465L38.8825 109.316H38.7077V109.149C38.3437 106.528 38.0598 104.235 37.8705 102.597C37.7832 101.869 37.7104 101.236 37.6521 100.726C37.6135 100.515 37.5989 100.3 37.6085 100.085C37.6709 100.325 37.7195 100.568 37.7541 100.813C37.8414 101.328 37.9506 101.961 38.0817 102.713C38.3437 104.322 38.7077 106.528 39.079 109.062L38.8825 108.909L41.1465 108.785L40.9645 108.982V108.683C40.7898 105.283 40.6515 102.226 40.5787 100.122L40.7097 100.246C39.7779 100.246 39.0208 100.18 38.4821 100.158C38.1957 100.169 37.9089 100.164 37.623 100.144Z" fill="white"/>
<path d="M63.9257 102.058H61.4359V104.475H60.8535V102.058H58.3638V101.498H60.8535V99.0663H61.4359V101.498H63.9257V102.058Z" fill="white"/>
<path d="M67.704 97.1953V106.346H66.976V97.7996H64.792V97.1953H67.704Z" fill="white"/>
<path d="M69.9899 101.774C69.9899 98.9061 71.4459 97.1298 73.5717 97.1298C75.6974 97.1298 77.1535 98.9061 77.1535 101.774C77.1535 104.643 75.6974 106.412 73.5717 106.412C71.4459 106.412 69.9899 104.635 69.9899 101.774ZM76.4837 101.774C76.4837 99.2191 75.297 97.7486 73.5717 97.7486C71.8463 97.7486 70.6597 99.2046 70.6597 101.774C70.6597 104.344 71.8536 105.8 73.5717 105.8C75.2898 105.8 76.4837 104.322 76.4837 101.774Z" fill="white"/>
<path d="M78.624 101.774C78.624 98.9061 80.08 97.1298 82.2058 97.1298C84.3315 97.1298 85.7875 98.9061 85.7875 101.774C85.7875 104.643 84.3315 106.412 82.2058 106.412C80.08 106.412 78.624 104.635 78.624 101.774ZM85.125 101.774C85.125 99.2191 83.9311 97.7486 82.213 97.7486C80.495 97.7486 79.301 99.2046 79.301 101.774C79.301 104.344 80.4877 105.8 82.213 105.8C83.9384 105.8 85.0886 104.322 85.0886 101.774H85.125Z" fill="white"/>
</svg>
