<svg width="471" height="313" viewBox="0 0 471 313" fill="none" xmlns="http://www.w3.org/2000/svg">
<path d="M424.817 145.601C412.112 120.111 396.444 96.6983 378.339 76.0465C358.802 53.7609 338.888 38.6994 313.196 28.9463C295.801 22.3483 277.658 18.5672 259.433 17.8661C225.54 16.564 197.588 25.7537 169.748 48.9533C139.9 73.8242 112.054 101.963 82.9714 128.08C79.9381 130.803 76.886 133.513 73.8214 136.193C23.0978 180.557 -1.54488 259.371 32.7628 278.633H427.48C427.48 278.633 463.382 276.473 454.534 232.515C448.342 201.747 438.231 172.513 424.817 145.601Z" fill="#FF9A6C"/>
<path opacity="0.7" d="M424.817 145.601C412.112 120.111 396.444 96.6983 378.339 76.0465C358.802 53.7609 338.888 38.6994 313.196 28.9463C295.801 22.3483 277.658 18.5672 259.433 17.8661C225.54 16.564 197.588 25.7537 169.748 48.9533C139.9 73.8242 112.054 101.963 82.9714 128.08C79.9381 130.803 76.886 133.513 73.8214 136.193C23.0978 180.557 -1.54488 259.371 32.7628 278.633H427.48C427.48 278.633 463.382 276.473 454.534 232.515C448.342 201.747 438.231 172.513 424.817 145.601Z" fill="white"/>
<path d="M453.447 250.325C452.373 250.713 449.824 250.488 449.824 250.488C449.799 250.488 450.483 248.86 450.533 248.76C451.168 247.627 453.064 245.818 454.496 246.106C455.526 246.312 456.035 247.389 455.733 248.347C455.432 249.323 454.358 249.999 453.441 250.325H453.447Z" fill="#263238"/>
<path d="M429.803 250.669C429.803 250.669 429.452 248.948 429.439 248.835C429.345 247.539 429.922 244.985 431.273 244.44C432.246 244.046 433.263 244.66 433.546 245.624C433.835 246.606 433.314 247.758 432.73 248.534C432.051 249.448 429.797 250.663 429.797 250.663L429.803 250.669Z" fill="#263238"/>
<path d="M431.078 269.299C431.932 269.368 433.59 268.817 434.055 268.654C434.161 269.374 434.287 270.081 434.444 270.776C434.519 271.077 434.576 271.384 434.664 271.665C434.745 271.953 434.827 272.235 434.909 272.51C435.097 273.086 435.267 273.618 435.455 274.144C435.549 274.413 435.644 274.664 435.731 274.92C435.512 274.514 435.147 273.875 435.11 273.819C434.444 272.892 432.61 271.496 431.392 271.884C430.513 272.166 430.174 273.155 430.532 273.963C430.896 274.789 431.894 275.271 432.73 275.471C433.646 275.69 435.618 275.315 435.863 275.271C436.096 275.903 436.328 276.517 436.554 277.093C436.705 277.468 436.849 277.819 436.987 278.163L437.829 278.126C437.641 277.706 437.452 277.274 437.257 276.805C437.044 276.291 436.818 275.747 436.598 275.183C436.818 275.083 438.507 274.276 439.173 273.574C439.92 274 440.762 274.357 440.912 274.42C440.755 275.077 440.611 275.715 440.479 276.316C440.347 276.924 440.24 277.487 440.14 278.019L440.956 277.982C441.038 277.5 441.126 276.999 441.226 276.46C441.327 275.916 441.446 275.34 441.572 274.745C441.817 274.783 443.808 275.058 444.712 274.795C445.535 274.557 446.508 274.025 446.828 273.186C447.142 272.36 446.753 271.39 445.867 271.152C444.63 270.82 442.866 272.304 442.244 273.261C442.206 273.324 441.817 274.1 441.628 274.501C441.704 274.144 441.785 273.787 441.867 273.418C441.986 272.886 442.137 272.322 442.275 271.778C442.357 271.496 442.438 271.214 442.526 270.933C442.602 270.645 442.715 270.376 442.809 270.094C442.953 269.681 443.129 269.268 443.299 268.848C443.839 269.005 445.421 269.437 446.244 269.324C447.092 269.211 448.141 268.836 448.587 268.053C449.02 267.283 448.788 266.269 447.946 265.9C446.772 265.386 444.806 266.588 444.046 267.44C444.021 267.465 443.883 267.665 443.713 267.897C443.895 267.496 444.071 267.095 444.266 266.695C444.819 265.555 445.421 264.416 446.012 263.271C446.137 263.033 446.257 262.789 446.382 262.551C446.834 262.682 448.549 263.164 449.409 263.051C450.257 262.939 451.306 262.563 451.752 261.781C452.185 261.011 451.953 259.997 451.105 259.627C449.931 259.114 447.965 260.316 447.205 261.167C447.18 261.198 447.01 261.43 446.822 261.699C447.136 261.073 447.444 260.441 447.726 259.809C448.222 258.701 448.656 257.586 448.989 256.472C449.146 256.522 451.143 257.129 452.103 256.998C452.951 256.885 454 256.51 454.446 255.727C454.879 254.957 454.647 253.943 453.799 253.574C452.625 253.06 450.659 254.262 449.899 255.114C449.843 255.176 449.24 256.028 449.039 256.341C449.039 256.328 449.045 256.316 449.051 256.303C449.39 255.126 449.566 253.968 449.679 252.854C449.792 251.746 449.805 250.694 449.792 249.724C449.78 248.754 449.711 247.871 449.648 247.082C449.61 246.657 449.566 246.268 449.516 245.912L449.541 245.924C449.541 245.924 450.012 244.453 450.025 244.353C450.226 243.232 449.956 240.947 448.825 240.346C448.009 239.914 447.067 240.359 446.728 241.173C446.382 242.005 446.734 243.063 447.167 243.796C447.613 244.547 449.083 245.605 449.447 245.868C449.485 246.243 449.522 246.644 449.56 247.088C449.61 247.871 449.66 248.754 449.648 249.724C449.648 249.981 449.635 250.256 449.623 250.525C449.541 250.068 449.422 249.448 449.403 249.392C449.064 248.303 447.77 246.4 446.489 246.381C445.566 246.369 444.932 247.201 445.013 248.078C445.095 248.973 445.892 249.749 446.615 250.2C447.368 250.669 449.208 250.938 449.61 250.988C449.585 251.583 449.541 252.19 449.466 252.823C449.328 253.918 449.127 255.076 448.769 256.222H448.693C448.668 255.784 448.599 254.882 448.587 254.813C448.373 253.693 447.293 251.658 446.018 251.502C445.101 251.389 444.379 252.147 444.36 253.029C444.341 253.931 445.051 254.788 445.723 255.314C446.495 255.921 448.605 256.428 448.687 256.447C448.342 257.518 447.902 258.588 447.393 259.646C447.029 260.416 446.627 261.18 446.213 261.943C446.206 261.643 446.112 260.46 446.093 260.378C445.88 259.258 444.8 257.223 443.525 257.067C442.608 256.954 441.886 257.712 441.867 258.594C441.848 259.496 442.558 260.353 443.23 260.879C443.983 261.474 446.005 261.968 446.175 262.006C445.987 262.35 445.805 262.701 445.616 263.045C444.994 264.178 444.373 265.305 443.789 266.444C443.588 266.839 443.399 267.233 443.217 267.627C443.192 267.177 443.123 266.357 443.11 266.288C442.897 265.167 441.817 263.133 440.542 262.976C439.625 262.864 438.903 263.621 438.884 264.504C438.865 265.405 439.575 266.263 440.247 266.789C440.919 267.321 442.608 267.771 443.085 267.89C442.778 268.548 442.489 269.211 442.238 269.875C442.137 270.163 442.011 270.451 441.93 270.732C441.842 271.014 441.754 271.296 441.66 271.571C441.496 272.153 441.346 272.692 441.208 273.236C441.139 273.512 441.076 273.769 441.013 274.038C441.057 273.575 441.107 272.842 441.107 272.779C441.063 271.64 440.303 269.468 439.072 269.124C438.187 268.873 437.352 269.512 437.201 270.382C437.182 270.495 437.176 270.601 437.176 270.714C436.629 271.571 436.341 272.798 436.353 273.556C436.353 273.631 436.46 274.488 436.523 274.927C436.391 274.589 436.259 274.251 436.127 273.894C435.932 273.38 435.744 272.836 435.562 272.304C435.474 272.028 435.386 271.747 435.298 271.459C435.204 271.177 435.147 270.889 435.072 270.607C434.965 270.182 434.877 269.743 434.789 269.299C435.323 269.136 436.887 268.623 437.509 268.078C438.156 267.521 438.815 266.626 438.758 265.731C438.696 264.848 437.936 264.134 437.031 264.285C435.769 264.497 434.789 266.588 434.632 267.715C434.632 267.753 434.62 267.997 434.607 268.279C434.532 267.847 434.463 267.415 434.4 266.97C434.23 265.718 434.105 264.435 433.967 263.152C433.935 262.882 433.904 262.619 433.879 262.35C434.331 262.213 436.027 261.674 436.68 261.105C437.327 260.547 437.986 259.652 437.929 258.757C437.867 257.874 437.107 257.161 436.202 257.317C434.94 257.53 433.96 259.621 433.803 260.748C433.803 260.785 433.785 261.08 433.778 261.399C433.697 260.704 433.603 260.009 433.489 259.327C433.295 258.131 433.031 256.96 432.692 255.846C432.849 255.802 434.852 255.208 435.581 254.575C436.228 254.018 436.887 253.123 436.83 252.228C436.768 251.345 436.008 250.632 435.103 250.782C433.841 250.995 432.861 253.086 432.704 254.212C432.692 254.294 432.661 255.339 432.667 255.715C432.667 255.702 432.661 255.69 432.654 255.677C432.284 254.513 431.788 253.449 431.266 252.46C430.751 251.47 430.18 250.588 429.634 249.786C429.087 248.985 428.541 248.284 428.051 247.664C427.781 247.333 427.53 247.032 427.291 246.757H427.316C427.316 246.757 426.895 245.273 426.852 245.179C426.399 244.134 424.911 242.375 423.636 242.494C422.719 242.581 422.173 243.47 422.342 244.334C422.518 245.217 423.391 245.905 424.164 246.275C424.949 246.657 426.764 246.732 427.209 246.75C427.448 247.045 427.706 247.358 427.976 247.708C428.453 248.334 428.98 249.042 429.508 249.855C429.646 250.068 429.791 250.306 429.935 250.538C429.615 250.206 429.169 249.749 429.125 249.711C428.239 248.991 426.104 248.115 425.03 248.804C424.258 249.304 424.183 250.344 424.735 251.032C425.3 251.733 426.393 251.946 427.247 251.921C428.139 251.896 429.822 251.107 430.186 250.932C430.494 251.439 430.795 251.971 431.078 252.547C431.568 253.536 432.045 254.613 432.378 255.765C432.34 255.784 432.347 255.777 432.315 255.796C432.058 255.452 431.499 254.738 431.448 254.688C430.651 253.874 428.622 252.766 427.48 253.342C426.657 253.755 426.468 254.782 426.939 255.527C427.423 256.291 428.491 256.616 429.338 256.685C430.318 256.766 432.359 256.028 432.434 256.003C432.736 257.086 432.962 258.219 433.132 259.383C433.251 260.228 433.339 261.086 433.42 261.95C433.245 261.706 432.516 260.767 432.453 260.71C431.656 259.896 429.627 258.788 428.484 259.364C427.662 259.777 427.473 260.804 427.944 261.549C428.428 262.313 429.489 262.638 430.343 262.707C431.298 262.789 433.257 262.087 433.42 262.031C433.458 262.425 433.496 262.814 433.527 263.208C433.634 264.491 433.741 265.781 433.879 267.045C433.929 267.484 433.992 267.915 434.055 268.347C433.785 267.984 433.276 267.34 433.226 267.283C432.428 266.469 430.4 265.361 429.257 265.937C428.434 266.35 428.246 267.377 428.717 268.122C429.2 268.886 430.262 269.211 431.116 269.28L431.078 269.299Z" fill="#263238"/>
<path d="M251.125 264.836C250.61 265.023 249.391 264.911 249.391 264.911C249.379 264.911 249.705 264.128 249.731 264.084C250.038 263.546 250.943 262.676 251.627 262.814C252.117 262.914 252.362 263.427 252.224 263.884C252.079 264.353 251.564 264.673 251.125 264.836Z" fill="#263238"/>
<path d="M239.808 264.998C239.808 264.998 239.639 264.172 239.632 264.122C239.588 263.502 239.865 262.281 240.511 262.019C240.976 261.831 241.466 262.125 241.598 262.588C241.736 263.058 241.485 263.609 241.209 263.984C240.882 264.422 239.808 265.005 239.802 265.005L239.808 264.998Z" fill="#263238"/>
<path d="M240.417 273.919C240.825 273.95 241.623 273.687 241.843 273.612C241.893 273.956 241.956 274.294 242.031 274.626C242.069 274.77 242.094 274.914 242.138 275.052C242.176 275.19 242.213 275.321 242.251 275.459C242.339 275.734 242.421 275.991 242.508 276.241C242.552 276.366 242.596 276.492 242.64 276.611C242.534 276.417 242.364 276.11 242.345 276.085C242.025 275.64 241.146 274.97 240.562 275.158C240.141 275.296 239.978 275.766 240.147 276.154C240.323 276.548 240.8 276.78 241.196 276.874C241.636 276.98 242.578 276.798 242.697 276.78C242.81 277.08 242.917 277.374 243.03 277.65C243.099 277.831 243.168 278 243.237 278.163L243.639 278.144C243.551 277.944 243.457 277.737 243.363 277.512C243.262 277.268 243.155 277.005 243.049 276.736C243.155 276.686 243.965 276.298 244.279 275.966C244.637 276.172 245.039 276.341 245.115 276.366C245.039 276.679 244.97 276.986 244.907 277.274C244.845 277.562 244.794 277.831 244.744 278.088L245.134 278.069C245.171 277.838 245.215 277.6 245.265 277.343C245.316 277.08 245.372 276.805 245.429 276.523C245.548 276.542 246.496 276.673 246.93 276.548C247.319 276.435 247.79 276.179 247.947 275.778C248.098 275.384 247.909 274.92 247.489 274.808C246.898 274.651 246.05 275.359 245.755 275.816C245.736 275.847 245.548 276.216 245.46 276.41C245.498 276.241 245.535 276.072 245.573 275.891C245.63 275.634 245.699 275.365 245.768 275.108C245.805 274.977 245.849 274.839 245.887 274.701C245.925 274.564 245.975 274.438 246.025 274.301C246.094 274.107 246.176 273.906 246.258 273.706C246.515 273.781 247.275 273.988 247.664 273.938C248.073 273.881 248.569 273.706 248.782 273.33C248.989 272.961 248.876 272.479 248.474 272.297C247.916 272.053 246.967 272.629 246.609 273.036C246.597 273.049 246.528 273.143 246.452 273.255C246.54 273.061 246.622 272.873 246.716 272.679C246.98 272.135 247.269 271.59 247.551 271.039C247.608 270.927 247.671 270.808 247.727 270.695C247.941 270.758 248.763 270.989 249.178 270.933C249.586 270.876 250.082 270.701 250.296 270.326C250.503 269.956 250.39 269.474 249.988 269.293C249.429 269.049 248.487 269.624 248.123 270.031C248.11 270.044 248.029 270.157 247.941 270.288C248.091 269.988 248.236 269.687 248.374 269.387C248.613 268.854 248.82 268.322 248.977 267.79C249.052 267.815 250.007 268.103 250.465 268.041C250.873 267.984 251.37 267.809 251.583 267.433C251.79 267.064 251.677 266.582 251.275 266.401C250.716 266.156 249.768 266.732 249.41 267.139C249.385 267.171 249.096 267.577 248.996 267.728V267.709C249.165 267.145 249.247 266.588 249.303 266.056C249.36 265.524 249.366 265.023 249.36 264.56C249.36 264.097 249.322 263.671 249.291 263.296C249.272 263.095 249.253 262.907 249.228 262.732H249.241C249.241 262.732 249.467 262.037 249.473 261.987C249.567 261.449 249.442 260.353 248.902 260.065C248.512 259.859 248.06 260.065 247.897 260.46C247.733 260.86 247.897 261.361 248.11 261.712C248.324 262.069 249.027 262.582 249.203 262.701C249.222 262.882 249.241 263.07 249.253 263.283C249.278 263.659 249.303 264.084 249.297 264.541C249.297 264.667 249.291 264.798 249.285 264.923C249.247 264.704 249.19 264.41 249.178 264.379C249.015 263.859 248.393 262.945 247.784 262.939C247.344 262.939 247.036 263.333 247.074 263.753C247.112 264.184 247.495 264.554 247.84 264.767C248.204 264.992 249.084 265.117 249.272 265.149C249.259 265.43 249.241 265.724 249.203 266.025C249.14 266.551 249.04 267.102 248.87 267.653H248.832C248.82 267.446 248.788 267.014 248.782 266.976C248.675 266.438 248.16 265.468 247.551 265.393C247.112 265.336 246.766 265.699 246.76 266.125C246.754 266.557 247.093 266.964 247.413 267.221C247.784 267.509 248.795 267.753 248.832 267.765C248.669 268.279 248.456 268.792 248.217 269.299C248.041 269.668 247.846 270.031 247.652 270.401C247.652 270.257 247.602 269.693 247.595 269.649C247.489 269.111 246.974 268.141 246.364 268.066C245.925 268.009 245.579 268.372 245.573 268.798C245.567 269.23 245.906 269.637 246.226 269.894C246.59 270.175 247.551 270.413 247.633 270.432C247.545 270.601 247.457 270.764 247.363 270.933C247.068 271.471 246.766 272.016 246.49 272.56C246.396 272.748 246.308 272.936 246.214 273.124C246.201 272.905 246.17 272.517 246.163 272.479C246.057 271.941 245.542 270.97 244.933 270.895C244.493 270.845 244.148 271.202 244.141 271.628C244.135 272.06 244.474 272.466 244.794 272.723C245.115 272.974 245.925 273.193 246.157 273.249C246.013 273.562 245.875 273.881 245.749 274.2C245.699 274.338 245.642 274.476 245.598 274.614C245.554 274.751 245.51 274.883 245.473 275.014C245.397 275.29 245.322 275.553 245.259 275.809C245.228 275.941 245.196 276.066 245.165 276.191C245.184 275.972 245.209 275.622 245.209 275.59C245.19 275.046 244.826 274.006 244.235 273.837C243.808 273.718 243.413 274.025 243.337 274.438C243.331 274.488 243.325 274.545 243.325 274.601C243.061 275.014 242.923 275.603 242.929 275.96C242.929 275.997 242.979 276.404 243.011 276.617C242.948 276.454 242.885 276.291 242.822 276.122C242.728 275.878 242.64 275.615 242.552 275.359C242.509 275.227 242.471 275.089 242.427 274.958C242.383 274.82 242.358 274.689 242.32 274.551C242.27 274.351 242.226 274.138 242.188 273.925C242.446 273.844 243.193 273.6 243.488 273.343C243.796 273.074 244.116 272.648 244.085 272.216C244.053 271.797 243.689 271.452 243.256 271.527C242.653 271.634 242.182 272.629 242.107 273.168C242.107 273.186 242.1 273.299 242.094 273.437C242.056 273.23 242.025 273.024 241.994 272.811C241.912 272.21 241.849 271.596 241.786 270.983C241.774 270.858 241.755 270.726 241.742 270.601C241.956 270.538 242.772 270.275 243.086 270.006C243.394 269.737 243.714 269.311 243.683 268.879C243.651 268.46 243.293 268.116 242.854 268.191C242.251 268.297 241.78 269.293 241.705 269.831C241.705 269.85 241.698 269.988 241.692 270.144C241.654 269.812 241.604 269.48 241.554 269.149C241.46 268.573 241.334 268.016 241.171 267.484C241.246 267.458 242.207 267.177 242.552 266.876C242.86 266.607 243.18 266.181 243.149 265.749C243.118 265.33 242.753 264.986 242.32 265.061C241.717 265.167 241.246 266.163 241.171 266.701C241.171 266.739 241.152 267.239 241.152 267.421V267.402C240.97 266.845 240.731 266.332 240.486 265.862C240.241 265.393 239.965 264.967 239.701 264.585C239.438 264.203 239.18 263.865 238.941 263.571C238.816 263.415 238.69 263.271 238.577 263.139H238.59C238.59 263.139 238.389 262.432 238.37 262.388C238.156 261.887 237.441 261.042 236.831 261.105C236.392 261.148 236.128 261.574 236.216 261.987C236.298 262.413 236.718 262.738 237.089 262.92C237.466 263.102 238.332 263.139 238.546 263.145C238.659 263.283 238.784 263.433 238.916 263.602C239.142 263.903 239.4 264.241 239.651 264.629C239.72 264.729 239.789 264.848 239.852 264.954C239.701 264.792 239.488 264.579 239.463 264.56C239.042 264.216 238.018 263.796 237.503 264.128C237.133 264.366 237.095 264.867 237.365 265.192C237.635 265.53 238.156 265.631 238.571 265.618C238.998 265.606 239.802 265.23 239.978 265.142C240.122 265.386 240.273 265.643 240.405 265.912C240.643 266.382 240.869 266.901 241.026 267.452L240.995 267.471C240.869 267.308 240.606 266.964 240.581 266.939C240.197 266.551 239.23 266.019 238.678 266.294C238.282 266.488 238.194 266.983 238.42 267.34C238.653 267.703 239.161 267.859 239.569 267.897C240.04 267.934 241.014 267.584 241.052 267.571C241.196 268.091 241.303 268.629 241.384 269.192C241.441 269.599 241.485 270.006 241.523 270.419C241.441 270.301 241.089 269.856 241.058 269.825C240.675 269.437 239.708 268.905 239.155 269.18C238.759 269.374 238.671 269.869 238.897 270.225C239.13 270.588 239.639 270.745 240.047 270.783C240.505 270.82 241.441 270.488 241.523 270.457C241.541 270.645 241.56 270.833 241.573 271.02C241.623 271.634 241.673 272.254 241.742 272.861C241.767 273.074 241.799 273.28 241.824 273.487C241.692 273.312 241.453 273.005 241.428 272.98C241.045 272.592 240.078 272.06 239.525 272.335C239.13 272.529 239.042 273.024 239.268 273.38C239.5 273.744 240.009 273.9 240.417 273.938V273.919Z" fill="#263238"/>
<path d="M26.6021 255.17C27.4875 255.489 29.5913 255.308 29.5976 255.302C29.6165 255.302 29.0575 253.956 29.0073 253.874C28.4798 252.941 26.9161 251.445 25.7354 251.683C24.8876 251.852 24.4669 252.741 24.7118 253.536C24.963 254.344 25.8485 254.901 26.6021 255.17Z" fill="#263238"/>
<path d="M46.1392 255.446C46.1392 255.446 46.4281 254.025 46.4406 253.931C46.516 252.86 46.0387 250.751 44.9271 250.3C44.1233 249.974 43.2818 250.481 43.0494 251.276C42.8108 252.09 43.2441 253.042 43.7214 253.68C44.2866 254.431 46.1392 255.439 46.1455 255.439L46.1392 255.446Z" fill="#263238"/>
<path d="M45.0841 270.839C44.3807 270.895 43.0054 270.445 42.6223 270.307C42.5344 270.901 42.4276 271.484 42.302 272.06C42.2392 272.304 42.1953 272.56 42.1199 272.792C42.0508 273.03 41.988 273.262 41.919 273.493C41.7682 273.969 41.6238 274.407 41.4668 274.845C41.3914 275.064 41.3161 275.271 41.2344 275.49C41.4166 275.152 41.7117 274.626 41.7494 274.582C42.302 273.819 43.8155 272.661 44.8266 272.986C45.5551 273.218 45.8314 274.032 45.5425 274.701C45.2411 275.384 44.4121 275.784 43.7276 275.947C42.974 276.129 41.3412 275.822 41.1402 275.778C40.9518 276.304 40.7572 276.811 40.5688 277.28C40.4494 277.593 40.3301 277.881 40.2108 278.163L39.52 278.132C39.6707 277.787 39.8277 277.431 39.991 277.043C40.1668 276.617 40.3552 276.172 40.5374 275.703C40.3552 275.615 38.9611 274.952 38.4084 274.376C37.793 274.733 37.0959 275.021 36.9703 275.071C37.1022 275.615 37.2215 276.141 37.3283 276.636C37.435 277.136 37.523 277.6 37.6109 278.044L36.9389 278.013C36.8698 277.612 36.8008 277.199 36.7128 276.755C36.6312 276.304 36.5307 275.828 36.424 275.34C36.2167 275.371 34.5776 275.597 33.8303 275.384C33.1521 275.19 32.3482 274.745 32.0782 274.05C31.8207 273.368 32.141 272.567 32.8758 272.373C33.8994 272.097 35.3564 273.324 35.865 274.119C35.8964 274.169 36.2167 274.814 36.3737 275.146C36.3109 274.852 36.2481 274.557 36.1728 274.251C36.0723 273.812 35.953 273.349 35.8399 272.898C35.7708 272.667 35.7018 272.435 35.6327 272.197C35.5699 271.959 35.4757 271.74 35.4003 271.502C35.281 271.164 35.1366 270.82 34.9984 270.476C34.5525 270.607 33.2463 270.958 32.568 270.87C31.871 270.776 31.0043 270.463 30.6338 269.819C30.2758 269.186 30.4705 268.347 31.1676 268.041C32.1347 267.615 33.7612 268.61 34.3892 269.311C34.4081 269.336 34.5274 269.499 34.6656 269.693C34.5148 269.362 34.3704 269.03 34.2071 268.698C33.7487 267.759 33.2526 266.82 32.7627 265.868C32.6622 265.674 32.5618 265.474 32.4613 265.274C32.0908 265.386 30.6715 265.781 29.9618 265.687C29.2648 265.593 28.3981 265.28 28.0276 264.635C27.6696 264.003 27.8643 263.164 28.5614 262.857C29.5285 262.432 31.155 263.427 31.783 264.128C31.8082 264.153 31.9463 264.347 32.097 264.566C31.8396 264.047 31.5821 263.527 31.3497 263.008C30.9352 262.094 30.5836 261.167 30.3072 260.247C30.1754 260.285 28.5237 260.785 27.7387 260.685C27.0416 260.591 26.175 260.278 25.8045 259.634C25.4465 259.001 25.6412 258.162 26.3383 257.856C27.3054 257.43 28.9319 258.425 29.5599 259.126C29.6039 259.177 30.1063 259.884 30.2758 260.141C30.2758 260.128 30.2696 260.122 30.2633 260.109C29.987 259.139 29.8425 258.181 29.7483 257.261C29.6541 256.347 29.6416 255.477 29.6541 254.676C29.6604 253.874 29.7169 253.142 29.7734 252.497C29.8048 252.147 29.8425 251.827 29.8802 251.527L29.8614 251.539C29.8614 251.539 29.472 250.325 29.4594 250.244C29.2899 249.317 29.516 247.426 30.4454 246.932C31.1174 246.575 31.9024 246.938 32.1787 247.614C32.4613 248.303 32.1787 249.173 31.8144 249.78C31.4439 250.4 30.2319 251.276 29.9304 251.489C29.899 251.802 29.8676 252.134 29.8425 252.497C29.7986 253.142 29.7609 253.874 29.7672 254.669C29.7672 254.882 29.7797 255.108 29.786 255.333C29.8551 254.957 29.9556 254.444 29.9681 254.394C30.2507 253.492 31.3183 251.921 32.3796 251.909C33.1395 251.902 33.667 252.585 33.598 253.311C33.5289 254.05 32.8695 254.694 32.2729 255.064C31.6512 255.452 30.1314 255.671 29.7986 255.721C29.8174 256.209 29.8551 256.716 29.9179 257.236C30.0309 258.137 30.1942 259.095 30.4894 260.047H30.5522C30.571 259.684 30.6275 258.945 30.6401 258.882C30.8159 257.956 31.7077 256.278 32.7627 256.147C33.5163 256.053 34.1192 256.679 34.1318 257.405C34.1443 258.15 33.5603 258.857 33.0076 259.295C32.3671 259.796 30.6275 260.216 30.5584 260.228C30.8473 261.111 31.2053 261.994 31.626 262.87C31.9275 263.508 32.2603 264.141 32.5994 264.773C32.6057 264.523 32.6811 263.546 32.6936 263.477C32.8695 262.551 33.7612 260.873 34.8163 260.742C35.5699 260.648 36.1728 261.274 36.1853 262C36.1979 262.745 35.6138 263.452 35.0612 263.89C34.4395 264.379 32.769 264.792 32.6308 264.823C32.7878 265.111 32.9386 265.399 33.0956 265.681C33.6105 266.613 34.1255 267.546 34.609 268.485C34.7786 268.811 34.9293 269.136 35.0863 269.462C35.1114 269.086 35.1617 268.41 35.1742 268.354C35.3501 267.427 36.2418 265.75 37.2969 265.618C38.0505 265.524 38.6534 266.15 38.6659 266.876C38.6785 267.621 38.0944 268.329 37.5418 268.767C36.9829 269.205 35.5887 269.581 35.1931 269.675C35.4443 270.219 35.6829 270.764 35.8964 271.315C35.9844 271.553 36.0848 271.79 36.1539 272.022C36.2293 272.254 36.3046 272.485 36.3737 272.717C36.5056 273.199 36.6312 273.643 36.7442 274.088C36.8008 274.313 36.851 274.532 36.9075 274.751C36.8761 274.37 36.8322 273.762 36.8322 273.712C36.8698 272.773 37.4916 270.977 38.5152 270.689C39.25 270.482 39.9345 271.008 40.0601 271.728C40.0789 271.822 40.0852 271.909 40.0789 272.003C40.5311 272.711 40.7697 273.725 40.7634 274.351C40.7634 274.413 40.6755 275.121 40.6253 275.484C40.732 275.202 40.8451 274.92 40.9518 274.626C41.1151 274.201 41.2658 273.75 41.4228 273.312C41.4919 273.08 41.5673 272.848 41.6364 272.617C41.7117 272.379 41.762 272.147 41.8248 271.909C41.9127 271.559 41.9818 271.196 42.0571 270.833C41.6175 270.695 40.3238 270.275 39.8089 269.825C39.2751 269.362 38.7287 268.629 38.779 267.884C38.8292 267.158 39.4572 266.563 40.2045 266.695C41.247 266.87 42.0571 268.598 42.189 269.531C42.189 269.562 42.2016 269.762 42.2078 270C42.2706 269.643 42.3272 269.286 42.3774 268.923C42.5156 267.89 42.6223 266.832 42.7354 265.768C42.7605 265.549 42.7856 265.33 42.8107 265.105C42.4402 264.992 41.0398 264.548 40.4997 264.078C39.9659 263.615 39.4195 262.882 39.4698 262.138C39.52 261.411 40.148 260.817 40.8953 260.948C41.9378 261.123 42.7479 262.851 42.8798 263.784C42.8798 263.815 42.8924 264.053 42.8986 264.322C42.9677 263.746 43.0431 263.177 43.1373 262.607C43.3006 261.618 43.5141 260.654 43.7967 259.734C43.6648 259.696 42.0132 259.202 41.4103 258.682C40.8765 258.219 40.3301 257.486 40.3804 256.741C40.4306 256.015 41.0586 255.421 41.8059 255.552C42.8484 255.727 43.6585 257.455 43.7904 258.388C43.803 258.457 43.8218 259.32 43.8218 259.627C43.8218 259.615 43.8218 259.602 43.8281 259.596C44.1358 258.632 44.544 257.756 44.971 256.935C45.3981 256.122 45.8691 255.389 46.3212 254.726C46.7734 254.062 47.2256 253.486 47.6275 252.973C47.8473 252.697 48.0545 252.453 48.2555 252.222H48.2304C48.2304 252.222 48.582 250.995 48.6134 250.92C48.984 250.056 50.2148 248.603 51.2699 248.704C52.0298 248.772 52.4756 249.511 52.3375 250.225C52.193 250.957 51.4708 251.521 50.8366 251.827C50.1834 252.14 48.6888 252.209 48.3183 252.215C48.1173 252.453 47.9101 252.716 47.684 253.01C47.2884 253.53 46.855 254.112 46.4217 254.782C46.3087 254.957 46.1894 255.158 46.07 255.345C46.3338 255.07 46.7043 254.694 46.742 254.663C47.4705 254.068 49.2352 253.342 50.1269 253.918C50.7675 254.331 50.824 255.189 50.3718 255.759C49.9071 256.341 49.0028 256.51 48.2994 256.491C47.5647 256.472 46.1768 255.821 45.8754 255.677C45.6242 256.097 45.373 256.535 45.1343 257.011C44.7261 257.824 44.3368 258.713 44.0604 259.671C44.0919 259.684 44.0856 259.684 44.117 259.696C44.3305 259.414 44.7889 258.826 44.8329 258.782C45.4923 258.112 47.169 257.198 48.111 257.668C48.7956 258.006 48.9463 258.857 48.5569 259.471C48.155 260.097 47.2758 260.366 46.5724 260.429C45.7623 260.497 44.0793 259.884 44.0102 259.865C43.759 260.76 43.5706 261.693 43.4387 262.657C43.3382 263.352 43.2629 264.066 43.2001 264.779C43.3445 264.573 43.9474 263.803 43.9976 263.753C44.657 263.083 46.3338 262.169 47.2758 262.638C47.9603 262.976 48.111 263.828 47.7217 264.441C47.3198 265.067 46.4406 265.336 45.7372 265.399C44.9459 265.462 43.3257 264.886 43.1938 264.836C43.1624 265.161 43.131 265.48 43.1059 265.806C43.018 266.864 42.93 267.928 42.8107 268.98C42.773 269.343 42.7165 269.7 42.6663 270.056C42.8924 269.756 43.3131 269.224 43.3508 269.18C44.0102 268.51 45.687 267.596 46.629 268.066C47.3135 268.404 47.4642 269.255 47.0748 269.869C46.6729 270.495 45.7937 270.764 45.0904 270.826L45.0841 270.839Z" fill="#263238"/>
<path d="M24.1717 278.125H448.781" stroke="#263238" stroke-miterlimit="10"/>
<path d="M450.716 27.6504H379.061C376.543 27.6504 374.508 29.6849 374.508 32.1889V70.5189C374.508 73.0291 376.549 75.0574 379.061 75.0574H430.544V81.2047L437.81 75.0574H450.716C453.234 75.0574 455.269 73.0229 455.269 70.5189V32.1889C455.269 29.6786 453.228 27.6504 450.716 27.6504Z" stroke="#263238" stroke-miterlimit="10"/>
<path d="M337.575 27.6504H265.92C263.402 27.6504 261.367 29.6849 261.367 32.1889V70.5189C261.367 73.0291 263.408 75.0574 265.92 75.0574H271.962L279.228 81.2047V75.0574H337.575C340.093 75.0574 342.128 73.0229 342.128 70.5189V32.1889C342.128 29.6786 340.087 27.6504 337.575 27.6504Z" stroke="#263238" stroke-miterlimit="10"/>
<path d="M225.753 27.6504H154.099C151.58 27.6504 149.546 29.6849 149.546 32.1889V70.5189C149.546 73.0291 151.587 75.0574 154.099 75.0574H209.476V81.2047L216.742 75.0574H225.76C228.278 75.0574 230.313 73.0229 230.313 70.5189V32.1889C230.313 29.6786 228.272 27.6504 225.76 27.6504H225.753Z" stroke="#263238" stroke-miterlimit="10"/>
<path d="M125.28 27.6504H53.6249C51.1066 27.6504 49.0719 29.6849 49.0719 32.1889V70.5189C49.0719 73.0291 51.1129 75.0574 53.6249 75.0574H60.9851L68.251 81.2047V75.0574H125.28C127.798 75.0574 129.833 73.0229 129.833 70.5189V32.1889C129.833 29.6786 127.792 27.6504 125.28 27.6504Z" stroke="#263238" stroke-miterlimit="10"/>
<path d="M383.852 134.609C383.852 134.609 371.481 127.466 370.206 126.584C368.931 125.701 365.785 123.748 364.41 123.353C363.034 122.959 362.934 122.765 361.954 122.377C360.974 121.982 358.908 120.029 358.224 121.106C357.539 122.183 359.599 123.259 359.599 123.259L361.27 124.436C361.27 124.436 354.688 123.848 353.809 123.848C352.93 123.848 348.603 125.119 349.093 125.607C349.583 126.095 354.198 126.583 355.473 126.878C356.748 127.172 362.149 129.225 364.41 129.814C366.67 130.402 368.831 130.89 369.321 131.084C369.81 131.278 380.022 143.905 381.303 145.47C382.578 147.035 383.268 147.817 383.268 147.817L383.859 134.603L383.852 134.609Z" fill="white" stroke="#263238" stroke-miterlimit="10"/>
<path d="M369.025 129.426C369.421 128.543 369.81 127.666 364.41 126.59C359.009 125.513 357.244 125.707 357.244 125.707L353.219 125.413C353.219 125.413 350.663 124.925 350.273 125.313" stroke="#263238" stroke-miterlimit="10"/>
<path d="M395.496 99.0081C395.496 99.0081 389.605 105.662 386.986 110.62C384.367 115.578 378.741 120.148 379.526 125.106C380.311 130.064 382.408 132.937 382.408 132.937C382.408 132.937 380.706 151.335 383.193 158.772C385.68 166.209 386.597 171.43 386.597 171.43C386.597 171.43 382.276 188.783 384.631 198.442C386.986 208.101 393.009 230.28 393.009 230.28C393.009 230.28 396.544 242.544 397.851 249.855C399.157 257.161 400.601 269.167 400.469 270.081C400.337 270.995 398.114 272.297 393.009 274.388C387.903 276.479 383.714 277.913 384.367 279.083C385.021 280.26 387.903 280.78 388.82 281.043C389.737 281.306 395.106 282.476 399.552 282.871C404.005 283.265 413.168 282.22 414.738 280.655C416.308 279.09 414.342 273.869 414.216 270.476C414.084 267.083 414.869 254.031 416.182 245.811C417.488 237.592 417.884 229.498 416.835 221.278C415.786 213.059 415.133 210.705 415.133 208.101C415.133 205.497 420.634 185.916 421.545 184.87C422.462 183.825 427.831 173.909 427.046 164.907C426.261 155.905 420.239 147.029 418.537 144.287C416.835 141.545 417.099 136.85 417.099 134.371C417.099 131.892 420.107 118.189 420.107 118.189C420.107 118.189 423.379 106.051 421.413 100.836C419.448 95.6152 418.392 95.1394 418.392 95.1394C418.392 95.1394 413.689 92.0908 404.658 94.4445C395.627 96.792 395.496 99.0143 395.496 99.0143V99.0081Z" fill="#263238" stroke="#263238" stroke-miterlimit="10"/>
<path d="M418.537 144.293C416.835 141.551 417.099 136.856 417.099 134.377C417.099 131.898 420.107 118.195 420.107 118.195C420.107 118.195 423.379 106.057 421.413 100.842C419.448 95.6215 418.392 95.1458 418.392 95.1458C418.392 95.1458 413.689 92.0971 404.658 94.4509C395.627 96.7984 395.496 99.0207 395.496 99.0207C395.496 99.0207 389.605 105.675 386.986 110.633C384.367 115.591 378.741 120.161 379.526 125.119C380.311 130.077 382.408 132.95 382.408 132.95C382.408 132.95 380.706 151.348 383.193 158.785C383.212 158.841 383.231 158.898 383.25 158.954C388.569 159.843 406.26 162.071 425.037 156.619C422.889 150.922 419.705 146.177 418.537 144.306V144.293Z" fill="#FF9A6C" stroke="#263238" stroke-miterlimit="10"/>
<path d="M423.919 109.137C423.919 109.137 427.059 107.96 428.227 108.454C429.395 108.955 430.488 113.707 430.488 113.957C430.488 114.207 428.648 111.04 427.561 110.038C426.475 109.037 425.219 109.957 425.219 109.957L423.919 109.137Z" stroke="#263238" stroke-miterlimit="10"/>
<path d="M409.996 93.3992C409.996 93.3992 405.55 97.8313 402.535 103.841C399.521 109.851 391.627 128.737 391.627 128.737C391.627 128.737 400.381 142.903 403.685 148.049C406.988 153.201 410.863 163.931 420.333 165.934C429.803 167.937 435.116 160.356 435.116 160.356C435.116 160.356 436.981 150.772 437.986 147.335C438.991 143.905 442.005 133.601 439.135 126.734C436.265 119.867 431.386 115.146 431.097 114.715C430.808 114.283 425.646 108.849 423.919 109.137C422.198 109.425 417.03 119.153 413.444 125.019C409.858 130.884 406.266 137.319 406.266 137.319C406.266 137.319 402.994 135.93 401.254 134.765C399.515 133.601 393.919 127.591 393.919 127.591L404.394 103.841C404.394 103.841 407.327 95.7217 414.474 94.7013C414.474 94.7013 412.433 92.8233 409.99 93.393L409.996 93.3992Z" fill="#263238" stroke="#263238" stroke-miterlimit="10"/>
<path d="M409.224 58.5685C409.224 58.5685 406.617 56.6467 402.429 56.6467C398.24 56.6467 396.651 57.7735 390.767 60.3714C384.876 62.9693 383.407 63.4201 384.198 65.6737C384.989 67.9335 388.387 67.5955 388.387 67.5955C388.387 67.5955 388.952 63.5327 393.48 63.5327C398.008 63.5327 405.029 62.9693 407.409 62.2933C409.789 61.6172 409.217 58.5685 409.217 58.5685H409.224Z" fill="#263238" stroke="#263238" stroke-miterlimit="10"/>
<path d="M397.468 61.1602C397.468 61.1602 391.935 61.686 389.486 64.4154C387.036 67.1447 386.804 70.5752 386.748 71.6206C386.691 72.666 387.332 74.4063 387.099 75.1074C386.867 75.8023 383.545 78.2437 384.009 79.0575C384.474 79.8713 386.635 81.3236 386.635 81.3236C386.635 81.3236 387.332 89.2237 389.084 89.6306C390.836 90.0375 394.736 88.2973 394.736 88.2973C394.736 88.2973 396.89 94.9203 396.777 96.6043C396.657 98.2882 393.944 102.038 393.944 102.038L405.946 94.1378C405.946 94.1378 406.963 85.8997 405.267 75.8524C403.572 65.8051 398.064 60.8221 397.474 61.1727L397.468 61.1602Z" fill="white" stroke="#263238" stroke-miterlimit="10"/>
<path d="M388.638 74.7757C388.537 74.3688 390.779 73.2295 391.954 74.6881" stroke="#263238" stroke-miterlimit="10"/>
<path d="M389.247 70.2559C389.247 70.2559 390.817 68.7786 392.475 69.9054" stroke="#263238" stroke-miterlimit="10"/>
<path d="M386.019 72.1716C386.019 72.1716 387.068 76.7852 387.589 76.9542C388.11 77.1295 390.905 77.1295 392.042 76.6036C393.178 76.0841 393.178 71.4704 392.827 71.1199C392.475 70.7693 388.11 70.857 386.019 72.1653V72.1716Z" stroke="#263238" stroke-miterlimit="10"/>
<path d="M388.462 82.7823L391.602 81.3049C391.602 81.3049 391.602 83.1329 390.553 83.9154C389.504 84.6979 388.456 82.7823 388.456 82.7823H388.462Z" stroke="#263238" stroke-miterlimit="10"/>
<path d="M392.827 71.1261L404.35 73.9181" stroke="#263238" stroke-miterlimit="10"/>
<path d="M394.729 88.2848L399.05 86.507L395.872 91.252L394.729 88.2848Z" fill="#263238" stroke="#263238" stroke-miterlimit="10"/>
<path d="M399.031 61.1665C399.031 61.1665 393.712 62.0679 394.39 63.4263C395.069 64.7785 399.942 72.4532 400.733 73.3609C401.524 74.2624 401.185 75.3954 401.863 75.3954C402.542 75.3954 404.357 73.9306 404.357 73.9306C404.357 73.9306 404.922 76.1905 404.696 79.5771C404.47 82.9638 405.826 88.8357 401.298 96.7358C396.77 104.636 395.408 111.071 396.544 112.761C397.675 114.452 401.411 100.799 407.189 97.2992C412.967 93.7998 417.381 94.814 417.381 94.814L418.399 95.152C418.399 95.152 416.929 87.7026 416.929 81.718C416.929 75.7335 414.775 62.8692 412.627 59.8206C410.473 56.7719 401.531 58.4684 399.037 61.1727L399.031 61.1665Z" fill="#263238" stroke="#263238" stroke-miterlimit="10"/>
<path d="M403.22 75.8399C403.22 75.8399 404.463 72.7912 406.278 72.9039C408.093 73.0166 407.748 76.0652 406.844 78.2061C405.939 80.3533 403.333 81.5928 402.994 80.3533" fill="white"/>
<path d="M403.22 75.8399C403.22 75.8399 404.463 72.7912 406.278 72.9039C408.093 73.0166 407.748 76.0652 406.844 78.2061C405.939 80.3533 403.333 81.5928 402.994 80.3533" stroke="#263238" stroke-miterlimit="10"/>
<path d="M408.979 109.318L416.967 132.418C416.967 132.418 405.054 135.028 403.747 135.16C402.441 135.291 401.261 134.765 401.261 134.765C401.261 134.765 396.551 126.803 395.502 126.934C394.453 127.066 388.694 129.676 388.826 130.847C388.958 132.017 391.577 135.936 391.834 136.587C392.092 137.238 393.404 138.152 393.8 137.889C394.196 137.626 394.585 136.975 394.585 136.975C394.585 136.975 396.682 138.277 398.121 139.066C399.559 139.848 401.129 140.111 401.129 140.111C401.129 140.111 418.669 142.071 423.774 141.939C428.88 141.808 432.673 140.243 432.673 139.46C432.673 138.678 423.511 105.4 422.594 101.75C421.677 98.0942 419.843 93.2678 414.48 94.7013C409.111 96.1349 406.887 99.1397 405.971 102.007" fill="#FF9A6C"/>
<path d="M408.979 109.318L416.967 132.418C416.967 132.418 405.054 135.028 403.747 135.16C402.441 135.291 401.261 134.765 401.261 134.765C401.261 134.765 396.551 126.803 395.502 126.934C394.453 127.066 388.694 129.676 388.826 130.847C388.958 132.017 391.577 135.936 391.834 136.587C392.092 137.238 393.404 138.152 393.8 137.889C394.196 137.626 394.585 136.975 394.585 136.975C394.585 136.975 396.682 138.277 398.121 139.066C399.559 139.848 401.129 140.111 401.129 140.111C401.129 140.111 418.669 142.071 423.774 141.939C428.88 141.808 432.673 140.243 432.673 139.46C432.673 138.678 423.511 105.4 422.594 101.75C421.677 98.0942 419.843 93.2678 414.48 94.7013C409.111 96.1349 406.887 99.1397 405.971 102.007" stroke="#263238" stroke-miterlimit="10"/>
<path d="M423.774 141.939C428.88 141.808 432.673 140.243 432.673 139.46C432.673 138.966 428.974 125.344 426.041 114.545C419.51 114.189 414.819 116.499 412.119 118.395L416.967 132.412C416.967 132.412 405.054 135.022 403.747 135.153C402.441 135.285 401.261 134.759 401.261 134.759C401.261 134.759 396.551 126.796 395.502 126.928C394.453 127.059 388.694 129.67 388.826 130.84C388.958 132.011 391.577 135.93 391.834 136.581C392.098 137.232 393.404 138.146 393.8 137.883C394.196 137.62 394.585 136.969 394.585 136.969C394.585 136.969 396.682 138.271 398.121 139.06C399.559 139.842 401.129 140.105 401.129 140.105C401.129 140.105 418.669 142.064 423.774 141.933V141.939Z" fill="white" stroke="#263238" stroke-miterlimit="10"/>
<path d="M418.669 132.023C418.669 132.023 422.857 129.676 425.212 131.11C427.567 132.543 428.88 133.72 428.88 133.72" stroke="#263238" stroke-miterlimit="10"/>
<path d="M391.828 136.593C391.828 136.593 395.232 133.72 395.753 133.72H396.274" stroke="#263238" stroke-miterlimit="10"/>
<path d="M390.899 134.534C390.899 134.534 394.679 131.266 395.47 131.166C396.268 131.066 396.664 131.66 396.664 131.66" stroke="#263238" stroke-miterlimit="10"/>
<path d="M389.41 132.649C389.41 132.649 393.386 129.876 394.284 129.181C395.175 128.486 395.973 128.981 395.973 128.981" stroke="#263238" stroke-miterlimit="10"/>
<path d="M403.39 270.839C403.39 270.839 396.607 275.127 394.623 275.947C392.638 276.767 387.677 279.077 387.181 279.903C386.685 280.73 387.677 281.719 391.979 282.871C396.281 284.022 407.522 283.697 410.172 283.202C412.816 282.708 415.466 282.051 415.466 279.409C415.466 276.767 413.978 271.991 413.978 271.991C413.978 271.991 409.349 273.312 407.861 273.143C406.373 272.98 405.217 272.98 405.217 272.98C405.217 272.98 405.217 269.355 403.396 270.839H403.39Z" fill="white" stroke="#263238" stroke-miterlimit="10"/>
<path d="M390.321 172.751C390.321 172.751 389.329 194.179 391.809 206.542C394.29 218.906 398.592 238.525 400.739 247.258C402.887 255.996 404.049 265.718 404.049 266.707" stroke="#999999" stroke-linecap="round" stroke-linejoin="round"/>
<path d="M295.788 184.501C295.788 184.501 297.898 208.765 297.76 211.425C297.622 214.092 295.788 225.166 297.622 231.476C299.449 237.786 303.531 255.314 303.531 255.314L311.551 254.895C311.551 254.895 313.096 227.97 313.24 223.344C313.378 218.718 313.102 208.477 312.958 207.776C312.813 207.074 314.226 186.598 314.226 186.598L295.794 184.495L295.788 184.501Z" fill="#A3A3A3" stroke="#263238" stroke-miterlimit="10"/>
<path d="M301.49 246.732C302.633 251.47 303.525 255.32 303.525 255.32L311.545 254.901C311.545 254.901 311.745 251.445 312.003 246.8L301.49 246.732Z" fill="white" stroke="#263238" stroke-miterlimit="10"/>
<path d="M299.587 251.815L302.263 269.624C302.263 269.624 299.87 276.216 299.311 278.038C298.746 279.859 298.89 281.963 299.449 282.382C300.014 282.802 306.131 284.066 310.634 283.509C315.137 282.946 315.57 282.282 315.57 282.282L315.771 278.038C315.771 278.038 313.378 268.222 313.378 267.521C313.378 266.82 314.22 250.976 314.22 250.976L312.392 251.114L308.593 261.073H305.076L301.421 251.959L299.594 251.821L299.587 251.815Z" fill="#FF9A6C" stroke="#263238" stroke-miterlimit="10"/>
<path d="M310.634 283.515C315.137 282.952 315.57 282.288 315.57 282.288L315.683 279.878L315.325 279.953C307.795 281.982 299.16 280.079 299.16 280.079L298.959 280.047C298.903 281.174 299.091 282.126 299.449 282.395C300.014 282.814 306.131 284.079 310.634 283.522V283.515Z" fill="white" stroke="#263238" stroke-miterlimit="10"/>
<path d="M302.677 255.433C302.677 255.433 302.57 251.74 303.11 251.408C303.657 251.082 309.874 250.976 310.42 251.408C310.967 251.84 311.293 253.58 311.293 253.58L308.587 261.073H305.07L302.677 255.433Z" fill="#FF9A6C" stroke="#263238" stroke-miterlimit="10"/>
<path d="M303.864 261.211H309.918" stroke="#263238" stroke-linecap="round" stroke-linejoin="round"/>
<path d="M304.404 264.629H310.452" stroke="#263238" stroke-linecap="round" stroke-linejoin="round"/>
<path d="M305.076 261.073L309.717 264.228" stroke="#263238" stroke-linecap="round" stroke-linejoin="round"/>
<path d="M309.039 261.28L304.737 264.429" stroke="#263238" stroke-linecap="round" stroke-linejoin="round"/>
<path d="M304.404 268.585H310.452" stroke="#263238" stroke-linecap="round" stroke-linejoin="round"/>
<path d="M305.076 265.03L309.717 268.185" stroke="#263238" stroke-linecap="round" stroke-linejoin="round"/>
<path d="M309.039 265.23L304.737 268.385" stroke="#263238" stroke-linecap="round" stroke-linejoin="round"/>
<path d="M306.376 262.294C306.376 262.294 306.747 268.629 306.558 269.117C306.376 269.612 305.202 270.163 304.586 270.225C303.971 270.288 303.104 269.674 303.104 269.674" stroke="#263238" stroke-linecap="round" stroke-linejoin="round"/>
<path d="M307.795 262.788C307.795 262.788 308.103 268.879 308.844 269.368C309.585 269.862 310.816 270.106 311.249 269.919C311.683 269.731 312.361 269.117 312.361 269.117" stroke="#263238" stroke-linecap="round" stroke-linejoin="round"/>
<path d="M333.449 253.267C333.449 253.267 338.58 253.949 338.354 255.539C338.128 257.13 334.134 267.358 334.134 267.358L332.08 258.156L333.449 253.267Z" fill="#FF9A6C" stroke="#263238" stroke-miterlimit="10"/>
<path d="M319.796 186.135L325.015 214.217C325.015 214.217 322.334 221.648 323.075 227.589C323.822 233.529 324.268 256.71 324.268 256.71L333.361 257.749C333.361 257.749 339.773 221.936 340.37 213.917C340.966 205.891 340.37 184.795 340.37 184.795L319.796 186.135Z" fill="#A3A3A3" stroke="#263238" stroke-miterlimit="10"/>
<path d="M333.361 257.755C333.361 257.755 334.065 253.818 335.032 248.265L324.048 247.458C324.192 252.635 324.274 256.716 324.274 256.716L333.368 257.755H333.361Z" fill="white" stroke="#263238" stroke-miterlimit="10"/>
<path d="M321.969 251.802L330.052 255.158L330.862 266.976H332.884C332.884 266.976 334.096 267.108 335.176 269.393C336.256 271.678 338.009 273.825 339.491 275.033C340.973 276.241 343.397 277.449 343.667 279.734C343.937 282.019 342.995 282.558 341.783 282.82C340.571 283.083 335.453 283.759 332.488 283.359C329.524 282.958 328.852 281.881 327.772 279.597C326.692 277.312 325.21 276.241 325.21 276.241L324.538 277.85L319.282 273.549C319.282 273.549 319.683 270.194 320.224 267.909C320.764 265.624 321.976 264.285 322.246 263.746C322.516 263.208 321.976 251.796 321.976 251.796L321.969 251.802Z" fill="#FF9A6C" stroke="#263238" stroke-miterlimit="10"/>
<path d="M330.033 256.447C330.033 256.447 335.051 255.652 335.735 256.904C336.42 258.156 334.14 267.358 334.14 267.358L330.862 266.976L330.033 256.447Z" fill="#FF9A6C" stroke="#263238" stroke-miterlimit="10"/>
<path d="M329.003 267.584C329.003 267.584 333.104 266.332 334.134 267.358" stroke="#263238" stroke-linecap="round" stroke-linejoin="round"/>
<path d="M329.92 269.975C329.92 269.975 333.587 268.479 335.17 269.399" stroke="#263238" stroke-linecap="round" stroke-linejoin="round"/>
<path d="M332.539 272.36C332.539 272.36 334.705 271.34 336.3 271.79" stroke="#263238" stroke-linecap="round" stroke-linejoin="round"/>
<path d="M329.75 267.415L334.146 269.086" stroke="#263238" stroke-linecap="round" stroke-linejoin="round"/>
<path d="M332.878 266.976L331.138 269.493L335.647 271.74" stroke="#263238" stroke-linecap="round" stroke-linejoin="round"/>
<path d="M334.667 269.662L333.336 272.085" stroke="#263238" stroke-linecap="round" stroke-linejoin="round"/>
<path d="M343.667 281.024C341.067 281.844 336.005 282.745 332.991 282.238C329.229 281.606 327.207 277.28 325.989 275.546C324.94 274.05 320.782 271.44 319.671 270.757C319.426 272.279 319.269 273.556 319.269 273.556L324.525 277.856L325.197 276.247C325.197 276.247 326.679 277.324 327.759 279.603C328.84 281.888 329.512 282.958 332.476 283.365C335.44 283.766 340.558 283.096 341.77 282.827C342.712 282.62 343.485 282.245 343.66 281.024H343.667Z" fill="white" stroke="#263238" stroke-miterlimit="10"/>
<path d="M290.978 148.218L284.936 185.365L316.179 189.459L348.075 186.229L337.468 148.218H290.978Z" fill="#6B6B6B" stroke="#263238" stroke-miterlimit="10"/>
<path d="M296.397 165.752L308.938 171.355" stroke="#263238" stroke-linecap="round" stroke-linejoin="round"/>
<path d="M306.772 168.77L313.372 172.219" stroke="#263238" stroke-linecap="round" stroke-linejoin="round"/>
<path d="M321.046 172.219L332.721 165.533" stroke="#263238" stroke-linecap="round" stroke-linejoin="round"/>
<path d="M327.427 165.965L322.02 170.491" stroke="#263238" stroke-linecap="round" stroke-linejoin="round"/>
<path d="M316.179 189.459L316.399 173.402" stroke="#263238" stroke-linecap="round" stroke-linejoin="round"/>
<path d="M285.583 180.407L316.072 184.933L345.808 180.945" stroke="#263238" stroke-linecap="round" stroke-linejoin="round"/>
<path d="M315.426 154.541L316.072 171.029" stroke="#263238" stroke-linecap="round" stroke-linejoin="round"/>
<path d="M316.399 169.846L318.666 165.533L317.693 154.866" stroke="#263238" stroke-linecap="round" stroke-linejoin="round"/>
<path d="M368.51 162.56C365.716 162.297 365.848 161.495 365.848 161.495C365.848 161.495 365.05 160.7 364.114 159.636C363.185 158.572 358.789 160.563 358.789 160.563C358.789 160.563 356.924 158.303 355.592 156.312C354.261 154.321 348.132 142.371 347.466 140.111C346.8 137.851 344.803 135.598 344.803 135.598C344.803 135.598 342.938 110.37 342.536 106.783C342.134 103.196 339.874 101.337 339.874 101.337C330.158 96.0722 318.339 95.5651 314.232 95.972C310.125 95.5714 298.488 95.1207 288.591 101.337C288.591 101.337 286.324 103.196 285.928 106.783C285.526 110.37 283.661 135.598 283.661 135.598C283.661 135.598 281.664 137.858 280.999 140.111C280.333 142.371 274.204 154.321 272.872 156.312C271.541 158.303 269.676 160.563 269.676 160.563C269.676 160.563 265.28 158.572 264.35 159.636C263.421 160.7 262.617 161.495 262.617 161.495C262.617 161.495 262.749 162.29 259.954 162.56C257.16 162.823 255.69 162.823 256.356 163.755C257.022 164.688 259.684 164.951 259.684 164.951L262.881 164.55C262.881 164.55 262.083 171.856 262.347 172.519C262.611 173.183 265.28 173.314 265.28 173.314C265.28 173.314 271.541 171.192 272.207 170.529C272.872 169.865 276.603 161.896 276.603 161.896L291.92 145.432L290.99 148.218C290.99 148.218 304.228 152.412 314.239 152.143C324.243 152.412 337.487 148.218 337.487 148.218L336.558 145.432L351.875 161.896C351.875 161.896 355.605 169.865 356.271 170.529C356.936 171.192 363.198 173.314 363.198 173.314C363.198 173.314 365.86 173.183 366.13 172.519C366.394 171.856 365.596 164.55 365.596 164.55L368.793 164.951C368.793 164.951 371.456 164.688 372.121 163.755C372.787 162.829 371.324 162.829 368.523 162.56H368.51Z" fill="#FF9A6C" stroke="#263238" stroke-miterlimit="10"/>
<path d="M291.907 145.426C291.907 145.426 295.097 135.397 295.242 134.966C295.386 134.534 292.196 129.613 292.196 125.269C292.196 120.924 294.375 113.256 294.375 113.256" stroke="#263238" stroke-linecap="round" stroke-linejoin="round"/>
<path d="M334.749 112.693L333.857 116.017C333.857 116.017 335.019 121.081 335.741 124.267C336.47 127.454 333.857 135.698 333.707 137C333.562 138.302 336.533 145.432 336.533 145.432C336.533 145.432 329.643 147.849 324.563 148.863" stroke="#263238" stroke-linecap="round" stroke-linejoin="round"/>
<path d="M335.452 110.082L335.151 111.196" stroke="#263238" stroke-linecap="round" stroke-linejoin="round"/>
<path d="M285.514 134.972C285.514 134.972 290.739 133.958 293.207 136.13" stroke="#263238" stroke-linecap="round" stroke-linejoin="round"/>
<path d="M290.161 132.361C290.161 132.361 294.513 132.937 295.242 134.965" stroke="#263238" stroke-linecap="round" stroke-linejoin="round"/>
<path d="M341.984 134.534C341.984 134.534 338.354 134.534 336.03 137.864" stroke="#263238" stroke-linecap="round" stroke-linejoin="round"/>
<path d="M306.853 134.102L318.76 131.785" stroke="#263238" stroke-linecap="round" stroke-linejoin="round"/>
<path d="M321.549 132.393L313.68 133.814" stroke="#263238" stroke-linecap="round" stroke-linejoin="round"/>
<path d="M327.32 131.354L324.808 131.804" stroke="#263238" stroke-linecap="round" stroke-linejoin="round"/>
<path d="M303.337 145.852C304.09 145.908 304.881 145.946 305.692 145.964" stroke="#263238" stroke-linecap="round" stroke-linejoin="round"/>
<path d="M293.502 143.942C293.502 143.942 296.724 145.138 301.628 145.695" stroke="#263238" stroke-linecap="round" stroke-linejoin="round"/>
<path d="M324.419 147.266C324.419 147.266 321.517 147.698 317.743 147.993" stroke="#263238" stroke-linecap="round" stroke-linejoin="round"/>
<path d="M307.268 78.5692C307.268 78.5692 307.362 89.205 305.629 92.7732C303.889 96.3414 300.925 97.2553 300.925 97.2553C300.925 97.2553 300.825 102.658 310.433 105.306C320.041 107.954 326.485 102.088 328.048 99.6592C329.298 97.7185 328.852 97.2428 328.852 97.2428C328.852 97.2428 323.031 96.6856 321.913 91.6964C321.078 87.9843 320.355 80.5223 320.355 80.5223C320.355 80.5223 317.203 78.5191 314.038 79.1326C310.866 79.7461 307.274 78.5692 307.274 78.5692H307.268Z" fill="white" stroke="#263238" stroke-miterlimit="10"/>
<path d="M309.836 81.2986L321.907 91.7027L319.809 82.801L309.836 81.2986Z" fill="#263238" stroke="#263238" stroke-linecap="round" stroke-linejoin="round"/>
<path d="M279.447 143.692C277.356 148.118 273.833 154.866 272.86 156.318C271.528 158.309 269.663 160.569 269.663 160.569C269.663 160.569 265.267 158.578 264.338 159.643C263.408 160.707 262.604 161.502 262.604 161.502C262.604 161.502 262.736 162.297 259.942 162.566C257.147 162.829 255.678 162.829 256.343 163.762C257.009 164.694 259.672 164.957 259.672 164.957L262.868 164.557C262.868 164.557 262.071 171.862 262.334 172.526C262.598 173.189 265.267 173.321 265.267 173.321C265.267 173.321 271.528 171.198 272.194 170.535C272.86 169.871 276.59 161.902 276.59 161.902L287.574 150.096C285.671 145.414 281.828 144.068 279.447 143.698V143.692Z" fill="white" stroke="#263238" stroke-miterlimit="10"/>
<path d="M368.51 162.56C365.716 162.297 365.848 161.495 365.848 161.495C365.848 161.495 365.05 160.7 364.114 159.636C363.185 158.572 358.789 160.563 358.789 160.563C358.789 160.563 356.924 158.303 355.592 156.312C354.562 154.766 350.65 147.248 348.634 142.891C344.628 142.765 341.067 146.941 339.685 148.8L351.862 161.89C351.862 161.89 355.592 169.859 356.258 170.522C356.924 171.186 363.185 173.308 363.185 173.308C363.185 173.308 365.848 173.177 366.118 172.513C366.381 171.849 365.584 164.544 365.584 164.544L368.78 164.945C368.78 164.945 371.443 164.682 372.109 163.749C372.775 162.823 371.311 162.823 368.51 162.553V162.56Z" fill="white" stroke="#263238" stroke-miterlimit="10"/>
<path d="M264.733 168.137C264.733 168.137 262.071 173.314 262.334 174.116C262.598 174.911 263.798 175.443 264.463 174.648C265.129 173.853 266.328 169.865 266.328 169.07C266.328 168.275 265.531 167.079 264.727 168.144L264.733 168.137Z" fill="white" stroke="#263238" stroke-miterlimit="10"/>
<path d="M267.296 167.443C267.296 167.443 265.405 172.35 265.719 173.045C266.033 173.734 267.164 174.097 267.685 173.314C268.206 172.532 268.897 168.839 268.822 168.125C268.746 167.411 267.911 166.41 267.296 167.443Z" fill="white" stroke="#263238" stroke-miterlimit="10"/>
<path d="M269.669 167.211C269.669 167.211 267.779 172.119 268.093 172.814C268.407 173.502 269.538 173.865 270.059 173.083C270.58 172.3 271.271 168.607 271.196 167.893C271.12 167.18 270.285 166.178 269.669 167.211Z" fill="white" stroke="#263238" stroke-miterlimit="10"/>
<path d="M271.478 167.042C271.478 167.042 270.404 171.042 270.706 171.562C271.013 172.075 271.924 172.269 272.269 171.612C272.615 170.961 272.847 168.006 272.728 167.449C272.608 166.892 271.874 166.184 271.478 167.042Z" fill="white" stroke="#263238" stroke-miterlimit="10"/>
<path d="M363.75 168.137C363.75 168.137 366.413 173.314 366.149 174.116C365.885 174.911 364.686 175.443 364.02 174.648C363.355 173.853 362.155 169.865 362.155 169.07C362.155 168.275 362.953 167.079 363.756 168.144L363.75 168.137Z" fill="white" stroke="#263238" stroke-miterlimit="10"/>
<path d="M361.188 167.443C361.188 167.443 363.078 172.35 362.764 173.045C362.45 173.734 361.32 174.097 360.799 173.314C360.277 172.532 359.587 168.839 359.662 168.125C359.737 167.411 360.572 166.41 361.188 167.443Z" fill="white" stroke="#263238" stroke-miterlimit="10"/>
<path d="M358.814 167.211C358.814 167.211 360.704 172.119 360.39 172.814C360.076 173.502 358.946 173.865 358.425 173.083C357.903 172.3 357.213 168.607 357.288 167.893C357.363 167.18 358.199 166.178 358.814 167.211Z" fill="white" stroke="#263238" stroke-miterlimit="10"/>
<path d="M356.999 167.042C356.999 167.042 358.073 171.042 357.772 171.562C357.464 172.075 356.553 172.269 356.208 171.612C355.862 170.961 355.63 168.006 355.749 167.449C355.869 166.892 356.603 166.184 356.999 167.042Z" fill="white" stroke="#263238" stroke-miterlimit="10"/>
<path d="M326.755 61.7924C326.755 61.7924 329.066 61.5921 329.6 59.7955C330.133 57.9989 330.403 55.2257 324.092 53.3727C317.787 51.5198 309.949 51.8515 304.699 54.7061C299.449 57.5544 295.367 66.1995 294.733 70.5251C294.099 74.8508 289.495 95.3272 284.289 102.464C279.083 109.606 274.436 112.943 274.367 117.081C274.298 121.219 277.149 122.84 277.337 122.464C277.526 122.089 278.933 117.074 278.933 117.074C278.933 117.074 279.988 129.138 288.742 130.809C297.49 132.48 303.971 127.666 306.068 123.422C308.166 119.178 306.451 120.799 305.12 120.743C303.789 120.687 300.693 117.957 300.548 110.708C300.398 103.459 306.916 98.3821 306.916 98.3821C306.916 98.3821 310.797 101.218 313.265 99.9722C315.727 98.7264 316.851 94.7388 316.851 94.7388C316.851 94.7388 313.887 93.9062 311.846 91.3334C309.805 88.7605 311.03 81.3111 311.03 81.3111C311.03 81.3111 315.809 71.5643 316.198 68.0086C316.581 64.4529 317.303 62.2807 319.953 61.5921C322.604 60.9035 326.774 61.7799 326.774 61.7799L326.755 61.7924Z" fill="#263238" stroke="#263238" stroke-linecap="round" stroke-linejoin="round"/>
<path d="M287.128 114.226C287.172 114.833 287.241 115.434 287.335 116.042" stroke="#757575" stroke-linecap="round" stroke-linejoin="round"/>
<path d="M310.716 68.9226C310.716 68.9226 312.587 72.8476 305.861 79.1702C299.801 84.8731 287.649 97.4745 287.09 111.415" stroke="#757575" stroke-linecap="round" stroke-linejoin="round"/>
<path d="M304.034 95.0769C304.266 95.5214 304.542 95.9533 304.869 96.379" stroke="#757575" stroke-linecap="round" stroke-linejoin="round"/>
<path d="M304.969 82.0874C304.969 82.0874 301.578 88.3349 303.468 93.7873" stroke="#757575" stroke-linecap="round" stroke-linejoin="round"/>
<path d="M321.586 54.0676C321.586 54.0676 316.33 54.5183 315.444 58.4997" stroke="#757575" stroke-linecap="round" stroke-linejoin="round"/>
<path d="M299.776 126.045C300.894 126.12 301.798 125.957 302.244 125.813" stroke="#757575" stroke-linecap="round" stroke-linejoin="round"/>
<path d="M301.54 87.8278C301.54 87.8278 289.979 105.318 291.442 116.186C292.24 122.089 294.884 124.574 297.389 125.532" stroke="#757575" stroke-linecap="round" stroke-linejoin="round"/>
<path d="M327.157 60.8472C327.157 60.8472 328.237 64.5531 328.978 66.1181C329.348 66.9006 328.865 68.5157 328.94 69.7614C329.015 71.0072 329.656 71.8836 329.656 71.8836C329.656 71.8836 331.144 73.893 330.987 75.001C330.824 76.1091 329.606 77.3485 329.606 77.3485C329.606 77.3485 329.411 83.1328 328.997 84.848C328.582 86.5633 327.383 87.0328 325.455 86.9138C323.527 86.7949 319.746 86.0875 317.322 84.9231C314.898 83.7588 312.524 82.2877 312.524 82.2877C312.524 82.2877 312.028 82.3753 310.282 82.1249C308.536 81.8745 307.299 79.2704 307.299 79.2704C307.299 79.2704 311.249 76.6161 312.009 72.5283C312.769 68.4406 314.038 60.8785 318.685 60.1022C323.332 59.326 327.157 60.8472 327.157 60.8472Z" fill="white" stroke="#263238" stroke-miterlimit="10"/>
<path d="M309.893 77.7617L310.376 79.2266C310.376 79.2266 309.566 79.0137 309.485 79.5771C309.403 80.1405 309.968 80.2219 309.968 80.2219" stroke="#263238" stroke-linecap="round" stroke-linejoin="round"/>
<path d="M320.242 71.1448C320.242 71.1448 321.392 69.4296 323.878 70.2434" stroke="#263238" stroke-width="2" stroke-linecap="round" stroke-linejoin="round"/>
<path d="M322.817 67.0383C322.817 67.0383 320.519 66.1681 318.993 68.6283" stroke="#263238" stroke-width="2" stroke-linecap="round" stroke-linejoin="round"/>
<path d="M327.358 80.2344C324.142 80.1279 323.163 78.1936 323.163 78.1936C323.163 78.1936 323.684 81.3987 324.72 81.5677C325.756 81.7368 327.351 80.2344 327.351 80.2344H327.358Z" stroke="#263238" stroke-linecap="round" stroke-linejoin="round"/>
<path d="M327.458 67.2636C327.458 67.2636 328.331 66.2245 329.216 66.8943" stroke="#263238" stroke-width="2" stroke-linecap="round" stroke-linejoin="round"/>
<path d="M329.656 71.8835C329.656 71.8835 327.797 69.824 327.439 68.6033" stroke="#263238" stroke-linecap="round" stroke-linejoin="round"/>
<path d="M327.157 60.8471C327.157 60.8471 325.681 58.0927 322.359 59.8956C319.037 61.6985 319.25 67.1948 315.086 70.3999C310.923 73.605 308.907 72.5533 308.907 72.5533C308.907 72.5533 313.818 71.2325 314.948 66.9506C316.079 62.6688 314.383 59.5012 318.201 57.7672" fill="#263238"/>
<path d="M327.157 60.8471C327.157 60.8471 325.681 58.0927 322.359 59.8956C319.037 61.6985 319.25 67.1948 315.086 70.3999C310.923 73.605 308.907 72.5533 308.907 72.5533C308.907 72.5533 313.818 71.2325 314.948 66.9506C316.079 62.6688 314.383 59.5012 318.201 57.7672" stroke="#263238" stroke-linecap="round" stroke-linejoin="round"/>
<path d="M148.899 142.052C148.899 142.052 143.473 163.593 142.638 181.402C141.802 199.212 143.781 272.041 143.781 272.041L142.719 278.783C142.719 278.783 150.18 281.625 157.201 282.72C164.222 283.816 172.342 282.501 173.221 282.939C174.1 283.378 182.001 284.473 186.604 284.254C191.213 284.035 195.164 282.069 196.476 281.193C197.795 280.316 202.178 282.507 204.596 280.755C207.008 279.002 207.887 278.57 207.887 278.57C207.887 278.57 208.289 249.736 208.289 239.896C208.289 230.055 206.97 187.406 204.998 174.278C203.026 161.157 196.501 137.269 196.501 137.269L193.807 129.219H150.582L148.899 142.052Z" fill="#A3A3A3" stroke="#263238" stroke-miterlimit="10"/>
<path d="M199.214 272.798C198.869 274.589 198.592 275.859 198.417 276.416" stroke="#263238" stroke-miterlimit="10"/>
<path d="M206.75 227.426C206.75 227.426 202.203 256.466 199.742 269.969" stroke="#263238" stroke-miterlimit="10"/>
<path d="M178.051 253.424C177.843 255.608 177.611 257.536 177.347 259.139" stroke="#263238" stroke-miterlimit="10"/>
<path d="M179.325 186.742C179.325 186.742 179.966 227.063 178.371 249.542" stroke="#263238" stroke-miterlimit="10"/>
<path d="M157.057 209.334C160.504 225.216 166.684 252.334 170.332 260.666" stroke="#263238" stroke-miterlimit="10"/>
<path d="M154.532 197.459C154.532 197.459 155.267 201.034 156.447 206.517" stroke="#263238" stroke-miterlimit="10"/>
<path d="M163.531 252.14C163.531 252.14 169.893 268.541 172.311 273.794" stroke="#263238" stroke-miterlimit="10"/>
<path d="M175.375 138.189L175.155 165.089" stroke="#263238" stroke-miterlimit="10"/>
<path d="M173.623 136.437L173.184 153.495" stroke="#263238" stroke-miterlimit="10"/>
<path d="M161.98 103.678L160.711 134.89H181.052L177.253 104.054L161.98 103.678Z" fill="white" stroke="#263238" stroke-miterlimit="10"/>
<path d="M192.978 103.778C192.978 103.778 195.132 115.297 195.132 118.226C195.132 121.156 195.233 124.574 195.233 124.574L198.561 143.905C198.561 143.905 187.05 147.323 180.688 148.393C174.32 149.47 171.777 148.982 171.777 148.982L166.301 100.448L190.629 95.4775" fill="#FF9A6C"/>
<path d="M192.978 103.778C192.978 103.778 195.132 115.297 195.132 118.226C195.132 121.156 195.233 124.574 195.233 124.574L198.561 143.905C198.561 143.905 187.05 147.323 180.688 148.393C174.32 149.47 171.777 148.982 171.777 148.982L166.301 100.448L190.629 95.4775" stroke="#263238" stroke-miterlimit="10"/>
<path d="M185.53 101.925L178.151 106.608L173.548 108.561L177.762 110.908L170.609 128.968" stroke="#263238" stroke-miterlimit="10"/>
<path d="M149.784 103.778C149.784 103.778 148.233 115.297 148.233 118.226C148.233 121.156 148.164 124.574 148.164 124.574L145.765 143.905C145.765 143.905 148.585 147.323 153.169 148.393C157.754 149.47 159.581 148.982 159.581 148.982L164.442 100.041L151.474 95.4775" fill="#FF9A6C"/>
<path d="M149.784 103.778C149.784 103.778 148.233 115.297 148.233 118.226C148.233 121.156 148.164 124.574 148.164 124.574L145.765 143.905C145.765 143.905 148.585 147.323 153.169 148.393C157.754 149.47 159.581 148.982 159.581 148.982L164.442 100.041L151.474 95.4775" stroke="#263238" stroke-miterlimit="10"/>
<path d="M157.452 100.655L155.914 106.608L159.229 108.561L156.196 110.908L161.339 128.969" stroke="#263238" stroke-miterlimit="10"/>
<path d="M156.742 89.3301C156.742 89.3301 150.475 94.601 150.67 95.0893C150.864 95.5776 157.622 99.1896 160.661 100.36C163.701 101.531 165.164 102.213 165.164 102.213C165.164 102.213 157.327 90.2065 156.742 89.3239V89.3301Z" fill="#263238" stroke="#263238" stroke-miterlimit="10"/>
<path d="M186.516 87.2768L194.937 94.3068C194.937 94.3068 192.978 100.46 182.107 105.537C169.623 111.365 170.747 110.226 167.707 107.196C164.674 104.166 156.347 90.3067 156.736 89.3301C157.126 88.3536 159.185 86.9889 159.185 86.9889L186.516 87.2831V87.2768Z" fill="#263238" stroke="#263238" stroke-miterlimit="10"/>
<path d="M158.991 89.3302C158.991 89.3302 161.138 97.6435 162.526 99.6592" stroke="#999999" stroke-linecap="round" stroke-linejoin="round"/>
<path d="M175.67 52.6841C176.612 52.8594 177.492 53.235 178.264 53.7984C180.129 55.1568 183.74 58.1053 184.952 61.3041C186.616 65.6987 187.502 69.6049 187.891 74.5816C188.281 79.5583 188.576 83.5647 187.502 86.0061C186.422 88.4475 185.442 93.8186 182.114 96.5479C178.785 99.2836 172.713 103.284 171.243 101.625C169.773 99.9659 162.621 94.695 160.862 91.9594C159.097 89.2237 158.802 86.8825 158.802 84.9294C158.802 82.9763 157.232 70.7693 159.487 63.9396C161.741 57.1037 166.244 53.1974 169.573 52.5151C171.683 52.0832 174.151 52.3962 175.67 52.6779V52.6841Z" fill="#263238" stroke="#263238" stroke-linecap="round" stroke-linejoin="round"/>
<path d="M182.874 79.3142C182.622 79.8463 182.365 80.3596 182.107 80.8291" stroke="#999999" stroke-linecap="round" stroke-linejoin="round"/>
<path d="M186.321 69.8992C186.321 69.8992 185.034 74.3876 183.351 78.2688" stroke="#999999" stroke-linecap="round" stroke-linejoin="round"/>
<path d="M172.706 88.8419C172.706 88.8419 179.168 92.648 183.382 92.648" stroke="#999999" stroke-linecap="round" stroke-linejoin="round"/>
<path d="M176.738 96.7859C174.264 97.6811 171.099 98.6138 169.868 98.113C167.714 97.2366 161.836 91.3772 160.071 84.9294" stroke="#999999" stroke-linecap="round" stroke-linejoin="round"/>
<path d="M180.054 95.4775C180.054 95.4775 179.288 95.8093 178.17 96.2475" stroke="#999999" stroke-linecap="round" stroke-linejoin="round"/>
<path d="M172.669 118.483C172.669 118.483 179.244 116.229 179.865 115.816C180.487 115.403 186.648 115.816 186.648 115.816L185.417 122.577L169.177 120.323L172.669 118.477V118.483Z" fill="white" stroke="#263238" stroke-miterlimit="10"/>
<path d="M151.907 93.6934C151.907 93.6934 146.77 95.7404 146.148 96.5604C145.533 97.3805 141.011 113.569 140.389 119.51C139.774 125.45 138.537 132.217 139.359 132.418C140.182 132.624 142.035 134.264 147.787 132.825C149.872 132.305 169.987 126.677 169.987 126.677L164.228 122.784L152.924 121.964C152.924 121.964 150.249 115.816 150.871 112.129C151.486 108.442 152.102 104.755 152.102 104.755" fill="#FF9A6C"/>
<path d="M151.907 93.6934C151.907 93.6934 146.77 95.7404 146.148 96.5604C145.533 97.3805 141.011 113.569 140.389 119.51C139.774 125.45 138.537 132.217 139.359 132.418C140.182 132.624 142.035 134.264 147.787 132.825C149.872 132.305 169.987 126.677 169.987 126.677L164.228 122.784L152.924 121.964C152.924 121.964 150.249 115.816 150.871 112.129C151.486 108.442 152.102 104.755 152.102 104.755" stroke="#263238" stroke-miterlimit="10"/>
<path d="M143.686 119.197C144.189 119.071 147.191 118.076 148.233 118.226C149.282 118.377 152.064 121.563 152.064 121.563C152.064 121.563 149.69 116.33 147.561 115.078" stroke="#263238" stroke-miterlimit="10"/>
<path d="M156.177 122.201L157.659 130.12C163.607 128.468 170 126.677 170 126.677L164.241 122.784L156.177 122.201Z" fill="white" stroke="#263238" stroke-miterlimit="10"/>
<path d="M152.931 121.97C152.931 121.97 152.108 123.403 152.315 125.864C152.522 128.324 153.753 132.831 153.753 132.831L159.305 130.984L157.867 121.15L152.931 121.97Z" fill="white" stroke="#263238" stroke-miterlimit="10"/>
<path d="M194.938 94.3069C194.938 94.3069 200.169 96.7733 200.583 97.3805C204.113 102.57 199.333 113.738 199.333 118.452C199.333 123.165 196.307 135.491 194.862 136.111C193.424 136.725 167.312 128.799 152.924 121.97C150.808 120.968 152.717 119.103 153.747 118.489C154.777 117.876 182.735 120.949 182.735 120.949C182.735 120.949 186.849 107.835 187.257 105.788" fill="#FF9A6C"/>
<path d="M194.937 94.3069C194.937 94.3069 200.169 96.7733 200.583 97.3805C204.113 102.57 199.333 113.738 199.333 118.452C199.333 123.165 196.307 135.491 194.862 136.111C193.424 136.725 167.312 128.799 152.924 121.97C150.808 120.968 152.717 119.103 153.747 118.489C154.777 117.876 182.735 120.949 182.735 120.949C182.735 120.949 186.849 107.835 187.257 105.788" stroke="#263238" stroke-miterlimit="10"/>
<path d="M182.742 120.943C182.742 120.943 187.332 121.194 190.334 124.931" stroke="#263238" stroke-miterlimit="10"/>
<path d="M189.907 121.676C190.422 122.064 190.874 122.521 191.207 123.065" stroke="#263238" stroke-miterlimit="10"/>
<path d="M184.331 119.698C184.331 119.698 186.227 119.879 188.105 120.668" stroke="#263238" stroke-miterlimit="10"/>
<path d="M174.955 120.117C166.602 119.253 154.425 118.082 153.753 118.483C152.723 119.096 150.67 121.35 152.931 121.964C154.023 122.258 164.304 127.598 173.736 130.427L174.955 120.111V120.117Z" fill="white" stroke="#263238" stroke-miterlimit="10"/>
<path d="M172.669 118.483L171.639 131.598L177.397 132.831L178.421 119.303L172.669 118.483Z" fill="white" stroke="#263238" stroke-miterlimit="10"/>
<path d="M167.261 59.3447C167.261 59.3447 163.914 61.8049 162.501 63.7392C161.088 65.6736 161.446 68.6596 161.264 70.2434C161.082 71.8272 160.561 78.1498 161.44 80.4347C162.319 82.7196 164.963 86.7635 166.728 87.8152C168.492 88.8669 170.96 87.8152 172.543 86.7635C174.126 85.7118 177.127 83.2517 177.303 82.1937C177.479 81.142 178.54 74.1121 178.182 71.6519C177.831 69.1917 176.945 65.1477 175.714 63.5702C174.477 61.9864 167.249 59.351 167.249 59.351L167.261 59.3447Z" fill="white" stroke="#263238" stroke-miterlimit="10"/>
<path d="M165.145 70.45C165.145 70.45 165.968 70.6127 165.968 71.9211C165.968 73.2294 164.655 77.1607 165.145 77.8117C165.635 78.469 166.458 78.9573 167.607 78.1372" fill="white"/>
<path d="M165.145 70.45C165.145 70.45 165.968 70.6127 165.968 71.9211C165.968 73.2294 164.655 77.1607 165.145 77.8117C165.635 78.469 166.458 78.9573 167.607 78.1372" stroke="#263238" stroke-miterlimit="10"/>
<path d="M165.145 80.4285C165.145 80.4285 168.919 81.0858 170.891 79.6084C170.891 79.6084 168.756 82.2251 167.444 82.3878C166.131 82.5506 165.145 80.4222 165.145 80.4222V80.4285Z" fill="white" stroke="#263238" stroke-miterlimit="10"/>
<path d="M169.66 73.0666C170.07 73.0666 170.402 72.5173 170.402 71.8396C170.402 71.162 170.07 70.6127 169.66 70.6127C169.251 70.6127 168.919 71.162 168.919 71.8396C168.919 72.5173 169.251 73.0666 169.66 73.0666Z" fill="#263238"/>
<path d="M164.159 71.2637C164.159 71.9398 163.826 72.4907 163.418 72.4907C163.01 72.4907 162.677 71.9398 162.677 71.2637C162.677 70.5876 163.01 70.0367 163.418 70.0367C163.826 70.0367 164.159 70.5876 164.159 71.2637Z" fill="#263238"/>
<path d="M162.024 68.8098C162.024 68.8098 163.337 67.5014 164.982 68.9725L162.024 68.8098Z" fill="white"/>
<path d="M162.024 68.8098C162.024 68.8098 163.337 67.5014 164.982 68.9725" stroke="#263238" stroke-miterlimit="10"/>
<path d="M169.409 69.1354C169.409 69.1354 171.544 67.827 173.353 69.7927L169.409 69.1354Z" fill="white"/>
<path d="M169.409 69.1354C169.409 69.1354 171.544 67.827 173.353 69.7927" stroke="#263238" stroke-miterlimit="10"/>
<path d="M110.358 125.031L117.128 116.755C117.128 116.755 118.001 108.918 118.328 108.699C118.654 108.48 122.586 104.342 122.586 104.342C122.586 104.342 123.025 100.642 123.572 101.512C124.118 102.382 124.118 103.91 123.898 104.561C123.678 105.212 122.805 107.609 122.805 107.609L129.902 103.691C129.902 103.691 132.087 101.293 132.307 102.495C132.527 103.691 130.561 108.592 129.355 110.552C128.156 112.511 122.692 115.779 121.493 116.974C120.293 118.17 113.304 138.202 111.225 140.819C109.153 143.429 108.606 144.086 108.606 144.086C108.606 144.086 107.84 134.615 108.606 130.803C109.372 126.99 110.352 125.031 110.352 125.031H110.358Z" fill="white" stroke="#263238" stroke-miterlimit="10"/>
<path d="M132.32 104.016C132.32 104.016 133.481 101.994 133.117 101.268C132.753 100.548 132.031 101.268 131.955 101.556C131.88 101.844 132.32 104.01 132.32 104.01V104.016Z" fill="white" stroke="#263238" stroke-miterlimit="10"/>
<path d="M131.591 106.833C131.591 106.833 132.389 104.955 132.313 104.016C132.238 103.077 131.66 101.055 131.151 101.631C130.643 102.207 131.371 104.016 131.371 104.235C131.371 104.454 131.591 106.839 131.591 106.839V106.833Z" fill="white" stroke="#263238" stroke-miterlimit="10"/>
<path d="M129.362 110.552C129.362 110.552 131.522 108.141 131.591 106.839C131.66 105.537 130.668 102.326 130.285 103.008C129.908 103.691 130.285 104.817 130.21 105.681C130.134 106.551 130.134 108.354 130.134 108.354L129.355 110.552H129.362Z" fill="white" stroke="#263238" stroke-miterlimit="10"/>
<path d="M121.392 114.796C121.392 114.796 122.378 112.617 123.138 112.292C123.904 111.966 127.616 110.113 127.616 110.113C127.616 110.113 129.475 103.91 129.801 104.999C130.128 106.088 130.454 108.918 129.362 110.552C128.269 112.185 123.465 115.56 123.465 115.56" fill="white"/>
<path d="M121.392 114.796C121.392 114.796 122.378 112.617 123.138 112.292C123.904 111.966 127.616 110.113 127.616 110.113C127.616 110.113 129.475 103.91 129.801 104.999C130.128 106.088 130.454 108.918 129.362 110.552C128.269 112.185 123.465 115.56 123.465 115.56" stroke="#263238" stroke-miterlimit="10"/>
<path d="M73.8402 270.563L74.688 279.465C74.688 279.465 77.6019 280.874 81.8346 281.713C86.0674 282.558 92.5546 282.652 93.7792 281.149C95.0038 279.647 94.1623 276.542 94.1623 276.542C94.1623 276.542 84.0012 274.213 80.6163 272.154C77.2314 270.094 74.5059 268.028 73.8465 270.557L73.8402 270.563Z" fill="white" stroke="#263238" stroke-miterlimit="10"/>
<path d="M100.58 272.542C100.58 272.542 100.405 280.529 101.29 281.061C102.182 281.594 107.168 281.237 108.236 281.863C109.303 282.483 115.627 283.816 118.478 283.641C121.33 283.465 120.884 281.863 120.884 280.711C120.884 279.559 120.388 278.864 120.388 278.864C120.388 278.864 117.411 279.64 114.566 278.044C111.715 276.448 111.715 274.845 106.283 273.074C100.85 271.296 100.229 271.033 100.58 272.542Z" fill="white" stroke="#263238" stroke-miterlimit="10"/>
<path d="M66.8694 160.294C66.8694 160.294 68.653 176.657 72.7601 186.792C76.8609 196.927 74.9016 209.378 74.7194 210.981C74.5373 212.583 71.5104 217.203 71.6862 227.52C71.862 237.836 75.6112 250.638 75.9692 253.305C76.3271 255.971 76.6851 260.773 76.6851 260.773C76.7039 261.249 75.7996 262.782 74.5624 265.343C73.0238 268.535 73.8214 270.438 74.8388 271.177C75.8624 271.916 83.1974 277.199 86.5447 278.032C89.8919 278.864 92.4918 277.844 92.7682 277.756C93.0445 277.669 94.4386 277.568 94.1623 276.554C93.886 275.54 92.674 274.238 92.2092 273.963C91.7445 273.687 89.5151 272.391 89.5151 272.391C89.5151 272.391 85.4268 265.355 85.0563 263.778C84.6858 262.206 84.1269 245.167 84.4974 240.071C84.8679 234.975 87.7504 218.775 88.2152 213.216C88.6799 207.657 89.7914 197.378 89.7914 197.378L91.1856 179.506C91.1856 179.506 94.6208 191.637 97.0386 198.674C99.4564 205.71 100.568 207.657 101.221 211.732C101.874 215.807 98.9916 220.903 98.9916 227.657C98.9916 234.412 101.529 248.121 102.276 252.478C103.017 256.829 103.111 262.482 103.111 262.482C103.111 262.482 101.811 265.537 101.07 267.665C100.329 269.794 100.329 271.922 101.723 273.036C103.118 274.151 107.112 273.869 108.223 275.259C109.341 276.648 110.641 278.038 112.87 279.058C115.1 280.079 118.164 280.63 119.188 280.448C120.212 280.26 120.582 279.334 120.394 278.877C120.205 278.414 118.629 277.763 118.353 277.581C118.077 277.393 114.453 272.022 113.706 270.263C112.965 268.504 111.941 263.039 111.753 261.555C111.564 260.072 112.927 239.332 112.927 239.332C112.927 239.332 114.415 218.499 114.503 216.646C114.597 214.793 115.156 214.887 114.968 210.906C114.78 206.924 114.503 187.475 111.621 177.753C108.738 168.031 107.532 160.25 107.532 160.25C107.532 160.25 100.191 162.935 97.2207 163.492C94.2502 164.05 88.1147 155.899 83.8443 152.75C79.5739 149.602 76.9677 151.548 72.5089 154.603C68.0501 157.658 66.8632 160.306 66.8632 160.306L66.8694 160.294Z" fill="#263238" stroke="#263238" stroke-miterlimit="10"/>
<path d="M82.7327 98.1381C82.7327 98.1381 72.6847 100.968 72.4649 101.95C72.2451 102.933 72.2451 115.234 72.2451 120.242C72.2451 125.25 74.2107 142.453 74.2107 142.453C74.2107 142.453 69.4066 151.054 67.7675 154.428C66.1284 157.802 65.582 163.574 65.582 163.574C65.582 163.574 67.9873 161.721 71.479 159.981C74.9769 158.24 78.9082 154.647 79.6681 155.517C80.4342 156.387 88.8431 167.054 90.3692 168.144C91.8952 169.233 95.2864 170.754 95.2864 170.754L97.3588 166.616L99.2177 170.535C99.2177 170.535 105.334 165.852 107.193 163.461C109.052 161.064 110.798 157.145 110.905 156.713C111.012 156.281 109.705 144.086 109.705 140.055C109.705 136.024 110.252 134.721 110.798 132.981C111.344 131.241 112.217 125.144 111.451 122.64C110.685 120.136 109.486 115.779 109.486 114.802C109.486 113.826 109.379 107.616 108.613 105.875C107.846 104.135 99.6573 99.8909 99.6573 99.8909C99.6573 99.8909 92.0145 96.2976 82.7264 98.1506L82.7327 98.1381Z" fill="#FF9A6C" stroke="#263238" stroke-miterlimit="10"/>
<path d="M98.238 105.325L99.1109 101.625L102.822 106.526C102.822 106.526 100.204 98.2507 99.7641 97.4933C99.3245 96.7295 97.6917 96.0785 97.6917 96.0785L98.238 105.331V105.325Z" fill="white" stroke="#263238" stroke-miterlimit="10"/>
<path d="M85.9794 63.6642C85.9794 63.6642 82.4312 60.9411 82.8834 58.4934C83.3355 56.0458 90.6203 53.1411 93.8922 53.8673C97.1704 54.5935 97.8989 57.5857 97.4404 58.5873C96.9883 59.5827 96.5298 60.4027 92.3473 61.5796C88.1586 62.7565 85.9794 63.6642 85.9794 63.6642Z" fill="#263238" stroke="#263238" stroke-miterlimit="10"/>
<path d="M109.09 68.2027C109.09 68.2027 112.274 67.6581 112.186 65.5735C112.098 63.489 109.636 60.9474 106.729 59.952C103.815 58.9567 94.7149 58.7752 89.9861 60.6782C85.251 62.5812 83.1597 64.9413 81.4327 69.1167C79.7057 73.2921 77.7024 79.0012 80.07 82.9075C82.4375 86.8075 85.4394 87.7152 88.1712 84.9921L89.8102 87.1705C89.8102 87.1705 96.4545 82.9951 98.2757 79.6398C100.097 76.2844 103.187 71.4767 105.284 70.7505C107.375 70.0244 109.109 68.209 109.109 68.209L109.09 68.2027Z" fill="#263238" stroke="#263238" stroke-miterlimit="10"/>
<path d="M109.09 68.2027C109.09 68.2027 110.183 71.195 110 74.0996C109.818 77.0043 109.184 78.4566 109.548 79.6335C109.912 80.8103 111.639 83.0827 111.369 83.6273C111.099 84.172 108.914 84.9858 108.914 84.9858C108.914 84.9858 106.094 92.4226 105.366 92.9673C104.637 93.5119 103.362 93.5119 102.816 93.5119C102.27 93.5119 98.3573 92.6042 98.3573 92.6042C98.3573 92.6042 97.9051 110.927 97.3588 111.472C96.8124 112.016 93.0821 100.861 93.0821 100.861L86.0736 96.8672C86.0736 96.8672 88.8054 89.8811 88.7112 88.2472C88.6233 86.6134 88.1648 84.9795 88.1648 84.9795L90.8024 83.3456C90.8024 83.3456 88.2528 79.5333 89.5276 77.3611C90.8024 75.1826 92.6236 76.7288 93.3521 77.6303C94.0806 78.538 94.3507 79.9903 94.897 80.0779C95.4434 80.1656 95.8955 79.3518 95.8955 78.901C95.8955 78.4503 95.8076 76.0903 95.8955 75.5457C95.9834 75.0011 100.266 74.5503 101.811 72.1903C103.356 69.8303 100.901 69.0165 103.815 68.4719C106.729 67.9273 109.09 68.2027 109.09 68.2027Z" fill="white" stroke="#263238" stroke-miterlimit="10"/>
<path d="M106.999 79.0889C106.999 79.7399 106.835 80.2657 106.634 80.2657C106.433 80.2657 106.27 79.7399 106.27 79.0889C106.27 78.4378 106.433 77.912 106.634 77.912C106.835 77.912 106.999 78.4378 106.999 79.0889Z" fill="#263238"/>
<path d="M105.636 76.5473C105.636 76.5473 107.093 75.3704 107.909 76.2781" stroke="#263238" stroke-miterlimit="10"/>
<path d="M103.086 85.618C103.086 85.618 104.179 86.7949 106.546 86.8888C106.546 86.8888 105.548 88.5227 104.091 88.1596C102.634 87.7965 103.092 85.618 103.092 85.618H103.086Z" stroke="#263238" stroke-miterlimit="10"/>
<path d="M98.351 92.6042L94.6207 90.9703L97.9868 96.7733L98.351 92.6042Z" fill="#263238" stroke="#263238" stroke-miterlimit="10"/>
<path d="M93.0068 99.9597L89.8354 107.384L81.4265 98.3133L83.9071 95.0143L93.0068 99.9597Z" fill="white" stroke="#263238" stroke-miterlimit="10"/>
<path d="M72.2451 117.406L73.4446 142.227L91.575 142.008L91.3552 117.519L72.2451 117.406Z" fill="#263238" stroke="#263238" stroke-miterlimit="10"/>
<path d="M77.4889 107.065C77.4889 107.065 74.9769 101.95 72.4649 101.95C71.1838 101.95 66.8945 106.307 65.9149 109.569C64.9289 112.836 58.3789 130.69 56.7398 135.372C55.1007 140.055 55.5403 142.991 55.9736 142.884C56.4132 142.778 82.6197 137.332 82.6197 137.332C82.6197 137.332 88.9562 137.332 90.1557 137.006C91.3551 136.681 92.1213 134.177 92.1213 134.177L92.3411 131.235C92.3411 131.235 93.8671 129.169 93.214 128.405C92.5609 127.641 91.7947 127.535 91.7947 127.535L87.8635 127.316C87.8635 127.316 89.0629 126.007 88.7364 125.031C88.4098 124.054 87.3171 124.161 87.0973 124.486C86.8775 124.812 86.5509 125.576 85.1317 126.227C83.7124 126.878 81.3071 127.097 80.8738 127.86C80.4342 128.624 79.8879 131.886 79.7811 132.543C79.6743 133.194 65.8018 132.762 65.8018 132.762C65.8018 132.762 74.104 117.738 74.6503 116.323C75.1967 114.909 78.5816 109.901 77.4889 107.071V107.065Z" fill="white" stroke="#263238" stroke-miterlimit="10"/>
<path d="M64.3826 132.43L60.7778 132.105" stroke="#263238" stroke-miterlimit="10"/>
<path d="M94.1623 276.548C93.886 275.528 92.674 274.232 92.2092 273.956C91.7445 273.681 89.5151 272.385 89.5151 272.385C89.5151 272.385 85.4268 265.349 85.0563 263.771C84.9307 263.246 84.7863 260.973 84.6607 258C80.8738 258.864 77.9976 258.244 76.4213 257.68C76.572 259.383 76.6788 260.773 76.6788 260.773C76.6788 260.773 75.4416 264.003 74.5562 265.343C72.6031 268.304 73.8151 270.438 74.8325 271.177C75.8561 271.916 83.1912 277.199 86.5384 278.032C89.8856 278.864 92.4856 277.844 92.7619 277.756C93.0382 277.662 94.4324 277.568 94.156 276.554L94.1623 276.548Z" fill="white" stroke="#263238" stroke-miterlimit="10"/>
<path d="M119.182 280.442C120.205 280.254 120.576 279.328 120.388 278.871C120.199 278.407 118.623 277.756 118.347 277.575C118.07 277.387 114.447 272.016 113.699 270.257C112.958 268.498 111.935 263.033 111.746 261.549C111.709 261.255 111.734 260.122 111.803 258.519C109.046 259.214 104.989 258.432 102.892 257.925C103.074 260.466 103.111 262.482 103.111 262.482C103.111 262.482 101.811 265.537 101.07 267.665C100.329 269.794 100.329 271.922 101.723 273.036C103.118 274.15 107.112 273.869 108.223 275.259C109.341 276.648 110.641 278.038 112.87 279.058C115.1 280.079 118.164 280.63 119.188 280.448L119.182 280.442Z" fill="white" stroke="#263238" stroke-miterlimit="10"/>
<path d="M80.2396 274.783C80.2396 274.783 83.6245 271.033 88.7992 271.315L91.5247 273.468L92.2155 273.95C92.2155 273.95 89.8354 274.401 88.5166 275.246C87.1978 276.091 86.5447 278.025 86.5447 278.025C86.5447 278.025 81.5584 277.03 80.2396 274.776V274.783Z" fill="#FF9A6C" stroke="#263238" stroke-miterlimit="10"/>
<path d="M110.44 277.612C110.44 277.612 113.084 274.069 115.351 273.543L118.34 277.568C118.34 277.568 115.954 279.115 115.351 280.022C115.351 280.022 111.42 279.271 110.44 277.612Z" fill="#FF9A6C" stroke="#263238" stroke-miterlimit="10"/>
</svg>
